<svg width="690" height="425" viewBox="0 0 690 425" fill="none" xmlns="http://www.w3.org/2000/svg">
<path d="M94.5469 37.5703C94.5469 41.3366 94.0814 44.7008 93.1504 47.6631C92.2194 50.6253 90.9499 53.249 89.3418 55.5342C87.776 57.777 85.9564 59.7025 83.8828 61.3105C81.8092 62.9186 79.6299 64.2516 77.3447 65.3096C75.1019 66.3252 72.8167 67.0658 70.4893 67.5312C68.2041 67.9967 66.0459 68.2295 64.0146 68.2295L98.4824 98H72.9648L38.5605 68.2295H26.6904V51.7256H64.0146C66.0882 51.5563 67.9714 51.1331 69.6641 50.4561C71.3991 49.7367 72.8802 48.7845 74.1074 47.5996C75.377 46.4147 76.3503 44.9971 77.0273 43.3467C77.7044 41.654 78.043 39.7285 78.043 37.5703V27.1602C78.043 26.2292 77.916 25.5309 77.6621 25.0654C77.4505 24.5576 77.1543 24.1979 76.7734 23.9863C76.4349 23.7324 76.054 23.5843 75.6309 23.542C75.25 23.4997 74.8903 23.4785 74.5518 23.4785H20.0889V98H3.58496V15.29C3.58496 14.1475 3.79655 13.0684 4.21973 12.0527C4.6429 11.0371 5.21419 10.1484 5.93359 9.38672C6.69531 8.625 7.58398 8.03255 8.59961 7.60938C9.61523 7.1862 10.7155 6.97461 11.9004 6.97461H74.5518C78.2334 6.97461 81.3438 7.65169 83.8828 9.00586C86.4219 10.3177 88.4743 11.9893 90.04 14.0205C91.6481 16.0094 92.7907 18.1676 93.4678 20.4951C94.1872 22.8226 94.5469 25.002 94.5469 27.0332V37.5703ZM177.135 52.1064C177.135 54.3916 176.733 56.8672 175.929 59.5332C175.125 62.1569 173.813 64.6113 171.993 66.8965C170.216 69.1393 167.867 71.0225 164.947 72.5459C162.07 74.0693 158.557 74.8311 154.41 74.8311H124.64V59.1523H154.41C156.653 59.1523 158.388 58.4753 159.615 57.1211C160.843 55.7246 161.456 54.0107 161.456 51.9795C161.456 49.8213 160.758 48.1286 159.362 46.9014C158.007 45.6742 156.357 45.0605 154.41 45.0605H124.64C122.397 45.0605 120.662 45.7588 119.435 47.1553C118.208 48.5094 117.594 50.2021 117.594 52.2334V75.2754C117.594 77.4759 118.271 79.1898 119.625 80.417C121.022 81.6442 122.736 82.2578 124.767 82.2578H154.41V98H124.64C122.355 98 119.879 97.598 117.213 96.7939C114.589 95.9899 112.135 94.6992 109.85 92.9219C107.607 91.1022 105.724 88.7536 104.2 85.876C102.677 82.9561 101.915 79.4225 101.915 75.2754V52.1064C101.915 49.8213 102.317 47.3669 103.121 44.7432C103.925 42.0771 105.216 39.6227 106.993 37.3799C108.813 35.0947 111.162 33.1904 114.039 31.667C116.959 30.1436 120.493 29.3818 124.64 29.3818H154.41C156.696 29.3818 159.15 29.7839 161.774 30.5879C164.44 31.3919 166.894 32.7038 169.137 34.5234C171.422 36.3008 173.326 38.6494 174.85 41.5693C176.373 44.4469 177.135 47.9593 177.135 52.1064ZM253.375 75.2754C253.375 77.5605 252.973 80.0361 252.169 82.7021C251.365 85.3258 250.053 87.7803 248.234 90.0654C246.456 92.3083 244.108 94.1914 241.188 95.7148C238.31 97.2383 234.798 98 230.651 98H200.88C198.595 98 196.12 97.598 193.454 96.7939C190.83 95.9899 188.375 94.6992 186.09 92.9219C183.847 91.1022 181.964 88.7536 180.441 85.876C178.917 82.9561 178.156 79.4225 178.156 75.2754C178.156 72.9902 178.558 70.5146 179.362 67.8486C180.166 65.1826 181.456 62.7282 183.234 60.4854C185.053 58.2002 187.402 56.2959 190.28 54.7725C193.2 53.249 196.733 52.4873 200.88 52.4873H230.651V68.2295H200.88C198.637 68.2295 196.902 68.9277 195.675 70.3242C194.448 71.6784 193.834 73.3711 193.834 75.4023C193.834 77.5605 194.533 79.2533 195.929 80.4805C197.368 81.6654 199.061 82.2578 201.007 82.2578H230.651C232.894 82.2578 234.629 81.5807 235.856 80.2266C237.083 78.8724 237.697 77.1797 237.697 75.1484V52.1064C237.697 49.9482 237.02 48.2344 235.665 46.9648C234.354 45.6953 232.682 45.0605 230.651 45.0605H194.406V29.3818H230.651C232.936 29.3818 235.39 29.7839 238.014 30.5879C240.68 31.3919 243.135 32.7038 245.377 34.5234C247.663 36.3008 249.567 38.6494 251.09 41.5693C252.614 44.4469 253.375 47.9593 253.375 52.1064V75.2754ZM337.55 74.8311C337.55 77.6663 337.191 80.2266 336.471 82.5117C335.752 84.7546 334.8 86.7435 333.615 88.4785C332.43 90.1712 331.055 91.6312 329.489 92.8584C327.923 94.0433 326.273 95.0166 324.538 95.7783C322.845 96.54 321.11 97.1113 319.333 97.4922C317.598 97.8307 315.947 98 314.381 98H284.611C281.776 98 279.237 97.6403 276.994 96.9209C274.751 96.2015 272.762 95.2493 271.027 94.0645C269.334 92.8372 267.874 91.4408 266.647 89.875C265.462 88.3092 264.489 86.68 263.727 84.9873C262.965 83.2523 262.394 81.5173 262.013 79.7822C261.675 78.0049 261.505 76.3545 261.505 74.8311V52.4873C261.505 48.2555 262.267 44.6797 263.791 41.7598C265.356 38.7975 267.282 36.4066 269.567 34.5869C271.894 32.7249 274.412 31.3919 277.121 30.5879C279.829 29.7839 282.326 29.3818 284.611 29.3818H314.381V45.8857H284.738C282.537 45.8857 280.866 46.457 279.723 47.5996C278.581 48.6999 278.009 50.3291 278.009 52.4873V74.7041C278.009 76.9469 278.559 78.6396 279.66 79.7822C280.802 80.9248 282.453 81.4961 284.611 81.4961H314.381C316.624 81.4961 318.296 80.9248 319.396 79.7822C320.496 78.6396 321.046 76.9893 321.046 74.8311V0.373047H337.55V74.8311ZM423.757 104.602C423.757 107.437 423.397 109.976 422.678 112.219C421.958 114.504 421.006 116.493 419.821 118.186C418.636 119.921 417.261 121.381 415.695 122.565C414.129 123.793 412.479 124.787 410.744 125.549C409.051 126.311 407.337 126.861 405.602 127.199C403.867 127.58 402.217 127.771 400.651 127.771H370.881V111.267H400.651C402.852 111.267 404.502 110.695 405.602 109.553C406.703 108.41 407.253 106.76 407.253 104.602V29.3818H423.757V104.602ZM400.651 98H370.881C368.511 98 365.972 97.598 363.263 96.7939C360.597 95.9899 358.101 94.6781 355.773 92.8584C353.446 90.9964 351.52 88.6055 349.997 85.6855C348.473 82.7233 347.712 79.1051 347.712 74.8311V29.3818H364.216V74.8311C364.216 76.9893 364.787 78.6396 365.93 79.7822C367.072 80.9248 368.765 81.4961 371.008 81.4961H400.651V98ZM532.756 45.8857H503.938V98H487.243V45.8857H465.788V29.3818H487.243V6.97461H503.938V29.3818H532.756V45.8857ZM612.805 74.8311C612.805 77.6663 612.445 80.2266 611.726 82.5117C611.007 84.7546 610.054 86.7435 608.87 88.4785C607.685 90.1712 606.309 91.6312 604.744 92.8584C603.178 94.0433 601.527 95.0166 599.792 95.7783C598.1 96.54 596.365 97.1113 594.587 97.4922C592.852 97.8307 591.202 98 589.636 98H559.866C557.58 98 555.084 97.598 552.375 96.7939C549.667 95.9899 547.149 94.6781 544.822 92.8584C542.536 90.9964 540.611 88.6055 539.045 85.6855C537.522 82.7233 536.76 79.1051 536.76 74.8311V52.4873C536.76 48.2555 537.522 44.6797 539.045 41.7598C540.611 38.7975 542.536 36.4066 544.822 34.5869C547.149 32.7249 549.667 31.3919 552.375 30.5879C555.084 29.7839 557.58 29.3818 559.866 29.3818H589.636C593.868 29.3818 597.465 30.1436 600.427 31.667C603.389 33.1904 605.78 35.1159 607.6 37.4434C609.42 39.7285 610.731 42.2253 611.536 44.9336C612.382 47.6419 612.805 50.1598 612.805 52.4873V74.8311ZM596.301 52.6143C596.301 50.3291 595.73 48.6364 594.587 47.5361C593.445 46.4359 591.794 45.8857 589.636 45.8857H559.993C557.792 45.8857 556.12 46.457 554.978 47.5996C553.835 48.6999 553.264 50.3291 553.264 52.4873V74.8311C553.264 76.9893 553.835 78.6396 554.978 79.7822C556.12 80.9248 557.792 81.4961 559.993 81.4961H589.636C591.879 81.4961 593.55 80.9248 594.651 79.7822C595.751 78.6396 596.301 76.9893 596.301 74.8311V52.6143ZM94.4199 234.005C94.4199 236.036 94.0602 238.215 93.3408 240.543C92.6637 242.87 91.5212 245.029 89.9131 247.018C88.3473 249.007 86.2949 250.678 83.7559 252.032C81.2168 253.344 78.1064 254 74.4248 254H11.7734C10.5885 254 9.48828 253.788 8.47266 253.365C7.45703 252.942 6.56836 252.371 5.80664 251.651C5.08724 250.89 4.51595 250.001 4.09277 248.985C3.6696 247.97 3.45801 246.869 3.45801 245.685V171.29C3.45801 170.147 3.6696 169.068 4.09277 168.053C4.51595 167.037 5.08724 166.148 5.80664 165.387C6.56836 164.625 7.45703 164.033 8.47266 163.609C9.48828 163.186 10.5885 162.975 11.7734 162.975H66.998C69.0293 162.975 71.2087 163.334 73.5361 164.054C75.8636 164.773 78.0218 165.937 80.0107 167.545C82.042 169.111 83.7135 171.163 85.0254 173.702C86.3796 176.241 87.0566 179.352 87.0566 183.033V186.144C87.0566 189.063 86.57 192.216 85.5967 195.602C84.6234 198.945 83.0576 202.118 80.8994 205.123C82.7614 206.266 84.4964 207.641 86.1045 209.249C87.7549 210.857 89.1937 212.719 90.4209 214.835C91.6481 216.951 92.6214 219.342 93.3408 222.008C94.0602 224.674 94.4199 227.615 94.4199 230.831V234.005ZM77.916 230.831C77.916 228.673 77.5775 226.747 76.9004 225.055C76.2233 223.32 75.2712 221.839 74.0439 220.611C72.8167 219.384 71.3356 218.453 69.6006 217.818C67.8656 217.141 65.9189 216.803 63.7607 216.803H26.5635V200.172H56.334C58.4922 200.172 60.4388 199.854 62.1738 199.22C63.9089 198.543 65.39 197.59 66.6172 196.363C67.8444 195.136 68.7754 193.676 69.4102 191.983C70.0872 190.248 70.4258 188.302 70.4258 186.144V183.033C70.4258 180.663 69.2832 179.479 66.998 179.479H19.9619V237.496H74.4248C74.721 237.496 75.0807 237.475 75.5039 237.433C75.9271 237.39 76.3079 237.263 76.6465 237.052C76.985 236.84 77.2812 236.48 77.5352 235.973C77.7891 235.465 77.916 234.767 77.916 233.878V230.831ZM176.818 245.685C176.818 246.869 176.606 247.97 176.183 248.985C175.76 250.001 175.167 250.89 174.405 251.651C173.686 252.371 172.819 252.942 171.803 253.365C170.83 253.788 169.772 254 168.629 254H131.305C129.274 254 127.094 253.767 124.767 253.302C122.482 252.836 120.218 252.096 117.975 251.08C115.732 250.022 113.553 248.71 111.437 247.145C109.363 245.536 107.543 243.611 105.978 241.368C104.412 239.083 103.142 236.459 102.169 233.497C101.238 230.535 100.773 227.192 100.773 223.468V185.382H117.277V223.468C117.277 225.626 117.636 227.573 118.356 229.308C119.117 231 120.133 232.46 121.403 233.688C122.672 234.915 124.153 235.867 125.846 236.544C127.581 237.179 129.443 237.496 131.432 237.496H160.314V185.382H176.818V245.685ZM203.864 171.29H187.36V156.373H203.864V171.29ZM203.864 254H187.36V185.382H203.864V254ZM244.684 254H237.321C234.951 254 232.412 253.598 229.704 252.794C227.038 251.99 224.541 250.678 222.213 248.858C219.886 246.996 217.961 244.605 216.437 241.686C214.914 238.723 214.152 235.105 214.152 230.831V156.373H230.656V230.831C230.656 232.862 231.291 234.492 232.56 235.719C233.83 236.904 235.417 237.496 237.321 237.496H244.684V254ZM325.368 230.831C325.368 233.666 325.008 236.227 324.289 238.512C323.569 240.755 322.617 242.743 321.432 244.479C320.248 246.171 318.872 247.631 317.306 248.858C315.741 250.043 314.09 251.017 312.355 251.778C310.663 252.54 308.928 253.111 307.15 253.492C305.415 253.831 303.765 254 302.199 254H272.429C269.593 254 267.054 253.64 264.811 252.921C262.568 252.201 260.58 251.249 258.845 250.064C257.152 248.837 255.692 247.441 254.465 245.875C253.28 244.309 252.306 242.68 251.545 240.987C250.783 239.252 250.212 237.517 249.831 235.782C249.492 234.005 249.323 232.354 249.323 230.831V208.487C249.323 204.256 250.085 200.68 251.608 197.76C253.174 194.798 255.099 192.407 257.385 190.587C259.712 188.725 262.23 187.392 264.938 186.588C267.647 185.784 270.143 185.382 272.429 185.382H302.199V201.886H272.555C270.355 201.886 268.683 202.457 267.541 203.6C266.398 204.7 265.827 206.329 265.827 208.487V230.704C265.827 232.947 266.377 234.64 267.477 235.782C268.62 236.925 270.27 237.496 272.429 237.496H302.199C304.442 237.496 306.113 236.925 307.214 235.782C308.314 234.64 308.864 232.989 308.864 230.831V156.373H325.368V230.831ZM485.974 185.382C483.35 191.264 480.515 197.062 477.468 202.774C474.421 208.445 471.226 213.819 467.883 218.897C464.582 223.976 461.197 228.673 457.727 232.989C454.257 237.263 450.808 240.966 447.38 244.098C443.995 247.187 440.673 249.62 437.414 251.397C434.198 253.132 431.151 254 428.274 254C427.089 254 425.988 253.788 424.973 253.365C423.957 252.942 423.069 252.371 422.307 251.651C421.545 250.89 420.953 250.001 420.529 248.985C420.106 247.97 419.895 246.869 419.895 245.685V214.898L387.141 251.524C386.294 252.371 385.363 253.006 384.348 253.429C383.375 253.81 382.359 254 381.301 254C380.158 254 379.079 253.788 378.064 253.365C377.09 252.942 376.223 252.371 375.461 251.651C374.699 250.89 374.086 250.001 373.62 248.985C373.197 247.97 372.986 246.869 372.986 245.685V185.382H389.489V224.483L422.37 187.73C423.555 186.546 424.952 185.805 426.56 185.509C428.21 185.17 429.818 185.34 431.384 186.017C432.95 186.651 434.177 187.667 435.066 189.063C435.997 190.418 436.462 191.92 436.462 193.57V232.799C440.017 229.371 443.233 225.753 446.111 221.944C448.988 218.136 451.654 214.221 454.109 210.201C456.605 206.139 458.933 202.034 461.091 197.887C463.292 193.697 465.429 189.529 467.502 185.382H485.974ZM503.245 171.29H486.741V156.373H503.245V171.29ZM503.245 254H486.741V185.382H503.245V254ZM576.311 201.886H547.493V254H530.798V201.886H509.343V185.382H530.798V162.975H547.493V185.382H576.311V201.886ZM658.264 254H641.761V208.487C641.761 206.329 641.21 204.7 640.11 203.6C639.01 202.457 637.36 201.886 635.159 201.886H605.388V185.382H635.159C636.725 185.382 638.375 185.572 640.11 185.953C641.845 186.292 643.559 186.842 645.252 187.604C646.987 188.365 648.637 189.36 650.203 190.587C651.769 191.772 653.144 193.232 654.329 194.967C655.514 196.66 656.466 198.627 657.185 200.87C657.905 203.113 658.264 205.652 658.264 208.487V254ZM598.723 254H582.22V156.373H598.723V254ZM99.1172 373.184C99.1172 377.415 98.5459 381.414 97.4033 385.181C96.3031 388.905 94.7161 392.29 92.6426 395.337C90.6113 398.384 88.1357 401.05 85.2158 403.335C82.3382 405.62 79.1221 407.419 75.5674 408.73L94.8643 424.028H70.9336L55.0645 411.27H38.8145C33.3555 411.27 28.2985 410.339 23.6436 408.477C18.9886 406.572 14.9684 403.927 11.583 400.542C8.19759 397.157 5.53158 393.136 3.58496 388.481C1.68066 383.826 0.728516 378.727 0.728516 373.184V355.791C0.728516 350.29 1.68066 345.212 3.58496 340.557C5.53158 335.859 8.19759 331.839 11.583 328.496C14.9684 325.111 18.9886 322.466 23.6436 320.562C28.2985 318.657 33.3555 317.705 38.8145 317.705H61.1582C66.6172 317.705 71.653 318.657 76.2656 320.562C80.9206 322.466 84.9408 325.111 88.3262 328.496C91.7116 331.839 94.3564 335.859 96.2607 340.557C98.165 345.212 99.1172 350.29 99.1172 355.791V373.184ZM82.6133 355.791C82.6133 352.533 82.0843 349.591 81.0264 346.968C80.0107 344.302 78.5508 342.038 76.6465 340.176C74.7845 338.271 72.5205 336.812 69.8545 335.796C67.2308 334.738 64.332 334.209 61.1582 334.209H38.8145C35.5983 334.209 32.6572 334.738 29.9912 335.796C27.3675 336.812 25.1035 338.271 23.1992 340.176C21.2949 342.038 19.8138 344.302 18.7559 346.968C17.7402 349.591 17.2324 352.533 17.2324 355.791V373.184C17.2324 376.442 17.7402 379.404 18.7559 382.07C19.8138 384.694 21.2949 386.958 23.1992 388.862C25.1035 390.724 27.3675 392.184 29.9912 393.242C32.6572 394.258 35.5983 394.766 38.8145 394.766H61.0312C64.2474 394.766 67.1673 394.258 69.791 393.242C72.457 392.184 74.7422 390.724 76.6465 388.862C78.5508 386.958 80.0107 384.694 81.0264 382.07C82.0843 379.404 82.6133 376.442 82.6133 373.184V355.791ZM183.419 401.685C183.419 402.869 183.208 403.97 182.784 404.985C182.361 406.001 181.769 406.89 181.007 407.651C180.288 408.371 179.42 408.942 178.404 409.365C177.431 409.788 176.373 410 175.231 410H137.906C135.875 410 133.696 409.767 131.368 409.302C129.083 408.836 126.819 408.096 124.576 407.08C122.334 406.022 120.154 404.71 118.038 403.145C115.965 401.536 114.145 399.611 112.579 397.368C111.014 395.083 109.744 392.459 108.771 389.497C107.84 386.535 107.374 383.192 107.374 379.468V341.382H123.878V379.468C123.878 381.626 124.238 383.573 124.957 385.308C125.719 387 126.735 388.46 128.004 389.688C129.274 390.915 130.755 391.867 132.447 392.544C134.182 393.179 136.044 393.496 138.033 393.496H166.915V341.382H183.419V401.685ZM264.547 387.275C264.547 389.561 264.145 392.036 263.341 394.702C262.537 397.326 261.225 399.78 259.406 402.065C257.628 404.308 255.28 406.191 252.36 407.715C249.482 409.238 245.97 410 241.823 410H212.052C209.767 410 207.291 409.598 204.625 408.794C202.002 407.99 199.547 406.699 197.262 404.922C195.019 403.102 193.136 400.754 191.613 397.876C190.089 394.956 189.328 391.423 189.328 387.275C189.328 384.99 189.73 382.515 190.534 379.849C191.338 377.183 192.628 374.728 194.406 372.485C196.225 370.2 198.574 368.296 201.452 366.772C204.371 365.249 207.905 364.487 212.052 364.487H241.823V380.229H212.052C209.809 380.229 208.074 380.928 206.847 382.324C205.62 383.678 205.006 385.371 205.006 387.402C205.006 389.561 205.704 391.253 207.101 392.48C208.54 393.665 210.232 394.258 212.179 394.258H241.823C244.066 394.258 245.801 393.581 247.028 392.227C248.255 390.872 248.869 389.18 248.869 387.148V364.106C248.869 361.948 248.191 360.234 246.837 358.965C245.525 357.695 243.854 357.061 241.823 357.061H205.578V341.382H241.823C244.108 341.382 246.562 341.784 249.186 342.588C251.852 343.392 254.306 344.704 256.549 346.523C258.834 348.301 260.739 350.649 262.262 353.569C263.786 356.447 264.547 359.959 264.547 364.106V387.275ZM349.484 410H332.98V371.914C332.98 369.756 332.599 367.83 331.837 366.138C331.118 364.403 330.124 362.922 328.854 361.694C327.585 360.467 326.082 359.536 324.347 358.901C322.655 358.224 320.814 357.886 318.825 357.886H289.943V410H273.439V349.57C273.439 348.428 273.651 347.37 274.074 346.396C274.497 345.381 275.089 344.513 275.851 343.794C276.613 343.032 277.502 342.44 278.517 342.017C279.533 341.593 280.612 341.382 281.754 341.382H318.952C321.025 341.382 323.205 341.615 325.49 342.08C327.817 342.546 330.102 343.307 332.345 344.365C334.63 345.381 336.789 346.693 338.82 348.301C340.893 349.867 342.713 351.792 344.279 354.077C345.887 356.32 347.157 358.923 348.087 361.885C349.018 364.847 349.484 368.19 349.484 371.914V410ZM419.123 357.886H390.305V410H373.61V357.886H352.155V341.382H373.61V318.975H390.305V341.382H419.123V357.886ZM499.807 401.685C499.807 402.869 499.595 403.97 499.172 404.985C498.749 406.001 498.156 406.89 497.395 407.651C496.675 408.371 495.808 408.942 494.792 409.365C493.819 409.788 492.761 410 491.618 410H454.294C452.263 410 450.083 409.767 447.756 409.302C445.471 408.836 443.207 408.096 440.964 407.08C438.721 406.022 436.542 404.71 434.426 403.145C432.352 401.536 430.533 399.611 428.967 397.368C427.401 395.083 426.132 392.459 425.158 389.497C424.227 386.535 423.762 383.192 423.762 379.468V341.382H440.266V379.468C440.266 381.626 440.625 383.573 441.345 385.308C442.106 387 443.122 388.46 444.392 389.688C445.661 390.915 447.142 391.867 448.835 392.544C450.57 393.179 452.432 393.496 454.421 393.496H483.303V341.382H499.807V401.685ZM571.35 410H554.846V364.487C554.846 362.329 554.275 360.7 553.132 359.6C551.989 358.457 550.297 357.886 548.054 357.886H526.599V410H510.095V349.57C510.095 348.428 510.306 347.37 510.73 346.396C511.153 345.381 511.745 344.513 512.507 343.794C513.269 343.032 514.157 342.44 515.173 342.017C516.189 341.593 517.268 341.382 518.41 341.382H548.181C550.466 341.382 552.92 341.784 555.544 342.588C558.168 343.392 560.665 344.683 563.034 346.46V341.382H585.378C586.944 341.382 588.594 341.572 590.329 341.953C592.064 342.292 593.778 342.842 595.471 343.604C597.206 344.365 598.856 345.36 600.422 346.587C601.988 347.772 603.363 349.232 604.548 350.967C605.733 352.66 606.685 354.627 607.404 356.87C608.124 359.113 608.484 361.652 608.484 364.487V410H591.98V364.487C591.98 362.329 591.43 360.7 590.329 359.6C589.271 358.457 587.621 357.886 585.378 357.886H570.525C571.075 359.917 571.35 362.118 571.35 364.487V410ZM689.548 349.57C689.548 351.898 689.146 354.416 688.342 357.124C687.538 359.832 686.205 362.35 684.343 364.678C682.523 367.005 680.133 368.952 677.17 370.518C674.25 372.041 670.675 372.803 666.443 372.803H652.414V387.656H635.847V364.487C635.847 363.345 636.059 362.287 636.482 361.313C636.905 360.298 637.476 359.409 638.196 358.647C638.957 357.886 639.825 357.293 640.798 356.87C641.814 356.405 642.893 356.172 644.036 356.172H666.443C668.601 356.172 670.23 355.622 671.33 354.521C672.473 353.421 673.044 351.771 673.044 349.57V342.144C673.044 339.985 672.494 338.335 671.394 337.192C670.294 336.05 668.643 335.479 666.443 335.479H613.503V318.975H666.443C668.77 318.975 671.288 319.398 673.996 320.244C676.705 321.048 679.202 322.36 681.487 324.18C683.814 325.999 685.74 328.39 687.263 331.353C688.786 334.315 689.548 337.912 689.548 342.144V349.57ZM652.224 401.685C652.224 402.827 652.012 403.906 651.589 404.922C651.166 405.895 650.574 406.763 649.812 407.524C649.092 408.244 648.225 408.815 647.209 409.238C646.236 409.661 645.178 409.873 644.036 409.873C642.935 409.873 641.877 409.661 640.862 409.238C639.888 408.815 639.021 408.244 638.259 407.524C637.54 406.763 636.947 405.895 636.482 404.922C636.059 403.906 635.847 402.827 635.847 401.685C635.847 400.584 636.059 399.548 636.482 398.574C636.947 397.559 637.54 396.691 638.259 395.972C639.021 395.21 639.888 394.618 640.862 394.194C641.877 393.729 642.935 393.496 644.036 393.496C645.178 393.496 646.236 393.729 647.209 394.194C648.225 394.618 649.092 395.21 649.812 395.972C650.574 396.691 651.166 397.559 651.589 398.574C652.012 399.548 652.224 400.584 652.224 401.685Z" fill="white"/>
</svg>
