<svg width="406" height="92" viewBox="0 0 406 92" fill="none" xmlns="http://www.w3.org/2000/svg">
<g clip-path="url(#clip0_1592_5603)">
<path d="M406 67.8755H0V91.8606H406V67.8755Z" fill="#C54B0E"/>
<path d="M4.01172 49.7936V0.410156H16.0461L25.6341 30.8911C25.2542 25.7552 24.9706 21.3284 24.7832 17.6107C24.5958 13.893 24.5046 10.7477 24.5097 8.17473V0.410156H34.8118V49.7936H22.7623L13.0907 18.4161C13.5162 22.5035 13.8429 26.4669 14.0708 30.3061C14.2987 34.1453 14.4101 37.8731 14.4051 41.4895V49.8467L4.01172 49.7936Z" fill="#C54B0E"/>
<path d="M40.1377 38.0178H49.4065C49.3869 39.5 49.776 40.9588 50.531 42.2344C50.8628 42.6801 51.3006 43.0359 51.8048 43.2694C52.3089 43.5029 52.8635 43.6068 53.418 43.5715C54.3516 43.6089 55.2625 43.2789 55.9555 42.6523C56.536 42.0787 56.8872 41.3129 56.9432 40.4988C56.9991 39.6847 56.756 38.8781 56.2595 38.2305C55.3745 37.4011 54.3443 36.7418 53.2205 36.2856L51.6174 35.5259C47.8694 33.7936 45.2584 32.1678 43.7845 30.6483C42.744 29.628 41.9242 28.4049 41.3761 27.0547C40.8233 25.6887 40.5421 24.2281 40.548 22.7545C40.4831 21.2351 40.7592 19.7204 41.3561 18.3216C41.9529 16.9228 42.8553 15.6754 43.9972 14.6708C46.2916 12.6448 49.3964 11.6318 53.3116 11.6318C57.3636 11.6318 60.4938 12.5993 62.7021 14.5341C64.9104 16.4689 66.007 19.2547 65.9918 22.8913V23.5675H56.8749C56.949 22.1909 56.6553 20.8195 56.024 19.594C55.7412 19.1899 55.3573 18.867 54.9107 18.6577C54.4641 18.4484 53.9704 18.3599 53.4789 18.4012C52.5654 18.3562 51.669 18.6604 50.9717 19.2521C50.6657 19.5359 50.4245 19.8823 50.2645 20.2678C50.1045 20.6533 50.0296 21.0687 50.0448 21.4858C50.0448 23.1116 51.5947 24.6083 54.6944 25.9758L55.6896 26.4241C59.929 28.3336 62.7629 30.1848 64.1912 31.9778C65.7024 34.0111 66.4622 36.5054 66.3413 39.0359C66.3413 42.7738 65.1865 45.6709 62.8769 47.7273C60.5673 49.7837 57.275 50.8119 53.0002 50.8119C48.9432 50.8119 45.775 49.7711 43.5261 47.697C41.2773 45.6229 40.1377 42.7131 40.1377 38.9675V38.0178Z" fill="#C54B0E"/>
<path d="M87.9104 49.6646C86.6492 49.8976 85.5476 50.0723 84.6055 50.1888C83.8073 50.3 83.0029 50.361 82.1971 50.3712C80.3985 50.4197 78.6105 50.0802 76.9548 49.3759C75.607 48.7988 74.486 47.7952 73.7639 46.5192C73.2676 45.5068 72.9465 44.4176 72.8143 43.2979C72.5972 41.3304 72.5059 39.351 72.5408 37.3719V20.3384H68.5293V12.6726H72.5408V2.40088H82.9721V12.6726H87.9104V20.3384H82.9721V35.4801C82.9721 38.7116 83.2076 40.7021 83.6787 41.4517C84.1421 42.2114 85.0538 42.5686 86.3985 42.5686C86.6315 42.5686 87.019 42.5382 87.5609 42.4774C87.6773 42.4685 87.7941 42.4685 87.9104 42.4774V49.6646Z" fill="#C54B0E"/>
<path d="M109.471 36.7639H119.188V37.6984C119.188 42.034 118.056 45.3009 115.792 47.4991C113.528 49.6973 110.147 50.7938 105.65 50.7888C103.556 50.8132 101.474 50.4871 99.4881 49.8239C97.8553 49.3111 96.3787 48.3937 95.1955 47.1572C93.9439 45.6622 93.0918 43.8743 92.7187 41.9606C92.2122 39.8029 91.959 36.3486 91.959 31.5976C91.959 26.3655 92.2122 22.7087 92.7187 20.627C93.133 18.7261 94.0187 16.96 95.2943 15.4911C96.5343 14.1907 98.073 13.2128 99.7768 12.642C101.805 11.9618 103.936 11.6354 106.075 11.6771C108.228 11.6293 110.372 11.9823 112.396 12.718C114.088 13.3513 115.582 14.4206 116.727 15.8177C117.698 17.0286 118.388 18.4404 118.748 19.9508C119.253 22.6576 119.459 25.4117 119.363 28.1636V32.6233H102.535C102.525 32.7624 102.525 32.902 102.535 33.0412C102.451 34.6062 102.405 35.6927 102.405 36.3157C102.405 38.9292 102.687 40.7373 103.241 41.7554C103.52 42.257 103.938 42.6674 104.445 42.9369C104.952 43.2065 105.526 43.3239 106.098 43.2749C106.603 43.31 107.109 43.2218 107.572 43.018C108.035 42.8142 108.442 42.5009 108.757 42.1049C109.435 41.0542 109.752 39.8115 109.661 38.5645C109.661 38.2378 109.661 37.7516 109.562 37.045C109.524 36.954 109.494 36.86 109.471 36.7639ZM102.763 26.2111H109.722V26.0135C109.813 25.079 109.851 24.4105 109.851 24.0306C109.954 22.6313 109.648 21.2321 108.97 20.0039C108.663 19.5693 108.25 19.2214 107.769 18.9938C107.289 18.7661 106.757 18.6666 106.227 18.7048C105.704 18.6579 105.178 18.7498 104.702 18.9712C104.225 19.1927 103.816 19.5358 103.515 19.966C102.975 20.8169 102.702 22.2452 102.702 24.1598C102.702 24.6916 102.702 25.1094 102.702 25.4057C102.702 25.702 102.74 26.0135 102.763 26.2111Z" fill="#C54B0E"/>
<path d="M125.897 62.2685V12.6723H135.425V16.8965C136.27 15.3427 137.502 14.0341 139.003 13.0978C140.441 12.2357 142.09 11.7912 143.767 11.8139C145.131 11.7957 146.486 12.0541 147.748 12.5736C148.898 13.0559 149.919 13.803 150.726 14.7541C151.739 16.1221 152.406 17.7146 152.671 19.3961C153.041 21.3259 153.228 24.9549 153.233 30.2832C153.233 38.7316 152.532 44.2727 151.129 46.9064C149.726 49.5402 147.208 50.8545 143.577 50.8495C142.124 50.8783 140.692 50.5078 139.436 49.7783C138.126 48.9465 137.018 47.833 136.192 46.519V62.2685H125.897ZM139.368 42.0289C140.72 42.0289 141.647 41.2691 142.148 39.7496C142.65 38.2301 142.908 34.6442 142.908 29.0601C142.908 25.702 142.655 23.405 142.148 22.1691C141.99 21.6227 141.655 21.1441 141.196 20.8075C140.737 20.4709 140.18 20.2952 139.611 20.3078C138.964 20.2939 138.332 20.4987 137.816 20.8889C137.301 21.2791 136.932 21.8319 136.769 22.4578C136.263 23.8861 136.01 27.6596 136.01 33.778C136.01 36.9234 136.263 39.0887 136.769 40.2739C136.959 40.8054 137.313 41.2624 137.78 41.5781C138.248 41.8939 138.804 42.0518 139.368 42.0289Z" fill="#C54B0E"/>
<path d="M157.047 38.0178H166.323C166.299 39.5005 166.689 40.9604 167.447 42.2344C167.779 42.6806 168.217 43.0368 168.721 43.2704C169.225 43.504 169.78 43.6075 170.334 43.5715C171.266 43.6077 172.174 43.2777 172.864 42.6523C173.445 42.0787 173.796 41.3129 173.852 40.4988C173.908 39.6847 173.665 38.8781 173.168 38.2305C172.284 37.3997 171.254 36.7403 170.129 36.2856L168.526 35.5259C164.783 33.7936 162.175 32.1678 160.701 30.6483C159.655 29.6326 158.834 28.4082 158.293 27.0547C157.734 25.6902 157.45 24.2289 157.457 22.7545C157.392 21.2351 157.668 19.7204 158.265 18.3216C158.862 16.9228 159.764 15.6754 160.906 14.6708C163.205 12.6448 166.313 11.6318 170.228 11.6318C174.28 11.6318 177.408 12.5993 179.611 14.5341C181.814 16.4689 182.911 19.2547 182.901 22.8913V23.5675H173.784C173.738 21.7036 173.455 20.3791 172.933 19.594C172.648 19.1904 172.262 18.8681 171.815 18.6589C171.367 18.4497 170.873 18.3609 170.38 18.4012C169.469 18.355 168.574 18.6595 167.88 19.2521C167.572 19.5346 167.329 19.8806 167.168 20.2662C167.006 20.6519 166.931 21.068 166.946 21.4858C166.946 23.1116 168.496 24.6083 171.596 25.9758L172.591 26.4241C176.83 28.3336 179.664 30.1848 181.092 31.9778C182.604 34.0111 183.363 36.5054 183.243 39.0359C183.243 42.7738 182.088 45.6709 179.778 47.7273C177.468 49.7837 174.176 50.8119 169.901 50.8119C165.849 50.8119 162.689 49.7736 160.42 47.697C158.151 45.6203 157.021 42.7105 157.031 38.9675L157.047 38.0178Z" fill="#C54B0E"/>
<path d="M187.141 31.2482C187.141 24.0154 188.179 18.9505 190.256 16.0533C192.332 13.1562 195.893 11.7025 200.938 11.6924C206.003 11.6924 209.563 13.1359 211.62 16.0229C213.676 18.9099 214.714 23.9901 214.735 31.2634C214.735 38.4911 213.696 43.5561 211.62 46.4583C209.543 49.3605 205.982 50.8116 200.938 50.8116C195.873 50.8116 192.307 49.3731 190.24 46.4962C188.174 43.6193 187.141 38.5367 187.141 31.2482ZM197.663 31.2482C197.663 36.4651 197.894 39.732 198.354 41.0489C198.508 41.6111 198.841 42.108 199.301 42.465C199.762 42.822 200.326 43.0197 200.909 43.0282C201.492 43.0368 202.062 42.8559 202.533 42.5126C203.004 42.1693 203.35 41.6823 203.521 41.1249C203.982 39.8637 204.212 36.5715 204.212 31.2482C204.212 25.9249 203.982 22.6327 203.521 21.3715C203.35 20.8143 203.002 20.3277 202.531 19.9851C202.059 19.6425 201.489 19.4624 200.906 19.4718C200.323 19.4812 199.759 19.6797 199.299 20.0374C198.839 20.3951 198.507 20.8926 198.354 21.4551C197.899 22.7618 197.668 26.0262 197.663 31.2482Z" fill="#C54B0E"/>
<path d="M231.099 49.7936H220.797V0.410156H231.099V49.7936Z" fill="#C54B0E"/>
<path d="M264.946 12.6727V49.7939H255.244V45.395C254.28 46.9855 252.948 48.3219 251.362 49.2925C249.813 50.1492 248.063 50.5767 246.294 50.5308C243.432 50.5308 241.325 49.5685 239.973 47.6438C238.621 45.7191 237.947 42.6801 237.952 38.5268V12.6348H248.346V35.5714C248.346 38.542 248.543 40.3882 248.923 41.11C249.126 41.4681 249.429 41.7598 249.794 41.9499C250.159 42.1399 250.572 42.2203 250.982 42.1813C251.544 42.181 252.096 42.0245 252.575 41.7294C253.053 41.4343 253.441 41.0121 253.694 40.5098C254.418 39.0602 254.753 37.4477 254.667 35.8298V12.6348L264.946 12.6727Z" fill="#C54B0E"/>
<path d="M288.817 49.6646C287.555 49.8976 286.454 50.0723 285.512 50.1888C284.713 50.2997 283.909 50.3607 283.103 50.3712C281.305 50.4197 279.517 50.0802 277.861 49.3759C276.511 48.7988 275.388 47.7954 274.663 46.5192C274.169 45.5064 273.85 44.4172 273.72 43.2979C273.503 41.3304 273.412 39.351 273.447 37.3719V20.3384H269.436V12.6726H273.477V2.40088H283.901V12.6726H288.847V20.3384H283.901V35.4801C283.901 38.7116 284.137 40.7021 284.608 41.4517C285.079 42.2114 285.99 42.5686 287.335 42.5686C287.721 42.5575 288.107 42.5271 288.49 42.4774C288.609 42.4686 288.728 42.4686 288.847 42.4774L288.817 49.6646Z" fill="#C54B0E"/>
<path d="M293.823 8.98014V0H304.118V8.98014H293.823ZM293.823 49.7937V12.6725H304.118V49.7937H293.823Z" fill="#C54B0E"/>
<path d="M310.181 31.2482C310.181 24.0154 311.219 18.9505 313.296 16.0533C315.372 13.1562 318.933 11.7025 323.978 11.6924C329.043 11.6924 332.603 13.1359 334.66 16.0229C336.716 18.9099 337.754 23.9901 337.775 31.2634C337.775 38.4911 336.736 43.5561 334.66 46.4583C332.583 49.3605 329.022 50.8116 323.978 50.8116C318.913 50.8116 315.347 49.3731 313.28 46.4962C311.214 43.6193 310.181 38.5367 310.181 31.2482ZM320.703 31.2482C320.703 36.4651 320.933 39.732 321.394 41.0489C321.548 41.6111 321.881 42.108 322.341 42.465C322.802 42.822 323.366 43.0197 323.949 43.0282C324.532 43.0368 325.102 42.8559 325.573 42.5126C326.044 42.1693 326.39 41.6823 326.561 41.1249C327.017 39.8637 327.247 36.5715 327.252 31.2482C327.257 25.9249 327.027 22.6327 326.561 21.3715C326.39 20.8143 326.042 20.3277 325.571 19.9851C325.099 19.6425 324.529 19.4624 323.946 19.4718C323.363 19.4812 322.799 19.6797 322.339 20.0374C321.879 20.3951 321.547 20.8926 321.394 21.4551C320.933 22.7618 320.703 26.0262 320.703 31.2482Z" fill="#C54B0E"/>
<path d="M343.898 49.7938V12.6726H353.623V17.064C354.588 15.4779 355.919 14.1465 357.505 13.1817C359.066 12.3253 360.824 11.8955 362.603 11.9357C365.475 11.9357 367.565 12.893 368.894 14.8075C370.224 16.7221 370.885 19.7535 370.885 23.9245V49.8165H360.582V26.8723C360.582 23.9017 360.393 22.0479 360.005 21.3261C359.808 20.9624 359.509 20.6648 359.144 20.4702C358.779 20.2756 358.365 20.1928 357.954 20.2321C357.39 20.2338 356.837 20.3925 356.358 20.6904C355.879 20.9883 355.492 21.4136 355.241 21.9187C354.514 23.3726 354.176 24.9905 354.261 26.614V49.8165L343.898 49.7938Z" fill="#C54B0E"/>
<path d="M375.564 38.0178H384.841C384.817 39.5005 385.207 40.9604 385.965 42.2344C386.297 42.6806 386.734 43.0368 387.239 43.2704C387.743 43.504 388.298 43.6075 388.852 43.5715C389.783 43.6077 390.692 43.2777 391.382 42.6523C391.709 42.3556 391.968 41.9912 392.14 41.5844C392.312 41.1777 392.393 40.7384 392.378 40.2971C392.411 39.5465 392.164 38.8102 391.686 38.2305C390.802 37.3997 389.772 36.7403 388.647 36.2856L387.044 35.5259C383.296 33.7936 380.688 32.1678 379.219 30.6483C378.175 29.6306 377.355 28.4067 376.81 27.0547C376.255 25.6892 375.971 24.2286 375.975 22.7545C375.91 21.2351 376.186 19.7204 376.783 18.3216C377.38 16.9228 378.282 15.6754 379.424 14.6708C381.728 12.6448 384.836 11.6318 388.746 11.6318C392.798 11.6318 395.926 12.5993 398.129 14.5341C400.332 16.4689 401.429 19.2547 401.419 22.8913V23.5675H392.34C392.294 21.7036 392.01 20.3791 391.489 19.594C391.204 19.1904 390.818 18.8681 390.371 18.6589C389.923 18.4497 389.428 18.3609 388.936 18.4012C388.025 18.355 387.13 18.6595 386.436 19.2521C386.128 19.5346 385.885 19.8806 385.724 20.2662C385.562 20.6519 385.487 21.068 385.502 21.4858C385.502 23.1116 387.054 24.6083 390.159 25.9758L391.154 26.4241C395.389 28.3336 398.223 30.1848 399.656 31.9778C401.164 34.0128 401.923 36.5058 401.806 39.0359C401.806 42.7738 400.649 45.6709 398.334 47.7273C396.019 49.7837 392.727 50.8119 388.457 50.8119C384.405 50.8119 381.245 49.7736 378.976 47.697C376.707 45.6203 375.577 42.7105 375.587 38.9675L375.564 38.0178Z" fill="#C54B0E"/>
<path d="M33.2312 72.6924C32.7509 72.6758 32.2775 72.8114 31.8789 73.0799C31.4078 73.4142 31.1723 73.6725 31.1723 73.8396L27.3128 87.3479L24.2738 76.7571L21.2348 87.3936L17.3526 73.8853C17.3526 73.7485 17.1475 73.513 16.7296 73.1255C16.5307 72.9842 16.3099 72.8764 16.0762 72.8064C15.8325 72.7148 15.5763 72.661 15.3164 72.6469V72.4265H19.9281V72.6469C19.7526 72.6312 19.5761 72.6607 19.4152 72.7325C19.2543 72.8043 19.1144 72.9161 19.0088 73.0572C18.9377 73.1842 18.9084 73.3304 18.9252 73.475C18.9324 73.6009 18.9528 73.7256 18.986 73.8472L21.6299 83.4961L23.8559 75.534L23.3698 73.8396C23.3698 73.6573 23.1874 73.4066 22.8227 73.0799C22.5579 72.8201 22.212 72.6592 21.8427 72.6241V72.4038H26.2796V72.6241C26.0648 72.5929 25.8456 72.614 25.6407 72.6854C25.4357 72.7568 25.2509 72.8765 25.1019 73.0344C25.0308 73.1614 25.0015 73.3076 25.0184 73.4522C25.0255 73.578 25.046 73.7029 25.0792 73.8245L27.7231 83.4885L30.4201 73.8169C30.4514 73.5644 30.3863 73.3093 30.2378 73.1027C30.0481 72.9494 29.828 72.8381 29.592 72.7761C29.3773 72.6948 29.1523 72.6436 28.9235 72.6241V72.4038H33.216L33.2312 72.6924Z" fill="white"/>
<path d="M42.3027 81.513H36.0804C36.0373 81.8633 36.017 82.216 36.0195 82.569C36.0195 84.985 36.8629 86.2791 38.5496 86.4514C39.3618 86.5528 40.1811 86.3288 40.8288 85.8283C41.131 85.5805 41.388 85.2824 41.5885 84.947L41.9532 85.3345C41.6375 86.0297 41.1168 86.612 40.461 87.0031C39.8051 87.3942 39.0454 87.5754 38.2837 87.5225C37.6355 87.5174 37.0029 87.3236 36.4632 86.9647C35.9235 86.6058 35.5001 86.0974 35.2447 85.5017C34.673 84.3216 34.4289 83.0096 34.5381 81.703C34.5707 80.5203 35.045 79.3927 35.8676 78.5424C36.2414 78.1459 36.6941 77.8321 37.1966 77.6215C37.6991 77.4108 38.2403 77.3078 38.785 77.3192C39.4446 77.3095 40.091 77.5044 40.6352 77.8772C41.1795 78.25 41.5948 78.7824 41.824 79.4009C42.1312 80.0631 42.2943 80.783 42.3027 81.513ZM41.0415 80.8672C41.0148 80.3425 40.8911 79.8273 40.6768 79.3477C40.5504 78.9224 40.2942 78.5474 39.9441 78.2749C39.594 78.0025 39.1675 77.8462 38.7243 77.8282C38.2566 77.8326 37.8017 77.9808 37.4212 78.2527C37.0406 78.5245 36.7528 78.9067 36.597 79.3477C36.3311 79.8302 36.1706 80.3637 36.1259 80.9128L41.0415 80.8672Z" fill="white"/>
<path d="M56.0155 84.6889C56.0098 85.0692 55.9212 85.4437 55.7558 85.7862C55.5905 86.1286 55.3525 86.4309 55.0582 86.6719C54.4603 87.2402 53.6646 87.5535 52.8397 87.5456C52.6377 87.5458 52.4364 87.5229 52.2396 87.4772C51.7608 87.39 51.3023 87.2148 50.8872 86.9606C50.482 86.7326 50.2288 86.6339 50.1275 86.6642C49.8236 86.7326 49.5957 87.0062 49.4437 87.4772L49.3525 84.3015C49.3525 84.6889 49.7552 85.2587 50.5529 85.9957C51.0795 86.5993 51.8042 86.9954 52.5967 87.1126C53.2778 87.1062 53.9346 86.8585 54.4504 86.4136C54.7206 86.2173 54.9379 85.9569 55.0824 85.6559C55.227 85.3548 55.2944 85.0225 55.2786 84.6889C55.2786 83.9292 54.7316 83.3898 53.7591 82.9719C52.7866 82.554 51.928 82.2122 51.0163 81.8779C50.5684 81.6464 50.2002 81.2859 49.9592 80.8431C49.7181 80.4003 49.6154 79.8954 49.6641 79.3935C49.6721 79.0454 49.7765 78.7063 49.9656 78.414C50.1547 78.1216 50.4211 77.8874 50.7352 77.7372C51.4073 77.3851 52.1693 77.2422 52.9233 77.327C53.3486 77.3746 53.7584 77.5146 54.1238 77.7372C54.3305 77.8857 54.5659 77.9892 54.8151 78.0412C55.0334 77.9804 55.2274 77.8529 55.3698 77.6765L55.5445 79.8646C55.2735 79.5229 54.979 79.2004 54.6631 78.8997C54.1886 78.3739 53.5907 77.9744 52.9233 77.7372C52.7338 77.6949 52.5401 77.6745 52.3459 77.6765C51.7893 77.6479 51.2437 77.8388 50.8264 78.2083C50.6485 78.3469 50.5085 78.5283 50.4195 78.7355C50.3305 78.9427 50.2954 79.1691 50.3174 79.3935C50.4086 80.0469 50.948 80.5332 51.9509 80.8523C52.8619 81.0917 53.7514 81.4068 54.61 81.7943C55.0832 82.1056 55.4636 82.5388 55.7109 83.0483C55.9583 83.5578 56.0636 84.1246 56.0155 84.6889Z" fill="white"/>
<path d="M62.5571 85.6538C62.5664 85.6963 62.5664 85.7404 62.5571 85.783C62.5395 86.1664 62.4042 86.5352 62.1696 86.839C62.0334 87.0459 61.8487 87.2164 61.6315 87.3356C61.4144 87.4547 61.1713 87.5189 60.9236 87.5227C60.6074 87.529 60.2949 87.4532 60.0166 87.3027C59.7383 87.1523 59.5038 86.9323 59.3358 86.6642C58.9437 86.0597 58.7498 85.348 58.7812 84.6281V77.9728H57.2617V77.327H58.7812V75.2073L60.0651 74.5615V77.327H62.4279V77.9728H60.0651V84.6281C60.048 85.0751 60.0915 85.5224 60.1943 85.9577C60.2435 86.1456 60.3387 86.3183 60.4713 86.4603C60.604 86.6022 60.7699 86.7088 60.9541 86.7706C61.0496 86.8141 61.153 86.8375 61.258 86.839C61.7518 86.839 62.1848 86.4439 62.5571 85.6538Z" fill="white"/>
<path d="M72.4268 85.3728C72.5275 85.5512 72.5798 85.7529 72.5787 85.9578C72.5739 86.3551 72.4224 86.7367 72.1533 87.0291C72.0319 87.181 71.8783 87.3041 71.7036 87.3895C71.5288 87.4749 71.3373 87.5204 71.1429 87.5228C70.9787 87.54 70.8127 87.5223 70.6559 87.4707C70.499 87.4192 70.3549 87.335 70.2329 87.2237C70.1109 87.1125 70.0138 86.9767 69.9481 86.8253C69.8823 86.6739 69.8493 86.5104 69.8512 86.3453C69.5028 86.7359 69.0719 87.0441 68.5897 87.2478C68.1075 87.4514 67.586 87.5454 67.063 87.5228C66.6544 87.5769 66.2388 87.5218 65.8584 87.3629C65.4781 87.2041 65.1465 86.9474 64.8977 86.6188C64.4729 86.0179 64.2544 85.2955 64.2747 84.5599C64.2906 84.1178 64.4349 83.6897 64.6899 83.3282C64.9448 82.9666 65.2995 82.6872 65.7107 82.5237C66.5711 82.1099 67.4692 81.7791 68.3926 81.536C69.3651 81.2321 69.8512 80.9814 69.8512 80.7763V79.8115C69.8779 79.2881 69.6978 78.7751 69.3498 78.3832C69.1811 78.2083 68.9795 78.0685 68.7565 77.972C68.5335 77.8755 68.2936 77.8241 68.0507 77.8209C67.5571 77.7918 67.0695 77.94 66.6756 78.2388C66.486 78.3549 66.3284 78.5164 66.217 78.7088C66.1055 78.9011 66.0437 79.1182 66.0373 79.3404V79.6216C66.1361 80.0242 65.9765 80.2217 65.5587 80.2217C65.463 80.2329 65.3663 80.2141 65.2819 80.1678C65.1975 80.1215 65.1296 80.0501 65.0876 79.9634C65.0057 79.8033 64.9616 79.6266 64.9585 79.4467C64.9804 79.1507 65.0741 78.8645 65.2317 78.613C65.3892 78.3614 65.6058 78.1521 65.8626 78.0033C66.4999 77.5515 67.2704 77.3267 68.0507 77.365C70.1121 77.3954 71.1429 78.211 71.1429 79.8115V85.388C71.1429 86.1933 71.3556 86.5883 71.7886 86.5731C71.8883 86.5611 71.9847 86.5293 72.072 86.4798C72.1594 86.4302 72.2361 86.3638 72.2976 86.2844C72.4344 86.1255 72.5122 85.9243 72.518 85.7146C72.5246 85.5939 72.4927 85.4742 72.4268 85.3728ZM69.8512 84.613V81.4753C66.9338 82.235 65.5055 83.3063 65.5587 84.6054C65.6118 85.9046 66.1209 86.6796 67.0782 86.7099C67.7589 86.7333 68.4279 86.5273 68.9775 86.1249C69.2451 85.9652 69.4674 85.7396 69.623 85.4696C69.7786 85.1996 69.8624 84.8942 69.8665 84.5826L69.8512 84.613Z" fill="white"/>
<path d="M82.9416 78.079H82.2958L76.7041 90.5919C76.4306 91.1997 76.0963 91.4656 75.6937 91.3517C75.291 91.2377 75.0099 91.0098 75.0099 90.5919C75.0114 90.4172 75.0671 90.2473 75.1694 90.1057C75.2142 90.0356 75.276 89.9779 75.349 89.9381C75.4221 89.8983 75.5041 89.8775 75.5873 89.8778C75.4581 89.8778 75.6404 89.931 76.1267 90.0297C76.309 90.0297 76.4609 89.9461 76.5749 89.703L78.0336 86.4741L74.3413 77.9878H73.7031V77.6763H76.7421V78.1018H75.6937L78.6794 85.2281L81.8552 78.1018H80.6016V77.6763H82.9644L82.9416 78.079Z" fill="white"/>
<path d="M104.101 78.079H103.5L99.8991 87.3934L97.0501 80.0391L94.2314 87.4238L90.6226 78.079H90.0225V77.6763H92.7879V78.1018H91.7926L94.5505 85.4789L96.7614 79.5452L96.3056 78.1018H95.3255V77.6763H98.4556V78.1018H97.4679L100.188 85.4789L103.06 78.1018H101.912V77.6763H104.101V78.079Z" fill="white"/>
<path d="M114.828 87.0895H111.394V86.8768C111.559 86.8709 111.721 86.83 111.869 86.7567C112.017 86.6833 112.148 86.5792 112.252 86.4514C112.415 86.2331 112.49 85.9624 112.465 85.6916V80.4341C112.494 79.7614 112.269 79.1023 111.834 78.5879C111.632 78.3582 111.381 78.1758 111.1 78.0537C110.819 77.9316 110.515 77.8728 110.209 77.8814C109.638 77.8401 109.072 77.9986 108.606 78.3296C108.365 78.5952 108.184 78.9083 108.073 79.2486C107.961 79.5889 107.923 79.9488 107.96 80.305V85.6916C107.952 85.9606 108.026 86.2257 108.173 86.4514C108.268 86.5893 108.397 86.7007 108.547 86.7751C108.697 86.8496 108.864 86.8845 109.031 86.8768V87.0895H105.574V86.8768C105.74 86.8719 105.902 86.8314 106.05 86.758C106.198 86.6845 106.329 86.58 106.433 86.4514C106.595 86.2331 106.671 85.9624 106.645 85.6916V73.7788H105.126L107.914 72.4492V78.6943C108.146 78.2885 108.476 77.9478 108.875 77.7034C109.273 77.4591 109.727 77.3191 110.193 77.2964C111.067 77.2123 111.94 77.4591 112.64 77.9878C113.002 78.2753 113.29 78.6453 113.481 79.0668C113.671 79.4884 113.758 79.9494 113.734 80.4113V85.6688C113.729 85.9385 113.805 86.2035 113.954 86.4285C114.049 86.5665 114.178 86.6779 114.328 86.7523C114.479 86.8267 114.645 86.8617 114.813 86.8539L114.828 87.0895Z" fill="white"/>
<path d="M123.899 81.5128H117.677C117.634 81.8632 117.614 82.2158 117.616 82.5688C117.616 84.9848 118.46 86.279 120.146 86.4512C120.958 86.5526 121.778 86.3286 122.425 85.8281C122.73 85.5823 122.987 85.2838 123.185 84.9468L123.55 85.3343C123.234 86.0296 122.714 86.6118 122.058 87.0029C121.402 87.394 120.642 87.5752 119.88 87.5223C119.232 87.5172 118.6 87.3234 118.06 86.9645C117.52 86.6056 117.097 86.0972 116.841 85.5015C116.27 84.3214 116.026 83.0094 116.135 81.7028C116.167 80.5201 116.642 79.3925 117.464 78.5422C117.839 78.1468 118.292 77.8338 118.794 77.6232C119.296 77.4126 119.837 77.309 120.382 77.319C121.041 77.3115 121.686 77.5073 122.23 77.8798C122.774 78.2523 123.19 78.7834 123.421 79.4007C123.725 80.064 123.888 80.7832 123.899 81.5128ZM122.638 80.867C122.611 80.3423 122.488 79.8271 122.273 79.3475C122.147 78.9222 121.891 78.5472 121.541 78.2747C121.191 78.0023 120.764 77.846 120.321 77.828C119.853 77.8324 119.398 77.9806 119.018 78.2525C118.637 78.5243 118.35 78.9066 118.194 79.3475C117.928 79.83 117.767 80.3635 117.723 80.9126L122.638 80.867Z" fill="white"/>
<path d="M131.967 78.3827C131.967 78.755 131.679 78.9601 131.208 79.0057C130.945 79.0577 130.673 79.006 130.448 78.8614C130.255 78.6658 130.126 78.417 130.076 78.1472C130.03 77.9876 129.886 77.9117 129.643 77.9117C129.185 77.9305 128.753 78.1299 128.442 78.4663C128.215 78.6889 128.036 78.9566 127.918 79.2524C127.801 79.5481 127.746 79.8652 127.758 80.1833V85.6991C127.75 85.9681 127.824 86.2331 127.971 86.4588C128.066 86.5967 128.195 86.7081 128.345 86.7826C128.495 86.857 128.662 86.892 128.83 86.8842V87.097H125.395V86.8842C125.561 86.8794 125.723 86.8388 125.871 86.7654C126.02 86.692 126.15 86.5874 126.254 86.4588C126.416 86.2405 126.492 85.9699 126.467 85.6991V78.6182H124.947L127.736 77.3267V78.8461C127.819 78.5498 128.176 78.2155 128.807 77.8584C129.387 77.5042 130.057 77.3248 130.737 77.3419C131.618 77.3875 132.028 77.7369 131.967 78.3827Z" fill="white"/>
<path d="M141.047 81.513H134.825C134.775 81.8628 134.752 82.2157 134.756 82.569C134.756 84.985 135.602 86.2791 137.294 86.4514C137.696 86.5028 138.104 86.4742 138.496 86.3673C138.887 86.2604 139.253 86.0772 139.573 85.8283C139.875 85.58 140.132 85.2819 140.333 84.947L140.697 85.3345C140.382 86.0297 139.861 86.612 139.205 87.0031C138.549 87.3942 137.79 87.5754 137.028 87.5225C136.38 87.5184 135.747 87.3249 135.207 86.9659C134.667 86.6069 134.244 86.098 133.989 85.5017C133.41 84.324 133.166 83.01 133.282 81.703C133.311 80.5195 133.786 79.3906 134.612 78.5424C134.986 78.1459 135.438 77.8321 135.941 77.6215C136.444 77.4108 136.985 77.3078 137.529 77.3192C138.188 77.3117 138.834 77.5075 139.378 77.88C139.921 78.2525 140.337 78.7836 140.568 79.4009C140.871 80.0647 141.034 80.7836 141.047 81.513ZM139.778 80.8672C139.752 80.3425 139.628 79.8273 139.414 79.3477C139.289 78.9213 139.034 78.5449 138.683 78.2721C138.332 77.9993 137.905 77.844 137.461 77.8282C136.993 77.8326 136.538 77.9808 136.158 78.2527C135.777 78.5245 135.49 78.9067 135.334 79.3477C135.068 79.8302 134.907 80.3637 134.863 80.9128L139.778 80.8672Z" fill="white"/>
<path d="M155.892 81.513H149.639C149.592 81.8629 149.572 82.2159 149.578 82.5689C149.578 84.9849 150.422 86.2791 152.108 86.4513C152.511 86.5049 152.92 86.4773 153.311 86.3703C153.703 86.2633 154.069 86.079 154.388 85.8283C154.691 85.5819 154.948 85.2834 155.147 84.9469L155.512 85.3344C155.206 86.0227 154.699 86.6026 154.058 86.9984C153.417 87.3942 152.671 87.5874 151.918 87.5529C151.27 87.5487 150.637 87.3553 150.097 86.9963C149.557 86.6372 149.134 86.1282 148.879 85.5319C148.308 84.3519 148.064 83.0399 148.173 81.7332C148.205 80.5506 148.68 79.4231 149.502 78.5728C149.876 78.1763 150.329 77.8625 150.831 77.6518C151.334 77.4411 151.875 77.3381 152.42 77.3495C153.079 77.3409 153.725 77.5364 154.269 77.909C154.813 78.2816 155.229 78.8133 155.459 79.4313C155.742 80.0889 155.889 80.797 155.892 81.513ZM154.623 80.8671C154.596 80.3424 154.473 79.8273 154.258 79.3476C154.134 78.9212 153.879 78.5449 153.528 78.2721C153.177 77.9993 152.75 77.8439 152.306 77.8281C151.84 77.8341 151.386 77.983 151.007 78.2547C150.628 78.5265 150.342 78.9079 150.186 79.3476C149.917 79.8289 149.757 80.363 149.715 80.9127L154.623 80.8671Z" fill="white"/>
<path d="M166.354 78.079H165.708L161.743 87.4162L157.769 78.079H157.131V77.6763H160.132V78.1018H159.03L162.145 85.5472L165.291 78.1018H163.991V77.6763H166.354V78.079Z" fill="white"/>
<path d="M175.471 81.513H169.249C169.199 81.8628 169.176 82.2157 169.18 82.569C169.18 84.985 170.023 86.2791 171.71 86.4514C172.522 86.5528 173.342 86.3288 173.989 85.8283C174.293 85.5825 174.551 85.2839 174.749 84.947L175.114 85.3345C174.799 86.0291 174.28 86.6111 173.625 87.0022C172.971 87.3933 172.212 87.5748 171.452 87.5225C170.803 87.5184 170.17 87.3249 169.631 86.9659C169.091 86.6069 168.667 86.098 168.413 85.5017C167.835 84.3235 167.588 83.0105 167.699 81.703C167.733 80.5193 168.21 79.3915 169.036 78.5424C169.41 78.1459 169.862 77.8321 170.365 77.6215C170.867 77.4108 171.408 77.3078 171.953 77.3192C172.612 77.3117 173.258 77.5075 173.801 77.88C174.345 78.2525 174.761 78.7836 174.992 79.4009C175.295 80.0647 175.458 80.7836 175.471 81.513ZM174.202 80.8672C174.175 80.3425 174.052 79.8273 173.837 79.3477C173.713 78.9213 173.457 78.5449 173.107 78.2721C172.756 77.9993 172.329 77.844 171.885 77.8282C171.417 77.8326 170.962 77.9808 170.582 78.2527C170.201 78.5245 169.913 78.9067 169.757 79.3477C169.492 79.8302 169.331 80.3637 169.286 80.9128L174.202 80.8672Z" fill="white"/>
<path d="M186.593 87.0897H183.159V86.8769C183.325 86.8731 183.487 86.833 183.636 86.7595C183.784 86.686 183.914 86.5809 184.018 86.4515C184.183 86.2346 184.262 85.9636 184.238 85.6918V80.4343C184.252 80.0929 184.196 79.7523 184.073 79.4334C183.95 79.1146 183.763 78.8243 183.524 78.5805C183.3 78.3385 183.029 78.146 182.727 78.0151C182.424 77.8843 182.098 77.8181 181.769 77.8207C180.118 77.8207 179.295 78.6286 179.3 80.2444V85.6537C179.292 85.9227 179.366 86.1878 179.512 86.4135C179.608 86.5504 179.738 86.6611 179.887 86.7354C180.037 86.8097 180.204 86.8453 180.371 86.839V87.0517H176.937V86.839C177.102 86.8352 177.265 86.795 177.413 86.7215C177.562 86.648 177.692 86.5429 177.795 86.4135C177.961 86.1966 178.039 85.9256 178.016 85.6537V78.573H176.496L179.284 77.2813V78.6793C179.563 78.2744 179.93 77.9383 180.358 77.6961C180.786 77.4539 181.263 77.3121 181.754 77.2813C182.675 77.1873 183.599 77.4332 184.352 77.9727C184.729 78.2507 185.031 78.6173 185.233 79.04C185.434 79.4627 185.528 79.9285 185.507 80.3963V85.6537C185.502 85.9223 185.576 86.1863 185.719 86.4135C185.816 86.5504 185.945 86.6611 186.095 86.7354C186.245 86.8097 186.411 86.8453 186.578 86.839L186.593 87.0897Z" fill="white"/>
<path d="M203.581 85.8283L200.793 87.5225V85.4408C200.622 86.026 200.27 86.5424 199.789 86.9162C199.307 87.29 198.72 87.5022 198.111 87.5225C197.674 87.5753 197.231 87.5229 196.819 87.3696C196.406 87.2163 196.036 86.9666 195.74 86.6413C195.084 85.9158 194.742 84.9594 194.791 83.9822V79.0438C194.781 78.8154 194.701 78.5953 194.563 78.4132C194.279 78.1174 193.905 77.9249 193.499 77.8662V77.6763H196.075V84.0049C196.039 84.7128 196.219 85.4149 196.591 86.0183C196.738 86.2911 196.958 86.5179 197.227 86.6735C197.495 86.829 197.801 86.9073 198.111 86.8996C198.462 86.9085 198.812 86.8457 199.138 86.7151C199.465 86.5845 199.762 86.3888 200.01 86.1398C200.263 85.8786 200.461 85.569 200.591 85.2296C200.722 84.8902 200.782 84.5279 200.77 84.1645V79.097C200.77 78.8668 200.696 78.6427 200.557 78.4588C200.396 78.2779 200.188 78.144 199.957 78.0714C199.806 78.0041 199.648 77.9531 199.486 77.9193V77.6763H202.061V85.8283H203.581Z" fill="white"/>
<path d="M214.491 87.0897H211.057V86.8769C211.222 86.8711 211.384 86.8302 211.532 86.7568C211.68 86.6835 211.811 86.5794 211.916 86.4515C212.078 86.2332 212.154 85.9626 212.128 85.6918V80.4343C212.142 80.0936 212.086 79.7538 211.965 79.4353C211.843 79.1167 211.658 78.8259 211.422 78.5805C211.197 78.3387 210.924 78.1464 210.62 78.0156C210.317 77.8848 209.99 77.8184 209.659 77.8207C208.018 77.8207 207.19 78.6261 207.19 80.2444V85.6537C207.185 85.9235 207.262 86.1885 207.41 86.4135C207.506 86.5514 207.635 86.6628 207.785 86.7373C207.935 86.8117 208.102 86.8468 208.269 86.839V87.0517H204.835V86.839C205 86.8332 205.162 86.7922 205.31 86.7188C205.458 86.6454 205.589 86.5413 205.693 86.4135C205.856 86.1952 205.932 85.9246 205.906 85.6537V78.573H204.387L207.175 77.2813V78.6793C207.454 78.2748 207.821 77.939 208.249 77.6968C208.677 77.4547 209.154 77.3126 209.644 77.2813C210.566 77.1873 211.49 77.4332 212.242 77.9727C212.62 78.2498 212.924 78.6161 213.125 79.0391C213.327 79.462 213.42 79.9283 213.397 80.3963V85.6537C213.392 85.9235 213.469 86.1885 213.618 86.4135C213.713 86.5514 213.842 86.6628 213.992 86.7373C214.142 86.8117 214.309 86.8468 214.476 86.839L214.491 87.0897Z" fill="white"/>
<path d="M223.335 81.513H217.113C217.066 81.863 217.045 82.2159 217.052 82.569C217.052 84.985 217.895 86.2791 219.582 86.4514C219.984 86.505 220.393 86.4774 220.784 86.3704C221.176 86.2634 221.542 86.0791 221.861 85.8283C222.165 85.5819 222.422 85.2835 222.621 84.947L222.985 85.3345C222.67 86.0297 222.149 86.612 221.493 87.0031C220.837 87.3942 220.078 87.5754 219.316 87.5225C218.667 87.5184 218.035 87.3249 217.495 86.9659C216.955 86.6069 216.531 86.098 216.277 85.5017C215.705 84.3216 215.461 83.0096 215.57 81.703C215.603 80.5203 216.077 79.3927 216.9 78.5424C217.274 78.1459 217.726 77.8321 218.229 77.6215C218.731 77.4108 219.272 77.3078 219.817 77.3192C220.477 77.3106 221.123 77.506 221.667 77.8786C222.211 78.2513 222.626 78.783 222.856 79.4009C223.159 80.0647 223.322 80.7836 223.335 81.513ZM222.066 80.8672C222.039 80.3425 221.916 79.8273 221.701 79.3477C221.577 78.9213 221.322 78.5449 220.971 78.2721C220.62 77.9993 220.193 77.844 219.749 77.8282C219.283 77.8342 218.829 77.9831 218.45 78.2548C218.071 78.5265 217.785 78.908 217.629 79.3477C217.36 79.829 217.2 80.3631 217.158 80.9128L222.066 80.8672Z" fill="white"/>
<path d="M232.984 87.0895H230.408V86.664H231.054L228.539 82.8653L225.743 86.664H226.974V87.0895H224.619V86.664H225.257L228.296 82.531L225.257 78.079H224.611V77.6763H227.187V78.1018H226.541L228.987 81.6421L231.692 78.1018H230.613V77.6763H232.976V78.1018H232.118L229.2 81.9612L232.33 86.6792H232.976L232.984 87.0895Z" fill="white"/>
<path d="M243.498 82.2348C243.58 83.6213 243.204 84.9964 242.427 86.1475C242.094 86.6 241.655 86.9645 241.15 87.2094C240.644 87.4543 240.086 87.5723 239.524 87.553C238.949 87.5745 238.382 87.418 237.899 87.1048C237.478 86.7763 237.121 86.3748 236.843 85.9196V90.0374C236.836 90.3073 236.913 90.5727 237.063 90.7971C237.157 90.937 237.285 91.0503 237.435 91.1262C237.586 91.2021 237.753 91.2378 237.921 91.2302V91.4429H234.487V91.2302C234.653 91.2249 234.816 91.1835 234.965 91.1087C235.113 91.0339 235.243 90.9275 235.346 90.7971C235.511 90.5802 235.587 90.3085 235.559 90.0374V78.6412H234.039L236.827 77.3496V78.6868C237.141 78.2723 237.546 77.936 238.012 77.7041C238.477 77.4721 238.989 77.3508 239.509 77.3496C240.061 77.3295 240.611 77.4338 241.117 77.6547C241.623 77.8757 242.074 78.2076 242.434 78.626C243.203 79.6659 243.58 80.9441 243.498 82.2348ZM242.206 82.2348C242.255 81.1841 242.035 80.1383 241.568 79.1958C241.373 78.8233 241.08 78.5119 240.719 78.296C240.358 78.0802 239.945 77.9683 239.524 77.9727C237.739 77.9727 236.843 78.7324 236.843 80.3583V83.9823C236.809 84.4247 236.879 84.8688 237.048 85.2791C237.217 85.6894 237.48 86.0545 237.815 86.3451C238.294 86.7401 238.905 86.9384 239.524 86.8997C239.975 86.8791 240.411 86.7282 240.777 86.4652C241.144 86.2023 241.427 85.8385 241.591 85.4181C242.036 84.4176 242.246 83.3289 242.206 82.2348Z" fill="white"/>
<path d="M252.577 81.5129H246.347C246.304 81.8632 246.284 82.2159 246.286 82.5689C246.286 84.9849 247.13 86.279 248.816 86.4512C249.629 86.5526 250.448 86.3286 251.096 85.8282C251.4 85.5824 251.657 85.2838 251.855 84.9469L252.22 85.3343C251.904 86.0296 251.384 86.6119 250.728 87.003C250.072 87.394 249.312 87.5752 248.55 87.5224C247.902 87.5192 247.268 87.3261 246.728 86.967C246.188 86.6078 245.765 86.0984 245.511 85.5016C244.933 84.3234 244.687 83.0104 244.797 81.7028C244.833 80.5208 245.307 79.3942 246.127 78.5423C246.503 78.1463 246.957 77.8331 247.46 77.6225C247.964 77.4118 248.506 77.3085 249.052 77.3191C249.711 77.3116 250.356 77.5074 250.9 77.8799C251.444 78.2524 251.86 78.7835 252.091 79.4008C252.396 80.064 252.562 80.783 252.577 81.5129ZM251.308 80.867C251.282 80.3424 251.158 79.8272 250.944 79.3476C250.818 78.9217 250.562 78.546 250.212 78.2734C249.862 78.0008 249.435 77.845 248.991 77.8281C248.523 77.8325 248.068 77.9807 247.688 78.2525C247.307 78.5244 247.02 78.9066 246.864 79.3476C246.598 79.8301 246.437 80.3636 246.393 80.9127L251.308 80.867Z" fill="white"/>
<path d="M261.322 80.5939C260.737 80.5939 260.44 80.3432 260.44 79.8342C260.45 79.6835 260.47 79.5337 260.501 79.3859C260.533 79.2665 260.533 79.1407 260.501 79.0213C260.497 78.9587 260.475 78.8987 260.437 78.8487C260.399 78.7987 260.348 78.761 260.288 78.7402C260.03 78.5806 259.772 78.4287 259.529 78.292C259.215 78.1124 258.856 78.0278 258.495 78.0488C258.014 78.0823 257.545 78.2207 257.123 78.4543C256.7 78.6879 256.334 79.0111 256.049 79.4012C255.433 80.1835 255.108 81.1558 255.13 82.1514C255.103 83.2737 255.474 84.3692 256.178 85.2435C256.517 85.6797 256.953 86.0305 257.452 86.268C257.951 86.5054 258.498 86.623 259.05 86.6111C259.682 86.6125 260.302 86.4367 260.839 86.1036C261.376 85.7706 261.809 85.2937 262.089 84.727C261.42 86.5732 260.243 87.5 258.571 87.5152C257.93 87.5453 257.29 87.4352 256.695 87.1924C256.101 86.9497 255.567 86.5802 255.13 86.1097C254.195 85.0099 253.722 83.5919 253.808 82.1514C253.8 81.5329 253.917 80.9191 254.15 80.3463C254.384 79.7735 254.73 79.2532 255.168 78.8161C255.589 78.3635 256.1 78.0029 256.667 77.7571C257.234 77.5113 257.847 77.3856 258.465 77.3878C259.453 77.3198 260.436 77.5875 261.253 78.1476C261.52 78.3203 261.742 78.5548 261.899 78.8312C262.057 79.1075 262.145 79.4176 262.157 79.7354C262.173 79.8498 262.162 79.9664 262.126 80.0761C262.09 80.1859 262.03 80.286 261.949 80.3687C261.868 80.4515 261.77 80.5148 261.661 80.5538C261.553 80.5929 261.436 80.6065 261.322 80.5939Z" fill="white"/>
<path d="M268.835 85.6538C268.845 85.6963 268.845 85.7404 268.835 85.783C268.818 86.1664 268.682 86.5352 268.448 86.839C268.312 87.0459 268.127 87.2164 267.91 87.3356C267.693 87.4547 267.45 87.5189 267.202 87.5227C266.886 87.529 266.573 87.4532 266.295 87.3027C266.017 87.1523 265.782 86.9323 265.614 86.6642C265.222 86.0597 265.028 85.348 265.06 84.6281V77.9728H263.54V77.327H265.06V75.2073L266.343 74.5615V77.327H268.706V77.9728H266.343V84.6281C266.326 85.0751 266.37 85.5224 266.473 85.9577C266.522 86.1456 266.617 86.3183 266.75 86.4603C266.882 86.6022 267.048 86.7088 267.232 86.7706C267.328 86.8141 267.431 86.8375 267.536 86.839C268.03 86.839 268.463 86.4439 268.835 85.6538Z" fill="white"/>
<path d="M278.34 81.513H272.117C272.074 81.8633 272.054 82.216 272.057 82.569C272.057 84.985 272.9 86.2791 274.587 86.4514C274.989 86.505 275.398 86.4774 275.789 86.3704C276.181 86.2634 276.547 86.0791 276.866 85.8283C277.169 85.5819 277.427 85.2835 277.626 84.947L277.99 85.3345C277.675 86.0297 277.154 86.612 276.498 87.0031C275.842 87.3942 275.082 87.5754 274.321 87.5225C273.673 87.5174 273.04 87.3236 272.5 86.9647C271.961 86.6058 271.537 86.0974 271.282 85.5017C270.71 84.3216 270.466 83.0096 270.575 81.703C270.608 80.5203 271.082 79.3927 271.905 78.5424C272.279 78.1459 272.731 77.8321 273.234 77.6215C273.736 77.4108 274.277 77.3078 274.822 77.3192C275.482 77.3095 276.128 77.5044 276.672 77.8772C277.217 78.25 277.632 78.7824 277.861 79.4009C278.168 80.0631 278.331 80.783 278.34 81.513ZM277.079 80.8672C277.052 80.3425 276.928 79.8273 276.714 79.3477C276.588 78.9224 276.331 78.5474 275.981 78.2749C275.631 78.0025 275.205 77.8462 274.761 77.8282C274.294 77.8326 273.839 77.9808 273.458 78.2527C273.078 78.5245 272.79 78.9067 272.634 79.3477C272.368 79.8302 272.208 80.3637 272.163 80.9128L277.079 80.8672Z" fill="white"/>
<path d="M289.045 85.8053L286.257 87.5223V85.7598C286.019 86.2745 285.641 86.7124 285.167 87.0239C284.693 87.3354 284.142 87.5081 283.575 87.5223C283.008 87.5326 282.448 87.4035 281.943 87.1465C281.439 86.8895 281.005 86.5125 280.68 86.0485C279.924 84.9302 279.549 83.5982 279.609 82.2497C279.609 78.993 280.931 77.362 283.575 77.3569C284.128 77.3352 284.678 77.4392 285.185 77.6609C285.584 77.9088 285.945 78.2134 286.257 78.565V73.8166H284.54L287.579 72.5098V85.8357L289.045 85.8053ZM286.257 84.0883V80.4644C286.257 78.7777 285.375 77.942 283.597 77.9724C283.169 77.9683 282.749 78.0824 282.381 78.3023C282.014 78.5221 281.714 78.8392 281.516 79.2184C281.055 80.1626 280.841 81.208 280.893 82.2573C280.852 83.3767 281.081 84.4896 281.561 85.5015C281.725 85.9126 282.004 86.2672 282.366 86.5222C282.727 86.7772 283.155 86.9214 283.597 86.9373C284.251 86.9706 284.892 86.7471 285.383 86.3144C285.689 86.0344 285.926 85.6883 286.077 85.3025C286.229 84.9167 286.29 84.5014 286.257 84.0883Z" fill="white"/>
<path d="M300.206 87.0895H296.772V86.8767C296.937 86.8719 297.099 86.8313 297.247 86.7579C297.396 86.6845 297.526 86.5799 297.63 86.4513C297.792 86.233 297.868 85.9624 297.843 85.6916V78.6107H296.323L299.112 77.3192V85.6763C299.103 85.9453 299.178 86.2104 299.324 86.4361C299.42 86.574 299.548 86.6854 299.699 86.7599C299.849 86.8343 300.015 86.8693 300.183 86.8615L300.206 87.0895ZM298.496 75.9364C298.063 75.9364 297.843 75.7313 297.843 75.3134C297.843 74.8956 298.056 74.6448 298.481 74.6448C298.569 74.6324 298.659 74.6405 298.743 74.6684C298.828 74.6963 298.904 74.7434 298.968 74.8059C299.031 74.8684 299.079 74.9446 299.108 75.0287C299.137 75.1128 299.146 75.2024 299.134 75.2906C299.147 75.3776 299.139 75.4664 299.111 75.5499C299.084 75.6334 299.037 75.7094 298.976 75.7719C298.914 75.8345 298.838 75.8819 298.755 75.9104C298.672 75.9389 298.583 75.9478 298.496 75.9364Z" fill="white"/>
<path d="M308.144 84.6889C308.139 85.0692 308.05 85.4437 307.885 85.7862C307.719 86.1286 307.481 86.4309 307.187 86.6719C306.589 87.2402 305.794 87.5535 304.969 87.5456C304.767 87.5453 304.565 87.5224 304.369 87.4772C303.89 87.39 303.431 87.2148 303.016 86.9606C302.611 86.7326 302.358 86.6339 302.256 86.6642C301.96 86.7326 301.725 87.0062 301.573 87.4772L301.481 84.3015C301.481 84.6889 301.884 85.2587 302.689 85.9957C303.212 86.6004 303.935 86.9969 304.726 87.1126C305.407 87.1062 306.064 86.8585 306.579 86.4136C306.85 86.2173 307.067 85.9569 307.211 85.6559C307.356 85.3548 307.423 85.0225 307.407 84.6889C307.407 83.9292 306.86 83.3898 305.888 82.9719C304.916 82.554 304.057 82.2122 303.145 81.8779C302.699 81.6448 302.332 81.284 302.091 80.8416C301.85 80.3992 301.746 79.8951 301.793 79.3935C301.801 79.0454 301.905 78.7063 302.095 78.414C302.284 78.1216 302.55 77.8874 302.864 77.7372C303.536 77.3851 304.298 77.2422 305.052 77.327C305.479 77.3768 305.891 77.5166 306.26 77.7372C306.464 77.8863 306.697 77.99 306.944 78.0412C307.163 77.9824 307.358 77.8545 307.499 77.6765L307.673 79.8646C307.402 79.5229 307.108 79.2004 306.792 78.8997C306.319 78.3724 305.721 77.9727 305.052 77.7372C304.863 77.6949 304.669 77.6745 304.475 77.6765C303.918 77.6479 303.373 77.8388 302.955 78.2083C302.777 78.3469 302.637 78.5283 302.548 78.7355C302.459 78.9427 302.424 79.1691 302.446 79.3935C302.538 80.0469 303.077 80.5332 304.08 80.8523C304.991 81.0917 305.88 81.4068 306.739 81.7943C307.212 82.1056 307.592 82.5388 307.84 83.0483C308.087 83.5578 308.192 84.1246 308.144 84.6889Z" fill="white"/>
<path d="M323.013 81.513H316.783C316.733 81.8628 316.71 82.2157 316.715 82.569C316.715 84.985 317.566 86.2766 319.252 86.4514C319.654 86.505 320.063 86.4774 320.455 86.3704C320.846 86.2634 321.212 86.0791 321.531 85.8283C321.833 85.58 322.09 85.2819 322.291 84.947L322.656 85.3345C322.34 86.0297 321.82 86.612 321.164 87.0031C320.508 87.3942 319.748 87.5754 318.986 87.5225C318.338 87.5184 317.705 87.3249 317.165 86.9659C316.625 86.6069 316.202 86.098 315.947 85.5017C315.372 84.3228 315.128 83.0098 315.241 81.703C315.273 80.5203 315.748 79.3927 316.57 78.5424C316.944 78.1459 317.397 77.8321 317.899 77.6215C318.402 77.4108 318.943 77.3078 319.488 77.3192C320.147 77.3106 320.793 77.506 321.337 77.8786C321.881 78.2513 322.297 78.783 322.527 79.4009C322.832 80.0641 322.998 80.7831 323.013 81.513ZM321.744 80.8672C321.718 80.3425 321.594 79.8273 321.38 79.3477C321.255 78.9213 321 78.5449 320.649 78.2721C320.298 77.9993 319.871 77.844 319.427 77.8282C318.961 77.8342 318.507 77.9831 318.128 78.2548C317.749 78.5265 317.463 78.908 317.307 79.3477C317.039 79.829 316.878 80.3631 316.836 80.9128L321.744 80.8672Z" fill="white"/>
<path d="M332.646 87.0895H330.071V86.664H330.717L328.202 82.8653L325.406 86.664H326.66V87.0895H324.304V86.664H324.943L327.982 82.531L324.943 78.079H324.297V77.6763H326.865V78.1018H326.227L328.673 81.6421L331.378 78.1018H330.299V77.6763H332.662V78.1018H331.803L328.886 81.9612L332.016 86.6792H332.662L332.646 87.0895Z" fill="white"/>
<path d="M343.162 82.2346C343.244 83.6211 342.868 84.9962 342.091 86.1473C341.756 86.5983 341.318 86.9617 340.812 87.2065C340.307 87.4512 339.75 87.5701 339.188 87.5528C338.613 87.5743 338.045 87.4178 337.563 87.1046C337.142 86.7761 336.785 86.3746 336.507 85.9193V90.0372C336.5 90.3071 336.577 90.5725 336.727 90.7969C336.821 90.9368 336.949 91.0501 337.099 91.126C337.25 91.2018 337.417 91.2376 337.585 91.2299V91.4427H334.151V91.2299C334.317 91.2247 334.48 91.1832 334.629 91.1084C334.777 91.0336 334.907 90.9273 335.01 90.7969C335.171 90.5783 335.247 90.3079 335.223 90.0372V78.641H333.703L336.491 77.3494V78.6865C336.805 78.2721 337.21 77.9358 337.676 77.7038C338.141 77.4719 338.653 77.3505 339.173 77.3494C339.724 77.3282 340.273 77.4321 340.778 77.6531C341.284 77.8742 341.732 78.2067 342.091 78.6258C342.865 79.6632 343.245 80.9426 343.162 82.2346ZM341.87 82.2346C341.919 81.1838 341.699 80.138 341.232 79.1956C341.037 78.8231 340.743 78.5117 340.383 78.2958C340.022 78.0799 339.609 77.968 339.188 77.9724C337.403 77.9724 336.507 78.7322 336.507 80.358V83.982C336.473 84.4237 336.543 84.8671 336.71 85.2772C336.878 85.6872 337.138 86.0527 337.471 86.3448C337.954 86.739 338.567 86.937 339.188 86.8994C339.64 86.8842 340.077 86.7353 340.443 86.4715C340.81 86.2077 341.09 85.841 341.247 85.4179C341.693 84.418 341.901 83.3284 341.855 82.2346H341.87Z" fill="white"/>
<path d="M352.24 81.5128H346.01C345.967 81.8632 345.947 82.2158 345.949 82.5688C345.949 84.9848 346.793 86.279 348.479 86.4512C349.291 86.5526 350.111 86.3286 350.758 85.8281C351.063 85.5823 351.32 85.2838 351.518 84.9468L351.883 85.3343C351.567 86.0296 351.047 86.6118 350.391 87.0029C349.735 87.394 348.975 87.5752 348.213 87.5223C347.565 87.5172 346.933 87.3234 346.393 86.9645C345.853 86.6056 345.43 86.0972 345.174 85.5015C344.603 84.3214 344.359 83.0094 344.468 81.7028C344.503 80.5207 344.977 79.3942 345.797 78.5422C346.172 78.1468 346.625 77.8338 347.127 77.6232C347.63 77.4126 348.17 77.309 348.715 77.319C349.374 77.3115 350.019 77.5073 350.563 77.8798C351.107 78.2523 351.523 78.7834 351.754 79.4007C352.059 80.0639 352.225 80.7829 352.24 81.5128ZM350.971 80.867C350.945 80.3423 350.821 79.8271 350.607 79.3475C350.481 78.9216 350.225 78.546 349.875 78.2733C349.525 78.0007 349.098 77.8449 348.654 77.828C348.186 77.8324 347.731 77.9806 347.351 78.2525C346.97 78.5243 346.683 78.9066 346.527 79.3475C346.261 79.83 346.1 80.3635 346.056 80.9126L350.971 80.867Z" fill="white"/>
<path d="M360.993 80.5939C360.4 80.5939 360.111 80.3432 360.111 79.8342C360.121 79.6835 360.141 79.5337 360.172 79.3859C360.204 79.2665 360.204 79.1407 360.172 79.0213C360.167 78.959 360.145 78.8993 360.107 78.8495C360.069 78.7997 360.018 78.7618 359.959 78.7402C359.701 78.5806 359.443 78.4287 359.2 78.292C358.889 78.1117 358.532 78.0271 358.174 78.0488C357.692 78.0823 357.224 78.2207 356.801 78.4543C356.379 78.6879 356.012 79.0111 355.728 79.4012C355.109 80.1828 354.782 81.155 354.801 82.1514C354.777 83.2745 355.151 84.3699 355.857 85.2435C356.196 85.6797 356.632 86.0305 357.131 86.268C357.629 86.5054 358.176 86.623 358.729 86.6111C359.361 86.6116 359.98 86.4355 360.517 86.1025C361.054 85.7696 361.487 85.2931 361.768 84.727C361.099 86.5732 359.921 87.5 358.25 87.5152C357.609 87.5463 356.968 87.4367 356.373 87.1939C355.779 86.9511 355.245 86.581 354.808 86.1097C353.874 85.0099 353.401 83.5919 353.486 82.1514C353.479 81.5329 353.596 80.9191 353.829 80.3463C354.063 79.7735 354.409 79.2532 354.846 78.8161C355.268 78.3635 355.778 78.0029 356.346 77.7571C356.913 77.5113 357.525 77.3856 358.144 77.3878C359.132 77.3198 360.115 77.5875 360.932 78.1476C361.199 78.3203 361.42 78.5548 361.578 78.8312C361.735 79.1075 361.824 79.4176 361.836 79.7354C361.852 79.8505 361.841 79.9678 361.805 80.0782C361.768 80.1885 361.707 80.2891 361.625 80.3721C361.544 80.455 361.445 80.5181 361.335 80.5565C361.225 80.595 361.108 80.6078 360.993 80.5939Z" fill="white"/>
<path d="M368.499 85.6538C368.508 85.6963 368.508 85.7404 368.499 85.783C368.481 86.1664 368.346 86.5352 368.111 86.839C367.975 87.0459 367.79 87.2164 367.573 87.3356C367.356 87.4547 367.113 87.5189 366.865 87.5227C366.549 87.529 366.236 87.4532 365.958 87.3027C365.68 87.1523 365.445 86.9323 365.277 86.6642C364.885 86.0597 364.691 85.348 364.723 84.6281V77.9728H363.203V77.327H364.723V75.2073L366.007 74.5615V77.327H368.369V77.9728H366.007V84.6281C365.99 85.0751 366.033 85.5224 366.136 85.9577C366.185 86.1456 366.28 86.3183 366.413 86.4603C366.545 86.6022 366.711 86.7088 366.895 86.7706C366.991 86.8141 367.094 86.8375 367.199 86.839C367.686 86.839 368.126 86.4439 368.499 85.6538Z" fill="white"/>
<path d="M378.003 81.513H371.781C371.734 81.863 371.713 82.2159 371.72 82.569C371.72 84.985 372.563 86.2791 374.25 86.4514C374.652 86.505 375.061 86.4774 375.452 86.3704C375.844 86.2634 376.21 86.0791 376.529 85.8283C376.846 85.5853 377.116 85.2867 377.327 84.947L377.691 85.3345C377.376 86.0297 376.855 86.612 376.199 87.0031C375.543 87.3942 374.784 87.5754 374.022 87.5225C373.374 87.5174 372.741 87.3236 372.201 86.9647C371.662 86.6058 371.238 86.0974 370.983 85.5017C370.411 84.3216 370.167 83.0096 370.276 81.703C370.309 80.5203 370.783 79.3927 371.606 78.5424C371.98 78.1459 372.432 77.8321 372.935 77.6215C373.437 77.4108 373.979 77.3078 374.523 77.3192C375.183 77.3095 375.829 77.5044 376.374 77.8772C376.918 78.25 377.333 78.7824 377.562 79.4009C377.856 80.066 378.007 80.7858 378.003 81.513ZM376.742 80.8672C376.712 80.343 376.588 79.8284 376.377 79.3477C376.251 78.9224 375.995 78.5474 375.644 78.2749C375.294 78.0025 374.868 77.8462 374.425 77.8282C373.957 77.8326 373.502 77.9808 373.121 78.2527C372.741 78.5245 372.453 78.9067 372.297 79.3477C372.031 79.8302 371.871 80.3637 371.826 80.9128L376.742 80.8672Z" fill="white"/>
<path d="M388.708 85.8056L385.92 87.5531V85.7905C385.682 86.3053 385.304 86.7432 384.83 87.0547C384.356 87.3662 383.805 87.5388 383.238 87.5531C382.671 87.5634 382.111 87.4343 381.607 87.1773C381.102 86.9203 380.668 86.5432 380.343 86.0792C379.587 84.9609 379.212 83.6289 379.272 82.2805C379.272 79.0237 380.594 77.3928 383.238 77.3877C383.791 77.366 384.341 77.4699 384.848 77.6916C385.247 77.9396 385.608 78.2441 385.92 78.5957V73.8473H384.203L387.242 72.5405V85.8665L388.708 85.8056ZM385.92 84.0886V80.4647C385.92 78.7781 385.031 77.9423 383.261 77.9727C382.832 77.9686 382.412 78.0828 382.044 78.3026C381.677 78.5225 381.377 78.8395 381.179 79.2187C380.715 80.1618 380.5 81.2081 380.556 82.2577C380.515 83.3771 380.744 84.4899 381.224 85.5018C381.388 85.9129 381.667 86.2676 382.029 86.5225C382.39 86.7775 382.818 86.9217 383.261 86.9377C383.912 86.9723 384.551 86.7484 385.038 86.3147C385.346 86.0362 385.586 85.6905 385.739 85.3045C385.892 84.9184 385.953 84.5024 385.92 84.0886Z" fill="white"/>
</g>
<defs>
<clipPath id="clip0_1592_5603">
<rect width="406" height="91.8531" fill="white"/>
</clipPath>
</defs>
</svg>
