<svg width="802" height="162" viewBox="0 0 802 162" fill="none" xmlns="http://www.w3.org/2000/svg">
<path d="M133.403 96.1895H41.0889V66.7656H133.403V96.1895ZM146.431 30.1543H29.4092V162H0.209961V15.667C0.209961 13.6455 0.58431 11.7363 1.33301 9.93945C2.08171 8.14258 3.09245 6.57031 4.36523 5.22266C5.71289 3.875 7.28516 2.82682 9.08203 2.07812C10.8789 1.32943 12.8255 0.955078 14.9219 0.955078H146.431V30.1543ZM284.13 147.288C284.13 149.384 283.755 151.331 283.007 153.128C282.258 154.925 281.21 156.497 279.862 157.845C278.589 159.118 277.054 160.128 275.258 160.877C273.536 161.626 271.664 162 269.642 162H203.607C200.013 162 196.158 161.588 192.04 160.765C187.997 159.941 183.991 158.631 180.023 156.834C176.055 154.962 172.199 152.641 168.456 149.871C164.787 147.026 161.568 143.619 158.798 139.651C156.027 135.608 153.781 130.966 152.059 125.726C150.412 120.485 149.589 114.57 149.589 107.981V40.5986H178.788V107.981C178.788 111.8 179.424 115.244 180.697 118.313C182.045 121.308 183.842 123.891 186.088 126.062C188.334 128.234 190.954 129.918 193.949 131.116C197.019 132.239 200.313 132.801 203.832 132.801H254.93V40.5986H284.13V147.288ZM408.128 69.7979H357.141V162H327.605V69.7979H289.646V40.5986H327.605V0.955078H357.141V40.5986H408.128V69.7979ZM546.276 147.288C546.276 149.384 545.901 151.331 545.153 153.128C544.404 154.925 543.356 156.497 542.008 157.845C540.735 159.118 539.201 160.128 537.404 160.877C535.682 161.626 533.81 162 531.788 162H465.753C462.16 162 458.304 161.588 454.186 160.765C450.143 159.941 446.137 158.631 442.169 156.834C438.201 154.962 434.345 152.641 430.602 149.871C426.933 147.026 423.714 143.619 420.944 139.651C418.174 135.608 415.927 130.966 414.205 125.726C412.558 120.485 411.735 114.57 411.735 107.981V40.5986H440.934V107.981C440.934 111.8 441.57 115.244 442.843 118.313C444.191 121.308 445.988 123.891 448.234 126.062C450.48 128.234 453.1 129.918 456.095 131.116C459.165 132.239 462.459 132.801 465.978 132.801H517.077V40.5986H546.276V147.288ZM666.118 69.7979H600.42C596.452 69.7979 593.457 70.8086 591.436 72.8301C589.414 74.7767 588.404 77.6592 588.404 81.4775V162H559.204V81.4775C559.204 76.4613 559.841 71.9691 561.113 68.001C562.386 64.0329 564.071 60.5514 566.167 57.5566C568.338 54.487 570.809 51.904 573.579 49.8076C576.349 47.6364 579.232 45.877 582.227 44.5293C585.296 43.1816 588.366 42.2083 591.436 41.6094C594.58 40.9355 597.5 40.5986 600.195 40.5986H666.118V69.7979ZM801.796 80.8037C801.796 84.8467 801.085 89.2266 799.662 93.9434C798.24 98.5853 795.919 102.928 792.699 106.971C789.555 110.939 785.399 114.271 780.233 116.966C775.142 119.661 768.928 121.009 761.591 121.009H708.92V93.2695H761.591C765.559 93.2695 768.629 92.0716 770.8 89.6758C772.971 87.2051 774.057 84.1729 774.057 80.5791C774.057 76.7607 772.821 73.766 770.351 71.5947C767.955 69.4235 765.035 68.3379 761.591 68.3379H708.92C704.952 68.3379 701.882 69.5732 699.711 72.0439C697.54 74.4398 696.454 77.4346 696.454 81.0283V121.795C696.454 125.688 697.652 128.72 700.048 130.892C702.519 133.063 705.551 134.148 709.145 134.148H761.591V162H708.92C704.877 162 700.497 161.289 695.78 159.866C691.138 158.444 686.796 156.16 682.753 153.016C678.785 149.796 675.453 145.641 672.758 140.55C670.062 135.384 668.715 129.132 668.715 121.795V80.8037C668.715 76.7607 669.426 72.4183 670.849 67.7764C672.271 63.0596 674.555 58.7171 677.699 54.749C680.919 50.7061 685.074 47.3369 690.165 44.6416C695.331 41.9463 701.583 40.5986 708.92 40.5986H761.591C765.634 40.5986 769.976 41.3099 774.618 42.7324C779.335 44.1549 783.677 46.4759 787.646 49.6953C791.688 52.8398 795.058 56.9951 797.753 62.1611C800.448 67.2523 801.796 73.4665 801.796 80.8037Z" fill="white"/>
</svg>
