<svg width="164" height="162" viewBox="0 0 164 162" fill="none" xmlns="http://www.w3.org/2000/svg">
<path d="M29.3818 162H0.182617V0.955078H29.3818V162ZM163.824 121.009C163.824 126.025 163.188 130.555 161.915 134.598C160.642 138.566 158.957 142.085 156.861 145.154C154.765 148.149 152.332 150.732 149.561 152.903C146.791 155 143.871 156.722 140.802 158.069C137.807 159.417 134.737 160.428 131.593 161.102C128.523 161.701 125.603 162 122.833 162H43.7703V132.801H122.608C126.576 132.801 129.571 131.79 131.593 129.769C133.614 127.747 134.625 124.827 134.625 121.009C134.25 113.222 130.32 109.329 122.833 109.329H77.574C71.1352 109.329 65.6697 108.206 61.1775 105.96C56.6854 103.714 53.0167 100.906 50.1717 97.5371C47.4015 94.168 45.38 90.5368 44.1072 86.6436C42.9093 82.7503 42.3104 79.1191 42.3104 75.75C42.3104 69.2363 43.4708 63.7708 45.7918 59.3535C48.1128 54.8613 51.0327 51.2301 54.5516 48.46C58.0704 45.6898 61.8888 43.7057 66.0066 42.5078C70.1245 41.235 73.9803 40.5986 77.574 40.5986H149.337V69.7979H77.7986C76.3012 69.7979 75.1033 69.985 74.2049 70.3594C73.3813 70.6589 72.7449 71.1081 72.2957 71.707C71.9214 72.2311 71.6967 72.8301 71.6219 73.5039C71.547 74.1029 71.5096 74.7018 71.5096 75.3008C71.5844 76.4987 71.8091 77.4346 72.1834 78.1084C72.5577 78.7822 73.007 79.2689 73.5311 79.5684C74.13 79.8678 74.7664 80.055 75.4402 80.1299C76.1889 80.1299 76.9002 80.1299 77.574 80.1299H122.833C130.32 80.1299 136.684 81.4775 141.925 84.1729C147.165 86.8682 151.396 90.2747 154.615 94.3926C157.834 98.4355 160.155 102.853 161.578 107.645C163.075 112.436 163.824 116.891 163.824 121.009Z" fill="white"/>
</svg>
