<svg width="139" height="80" viewBox="0 0 139 80" fill="none" xmlns="http://www.w3.org/2000/svg">
<rect width="80" height="80" rx="12" transform="matrix(0.866025 0.5 -0.866025 0.5 69.2822 0)" fill="#FF5722"/>
<g clip-path="url(#clip0_1592_5484)">
<path d="M86.6032 42.5L82.2731 40L85.5207 38.125C87.2433 37.1304 88.2111 35.7815 88.2111 34.375C88.2111 32.9685 87.2433 31.6196 85.5207 30.625C83.798 29.6304 81.4616 29.0717 79.0255 29.0717C76.5893 29.0717 74.2529 29.6304 72.5303 30.625L69.2827 32.5L64.9526 30C64.3783 29.6685 63.5995 29.4822 62.7875 29.4822C61.9754 29.4822 61.1966 29.6685 60.6224 30L45.467 38.75C44.8928 39.0815 44.5702 39.5312 44.5702 40C44.5702 40.4688 44.8928 40.9185 45.467 41.25L67.1176 53.75C67.6918 54.0815 68.4706 54.2678 69.2827 54.2678C70.0947 54.2678 70.8735 54.0815 71.4477 53.75L86.6032 45C87.1774 44.6685 87.5 44.2188 87.5 43.75C87.5 43.2812 87.1774 42.8315 86.6032 42.5ZM66.2205 43.018L62.7875 45C62.5004 45.1658 62.111 45.2589 61.705 45.2589C61.2989 45.2589 60.9095 45.1658 60.6224 45C60.3353 44.8342 60.174 44.6094 60.174 44.375C60.174 44.1406 60.3353 43.9158 60.6224 43.75L64.0554 41.768C63.5885 41.2035 63.4822 40.562 63.7554 39.9566C64.0285 39.3513 64.6635 38.8213 65.5481 38.4601C66.4328 38.099 67.51 37.93 68.5895 37.9831C69.669 38.0362 70.6813 38.3079 71.4474 38.7502C72.2135 39.1925 72.6841 39.7769 72.776 40.4002C72.868 41.0234 72.5753 41.6454 71.9498 42.1561C71.3243 42.6669 70.4062 43.0335 69.3578 43.1912C68.3093 43.3489 67.1981 43.2875 66.2205 43.018ZM80.108 38.75L71.4477 33.75L74.6953 31.875C75.8438 31.212 77.4014 30.8395 79.0255 30.8395C80.6496 30.8395 82.2072 31.212 83.3556 31.875C84.504 32.538 85.1492 33.4373 85.1492 34.375C85.1492 35.3127 84.504 36.212 83.3556 36.875L80.108 38.75Z" fill="white"/>
</g>
<defs>
<clipPath id="clip0_1592_5484">
<rect width="40" height="40" fill="white" transform="matrix(0.866025 0.5 -0.866025 0.5 69.2822 20)"/>
</clipPath>
</defs>
</svg>
