<svg width="208" height="47" viewBox="0 0 208 47" fill="none" xmlns="http://www.w3.org/2000/svg">
<g clip-path="url(#clip0_1592_5352)">
<path d="M207.366 34.6677H0V46.9182H207.366V34.6677Z" fill="#C54B0E"/>
<path d="M2.04883 25.4323V0.209562H8.19545L13.0925 15.7778C12.8985 13.1546 12.7536 10.8936 12.6579 8.99479C12.5622 7.09597 12.5157 5.48951 12.5182 4.17534V0.209562H17.7801V25.4323H11.6257L6.68596 9.40614C6.90326 11.4938 7.07014 13.5181 7.18655 15.479C7.30296 17.4399 7.35985 19.3439 7.35726 21.191V25.4594L2.04883 25.4323Z" fill="#C54B0E"/>
<path d="M20.5 19.4176H25.2341C25.2241 20.1746 25.4228 20.9197 25.8084 21.5712C25.9779 21.7989 26.2015 21.9806 26.459 22.0999C26.7165 22.2191 26.9997 22.2722 27.283 22.2542C27.7598 22.2733 28.2251 22.1047 28.579 21.7847C28.8755 21.4917 29.0549 21.1006 29.0834 20.6848C29.112 20.269 28.9878 19.857 28.7342 19.5263C28.2822 19.1026 27.7561 18.7659 27.1821 18.5329L26.3633 18.1449C24.449 17.2601 23.1154 16.4297 22.3626 15.6536C21.8312 15.1325 21.4125 14.5078 21.1325 13.8182C20.8502 13.1205 20.7065 12.3745 20.7096 11.6218C20.6764 10.8458 20.8174 10.0722 21.1223 9.35773C21.4271 8.64329 21.8881 8.00615 22.4712 7.49307C23.6431 6.45829 25.2289 5.9409 27.2286 5.9409C29.2982 5.9409 30.8969 6.43504 32.0248 7.42325C33.1527 8.41146 33.7128 9.83428 33.7051 11.6917V12.0371H29.0486C29.0864 11.334 28.9364 10.6335 28.614 10.0076C28.4695 9.80121 28.2735 9.6363 28.0454 9.52939C27.8172 9.42248 27.5651 9.3773 27.314 9.39837C26.8475 9.37538 26.3897 9.53076 26.0335 9.83298C25.8772 9.97791 25.754 10.1549 25.6723 10.3518C25.5906 10.5486 25.5523 10.7608 25.5601 10.9738C25.5601 11.8043 26.3517 12.5687 27.9349 13.2671L28.4432 13.4961C30.6085 14.4714 32.0559 15.4169 32.7854 16.3327C33.5573 17.3712 33.9453 18.6451 33.8836 19.9376C33.8836 21.8468 33.2938 23.3265 32.1141 24.3768C30.9345 25.4271 29.253 25.9523 27.0696 25.9523C24.9974 25.9523 23.3793 25.4206 22.2307 24.3613C21.082 23.3019 20.5 21.8157 20.5 19.9027V19.4176Z" fill="#C54B0E"/>
<path d="M44.8999 25.3663C44.2558 25.4853 43.6931 25.5745 43.212 25.634C42.8043 25.6909 42.3934 25.722 41.9818 25.7272C41.0632 25.752 40.15 25.5786 39.3043 25.2189C38.616 24.9241 38.0434 24.4115 37.6746 23.7598C37.4211 23.2427 37.2571 22.6864 37.1895 22.1145C37.0787 21.1096 37.032 20.0986 37.0498 19.0878V10.3879H35.001V6.47252H37.0498V1.22623H42.3777V6.47252H44.8999V10.3879H42.3777V18.1215C42.3777 19.772 42.498 20.7887 42.7386 21.1716C42.9753 21.5596 43.4409 21.742 44.1277 21.742C44.2467 21.742 44.4446 21.7265 44.7214 21.6954C44.7809 21.6909 44.8405 21.6909 44.8999 21.6954V25.3663Z" fill="#C54B0E"/>
<path d="M55.9131 18.7774H60.8762V19.2547C60.8762 21.4691 60.298 23.1377 59.1416 24.2604C57.9853 25.3831 56.2585 25.9432 53.9613 25.9406C52.8921 25.9531 51.8284 25.7865 50.8143 25.4478C49.9803 25.1859 49.2261 24.7173 48.6218 24.0858C47.9826 23.3222 47.5473 22.409 47.3568 21.4316C47.0981 20.3295 46.9688 18.5652 46.9688 16.1387C46.9688 13.4664 47.0981 11.5986 47.3568 10.5354C47.5684 9.56451 48.0208 8.66246 48.6723 7.9122C49.3056 7.24805 50.0915 6.74854 50.9617 6.45704C51.9978 6.10962 53.086 5.94291 54.1786 5.96422C55.2784 5.93979 56.3732 6.12005 57.4071 6.49583C58.2711 6.81929 59.0342 7.36547 59.619 8.07903C60.1152 8.69751 60.4677 9.41857 60.6511 10.19C60.9091 11.5725 61.0146 12.9792 60.9655 14.3847V16.6625H52.3703C52.3654 16.7336 52.3654 16.8049 52.3703 16.876C52.3276 17.6753 52.3043 18.2302 52.3043 18.5484C52.3043 19.8833 52.4479 20.8068 52.7312 21.3268C52.8737 21.583 53.0872 21.7926 53.3461 21.9303C53.605 22.0679 53.8981 22.1279 54.1902 22.1029C54.4481 22.1208 54.7064 22.0758 54.943 21.9717C55.1796 21.8676 55.3873 21.7075 55.5484 21.5053C55.8945 20.9687 56.0566 20.3339 56.0101 19.697C56.0101 19.5302 56.0101 19.2818 55.9597 18.9209C55.9402 18.8745 55.9247 18.8264 55.9131 18.7774ZM52.4867 13.3875H56.0412V13.2866C56.0877 12.8093 56.1072 12.4678 56.1072 12.2738C56.16 11.5591 56.0036 10.8444 55.657 10.2171C55.5005 9.99518 55.2893 9.81747 55.0439 9.70121C54.7984 9.58494 54.5271 9.53408 54.2562 9.55361C53.989 9.52966 53.7203 9.5766 53.4771 9.68969C53.2339 9.80279 53.0248 9.97805 52.8709 10.1978C52.5954 10.6324 52.4557 11.3619 52.4557 12.3398C52.4557 12.6114 52.4557 12.8248 52.4557 12.9761C52.4557 13.1275 52.4751 13.2866 52.4867 13.3875Z" fill="#C54B0E"/>
<path d="M64.3027 31.8039V6.4725H69.1688V8.63004C69.6004 7.83643 70.23 7.16802 70.9965 6.68983C71.7308 6.24952 72.5733 6.02246 73.4295 6.03406C74.1265 6.02476 74.8182 6.15676 75.4628 6.4221C76.0505 6.66842 76.5717 7.04999 76.984 7.53578C77.5013 8.23448 77.8421 9.04789 77.9773 9.90671C78.1662 10.8923 78.2619 12.7459 78.2645 15.4673C78.2645 19.7824 77.9062 22.6125 77.1896 23.9577C76.473 25.3029 75.1873 25.9742 73.3325 25.9716C72.5907 25.9863 71.8592 25.7971 71.2176 25.4245C70.5484 24.9997 69.9824 24.431 69.5607 23.7598V31.8039H64.3027ZM71.1827 21.4664C71.8734 21.4664 72.3469 21.0784 72.603 20.3023C72.8591 19.5262 72.991 17.6947 72.991 14.8426C72.991 13.1274 72.8617 11.9542 72.603 11.323C72.5218 11.0439 72.3508 10.7995 72.1164 10.6276C71.882 10.4556 71.5975 10.3659 71.3069 10.3723C70.9767 10.3653 70.6537 10.4699 70.3903 10.6692C70.1269 10.8685 69.9386 11.1508 69.8556 11.4705C69.5969 12.2 69.4676 14.1273 69.4676 17.2523C69.4676 18.8588 69.5969 19.9648 69.8556 20.5701C69.9523 20.8415 70.1332 21.075 70.372 21.2362C70.6107 21.3975 70.8948 21.4782 71.1827 21.4664Z" fill="#C54B0E"/>
<path d="M80.2119 19.4176H84.9499C84.9378 20.1749 85.1367 20.9205 85.5242 21.5712C85.6934 21.7992 85.917 21.9811 86.1746 22.1004C86.4322 22.2197 86.7155 22.2726 86.9988 22.2542C87.4743 22.2727 87.9382 22.1041 88.2909 21.7847C88.5874 21.4917 88.7668 21.1006 88.7953 20.6848C88.8239 20.269 88.6997 19.857 88.4461 19.5263C87.9947 19.1019 87.4684 18.7651 86.894 18.5329L86.0752 18.1449C84.1635 17.2601 82.8312 16.4297 82.0784 15.6536C81.5442 15.1348 81.1251 14.5095 80.8483 13.8182C80.5629 13.1213 80.4179 12.3749 80.4215 11.6218C80.3883 10.8458 80.5293 10.0722 80.8342 9.35773C81.139 8.64329 81.6 8.00615 82.1831 7.49307C83.3576 6.45829 84.9447 5.9409 86.9444 5.9409C89.014 5.9409 90.6114 6.43504 91.7367 7.42325C92.8621 8.41146 93.4222 9.83428 93.417 11.6917V12.0371H88.7605C88.7372 11.0851 88.5923 10.4086 88.3259 10.0076C88.1803 9.80147 87.9835 9.63685 87.7548 9.53001C87.5262 9.42317 87.2736 9.37778 87.0221 9.39837C86.5566 9.3748 86.0998 9.53031 85.7454 9.83298C85.588 9.97724 85.4638 10.154 85.3814 10.3509C85.299 10.5479 85.2603 10.7605 85.2681 10.9738C85.2681 11.8043 86.0597 12.5687 87.6429 13.2671L88.1512 13.4961C90.3165 14.4714 91.7639 15.4169 92.4934 16.3327C93.2653 17.3712 93.6533 18.6451 93.5916 19.9376C93.5916 21.8468 93.0018 23.3265 91.8221 24.3768C90.6425 25.4271 88.961 25.9523 86.7776 25.9523C84.708 25.9523 83.0937 25.4219 81.9348 24.3613C80.7758 23.3006 80.199 21.8144 80.2041 19.9027L80.2119 19.4176Z" fill="#C54B0E"/>
<path d="M95.582 15.9602C95.582 12.266 96.1123 9.67907 97.173 8.19933C98.2336 6.7196 100.052 5.97715 102.629 5.97198C105.216 5.97198 107.034 6.70924 108.085 8.1838C109.135 9.65836 109.665 12.2531 109.676 15.9679C109.676 19.6595 109.145 22.2465 108.085 23.7288C107.024 25.2111 105.205 25.9523 102.629 25.9523C100.042 25.9523 98.2207 25.2175 97.1652 23.7482C96.1098 22.2788 95.582 19.6828 95.582 15.9602ZM100.956 15.9602C100.956 18.6247 101.074 20.2933 101.31 20.9659C101.388 21.2531 101.558 21.5069 101.793 21.6892C102.028 21.8715 102.317 21.9725 102.614 21.9769C102.912 21.9812 103.203 21.8888 103.444 21.7135C103.684 21.5382 103.861 21.2894 103.948 21.0047C104.184 20.3606 104.301 18.6791 104.301 15.9602C104.301 13.2413 104.184 11.5598 103.948 10.9156C103.861 10.631 103.683 10.3825 103.443 10.2075C103.202 10.0325 102.91 9.94052 102.613 9.94533C102.315 9.95015 102.027 10.0515 101.792 10.2342C101.557 10.4169 101.388 10.671 101.31 10.9583C101.077 11.6257 100.959 13.293 100.956 15.9602Z" fill="#C54B0E"/>
<path d="M118.034 25.4323H112.772V0.209562H118.034V25.4323Z" fill="#C54B0E"/>
<path d="M135.322 6.47252V25.4323H130.367V23.1855C129.874 23.9979 129.195 24.6805 128.384 25.1762C127.593 25.6137 126.7 25.8321 125.796 25.8087C124.334 25.8087 123.258 25.3171 122.567 24.3341C121.877 23.3511 121.533 21.7989 121.535 19.6776V6.45314H126.844V18.1681C126.844 19.6854 126.945 20.6283 127.139 20.997C127.242 21.1799 127.397 21.3288 127.583 21.4259C127.77 21.523 127.981 21.564 128.19 21.5441C128.477 21.544 128.759 21.464 129.004 21.3133C129.248 21.1626 129.446 20.9469 129.575 20.6904C129.945 19.95 130.116 19.1264 130.072 18.3001V6.45314L135.322 6.47252Z" fill="#C54B0E"/>
<path d="M147.514 25.3663C146.87 25.4853 146.307 25.5745 145.826 25.634C145.418 25.6907 145.008 25.7219 144.596 25.7272C143.677 25.752 142.764 25.5786 141.919 25.2189C141.229 24.9241 140.655 24.4116 140.285 23.7598C140.033 23.2425 139.87 22.6862 139.804 22.1145C139.693 21.1096 139.646 20.0986 139.664 19.0878V10.3879H137.615V6.47252H139.68V1.22623H145.004V6.47252H147.53V10.3879H145.004V18.1215C145.004 19.772 145.124 20.7887 145.364 21.1716C145.605 21.5596 146.071 21.742 146.757 21.742C146.955 21.7364 147.152 21.7208 147.347 21.6954C147.408 21.6909 147.469 21.6909 147.53 21.6954L147.514 25.3663Z" fill="#C54B0E"/>
<path d="M150.071 4.58664V3.8147e-06H155.329V4.58664H150.071ZM150.071 25.4323V6.47252H155.329V25.4323H150.071Z" fill="#C54B0E"/>
<path d="M158.426 15.9602C158.426 12.266 158.956 9.67907 160.017 8.19933C161.077 6.7196 162.896 5.97715 165.473 5.97198C168.06 5.97198 169.878 6.70924 170.928 8.1838C171.979 9.65836 172.509 12.2531 172.519 15.9679C172.519 19.6595 171.989 22.2465 170.928 23.7288C169.868 25.2111 168.049 25.9523 165.473 25.9523C162.886 25.9523 161.064 25.2175 160.009 23.7482C158.954 22.2788 158.426 19.6828 158.426 15.9602ZM163.8 15.9602C163.8 18.6247 163.918 20.2933 164.153 20.9659C164.232 21.2531 164.402 21.5069 164.637 21.6892C164.872 21.8715 165.16 21.9725 165.458 21.9769C165.756 21.9812 166.047 21.8888 166.287 21.7135C166.528 21.5382 166.705 21.2894 166.792 21.0047C167.025 20.3606 167.142 18.6791 167.145 15.9602C167.148 13.2413 167.03 11.5598 166.792 10.9156C166.705 10.631 166.527 10.3825 166.286 10.2075C166.045 10.0325 165.754 9.94052 165.457 9.94533C165.159 9.95015 164.871 10.0515 164.636 10.2342C164.401 10.4169 164.231 10.671 164.153 10.9583C163.918 11.6257 163.8 13.293 163.8 15.9602Z" fill="#C54B0E"/>
<path d="M175.647 25.4323V6.47251H180.614V8.7154C181.107 7.9053 181.787 7.2253 182.597 6.73251C183.394 6.29512 184.292 6.0756 185.201 6.09612C186.668 6.09612 187.735 6.58506 188.414 7.56293C189.093 8.5408 189.431 10.0891 189.431 12.2194V25.4439H184.169V13.725C184.169 12.2078 184.072 11.261 183.874 10.8923C183.774 10.7066 183.621 10.5545 183.434 10.4552C183.248 10.3558 183.036 10.3135 182.826 10.3336C182.538 10.3344 182.256 10.4155 182.011 10.5676C181.767 10.7197 181.569 10.937 181.441 11.195C181.069 11.9376 180.897 12.7639 180.94 13.5931V25.4439L175.647 25.4323Z" fill="#C54B0E"/>
<path d="M191.82 19.4176H196.558C196.546 20.1749 196.745 20.9205 197.133 21.5712C197.302 21.7992 197.525 21.9811 197.783 22.1004C198.041 22.2197 198.324 22.2726 198.607 22.2542C199.083 22.2727 199.547 22.1041 199.899 21.7847C200.066 21.6331 200.198 21.447 200.286 21.2393C200.374 21.0315 200.415 20.8072 200.408 20.5818C200.424 20.1984 200.299 19.8223 200.055 19.5263C199.603 19.1019 199.077 18.7651 198.502 18.5329L197.684 18.1449C195.769 17.2601 194.437 16.4297 193.687 15.6536C193.154 15.1338 192.735 14.5087 192.457 13.8182C192.173 13.1207 192.028 12.3747 192.03 11.6218C191.997 10.8458 192.138 10.0722 192.443 9.35773C192.747 8.64329 193.208 8.00615 193.792 7.49307C194.969 6.45829 196.556 5.9409 198.553 5.9409C200.622 5.9409 202.22 6.43504 203.345 7.42325C204.47 8.41146 205.031 9.83428 205.025 11.6917V12.0371H200.388C200.365 11.0851 200.22 10.4086 199.954 10.0076C199.808 9.80147 199.611 9.63685 199.383 9.53001C199.154 9.42317 198.901 9.37778 198.65 9.39837C198.184 9.3748 197.728 9.53031 197.373 9.83298C197.216 9.97724 197.092 10.154 197.009 10.3509C196.927 10.5479 196.888 10.7605 196.896 10.9738C196.896 11.8043 197.689 12.5687 199.275 13.2671L199.783 13.4961C201.946 14.4714 203.393 15.4169 204.125 16.3327C204.895 17.3721 205.283 18.6454 205.223 19.9376C205.223 21.8468 204.632 23.3265 203.45 24.3768C202.268 25.4271 200.586 25.9523 198.405 25.9523C196.336 25.9523 194.722 25.4219 193.563 24.3613C192.404 23.3006 191.827 21.8144 191.832 19.9027L191.82 19.4176Z" fill="#C54B0E"/>
<path d="M16.9733 37.1278C16.728 37.1193 16.4862 37.1886 16.2826 37.3257C16.042 37.4965 15.9217 37.6284 15.9217 37.7138L13.9504 44.6132L12.3983 39.2039L10.8461 44.6365L8.86322 37.7371C8.86322 37.6672 8.75847 37.5469 8.54504 37.349C8.44345 37.2769 8.33068 37.2218 8.21128 37.186C8.08685 37.1393 7.95599 37.1118 7.82324 37.1046V36.992H10.1787V37.1046C10.089 37.0966 9.99887 37.1116 9.91669 37.1483C9.83451 37.185 9.76307 37.2421 9.70917 37.3141C9.67282 37.379 9.65784 37.4537 9.66644 37.5275C9.6701 37.5918 9.68054 37.6555 9.69752 37.7177L11.0479 42.6458L12.1848 38.5792L11.9365 37.7138C11.9365 37.6207 11.8434 37.4926 11.6571 37.3257C11.5219 37.1931 11.3452 37.1109 11.1566 37.0929V36.9804H13.4227V37.0929C13.313 37.077 13.2011 37.0878 13.0964 37.1242C12.9917 37.1607 12.8973 37.2218 12.8212 37.3025C12.7849 37.3674 12.7699 37.442 12.7785 37.5159C12.7822 37.5802 12.7926 37.6439 12.8096 37.7061L14.16 42.6419L15.5375 37.7022C15.5535 37.5732 15.5203 37.4429 15.4444 37.3374C15.3475 37.2591 15.2351 37.2022 15.1146 37.1706C15.0049 37.129 14.89 37.1029 14.7731 37.0929V36.9804H16.9655L16.9733 37.1278Z" fill="white"/>
<path d="M21.6057 41.633H18.4277C18.4057 41.812 18.3953 41.9921 18.3966 42.1724C18.3966 43.4064 18.8273 44.0674 19.6888 44.1553C20.1036 44.2071 20.5221 44.0927 20.8529 43.8371C21.0073 43.7106 21.1385 43.5583 21.241 43.387L21.4272 43.5849C21.266 43.94 21 44.2374 20.6651 44.4371C20.3301 44.6369 19.9421 44.7294 19.553 44.7024C19.222 44.6998 18.8989 44.6008 18.6232 44.4175C18.3475 44.2342 18.1313 43.9745 18.0008 43.6703C17.7088 43.0676 17.5842 42.3974 17.6399 41.7301C17.6566 41.126 17.8988 40.5501 18.319 40.1158C18.5099 39.9133 18.7411 39.753 18.9978 39.6454C19.2544 39.5378 19.5308 39.4852 19.8091 39.4911C20.1459 39.4861 20.4761 39.5857 20.7541 39.7761C21.032 39.9665 21.2441 40.2384 21.3612 40.5543C21.5181 40.8925 21.6015 41.2602 21.6057 41.633ZM20.9616 41.3032C20.9479 41.0352 20.8848 40.7721 20.7753 40.5271C20.7107 40.3099 20.5799 40.1183 20.4011 39.9792C20.2223 39.84 20.0044 39.7602 19.778 39.751C19.5392 39.7533 19.3068 39.829 19.1125 39.9678C18.9181 40.1066 18.7711 40.3019 18.6915 40.5271C18.5557 40.7735 18.4737 41.046 18.4509 41.3265L20.9616 41.3032Z" fill="white"/>
<path d="M28.6102 43.255C28.6073 43.4493 28.562 43.6405 28.4775 43.8154C28.3931 43.9904 28.2715 44.1447 28.1212 44.2678C27.8158 44.5581 27.4094 44.7181 26.9881 44.7141C26.8849 44.7142 26.7821 44.7025 26.6816 44.6792C26.4371 44.6346 26.2029 44.5451 25.9909 44.4153C25.7839 44.2989 25.6546 44.2484 25.6028 44.2639C25.4476 44.2989 25.3312 44.4386 25.2536 44.6792L25.207 43.0571C25.207 43.255 25.4127 43.546 25.8201 43.9225C26.0891 44.2308 26.4592 44.433 26.864 44.4929C27.2119 44.4896 27.5473 44.3631 27.8108 44.1359C27.9488 44.0357 28.0598 43.9027 28.1336 43.7489C28.2074 43.5951 28.2419 43.4254 28.2338 43.255C28.2338 42.867 27.9544 42.5915 27.4577 42.3781C26.961 42.1646 26.5225 41.99 26.0568 41.8193C25.8281 41.701 25.64 41.5169 25.5169 41.2908C25.3937 41.0646 25.3413 40.8067 25.3661 40.5504C25.3703 40.3726 25.4236 40.1994 25.5201 40.0501C25.6167 39.9008 25.7528 39.7811 25.9132 39.7044C26.2565 39.5246 26.6457 39.4516 27.0308 39.4949C27.248 39.5192 27.4573 39.5907 27.6439 39.7044C27.7495 39.7803 27.8698 39.8331 27.997 39.8597C28.1086 39.8286 28.2077 39.7635 28.2803 39.6734L28.3696 40.791C28.2312 40.6164 28.0807 40.4518 27.9194 40.2982C27.6771 40.0296 27.3717 39.8256 27.0308 39.7044C26.934 39.6828 26.8351 39.6724 26.7359 39.6734C26.4516 39.6588 26.1729 39.7563 25.9598 39.945C25.8689 40.0158 25.7975 40.1085 25.752 40.2143C25.7065 40.3201 25.6886 40.4357 25.6999 40.5504C25.7464 40.8841 26.0219 41.1325 26.5342 41.2954C26.9995 41.4178 27.4538 41.5787 27.8923 41.7766C28.134 41.9356 28.3283 42.1569 28.4546 42.4171C28.581 42.6773 28.6347 42.9668 28.6102 43.255Z" fill="white"/>
<path d="M31.9517 43.7478C31.9564 43.7696 31.9564 43.7921 31.9517 43.8138C31.9427 44.0097 31.8736 44.198 31.7538 44.3532C31.6842 44.4589 31.5899 44.546 31.479 44.6068C31.3681 44.6677 31.2439 44.7005 31.1174 44.7024C30.9559 44.7056 30.7963 44.6669 30.6541 44.5901C30.512 44.5132 30.3922 44.4008 30.3064 44.2639C30.1061 43.9552 30.0071 43.5917 30.0232 43.224V39.8247H29.2471V39.4949H30.0232V38.4123L30.6789 38.0824V39.4949H31.8857V39.8247H30.6789V43.224C30.6702 43.4523 30.6924 43.6807 30.7449 43.9031C30.77 43.9991 30.8187 44.0873 30.8864 44.1598C30.9541 44.2322 31.0389 44.2867 31.1329 44.3183C31.1817 44.3405 31.2346 44.3524 31.2882 44.3532C31.5404 44.3532 31.7616 44.1514 31.9517 43.7478Z" fill="white"/>
<path d="M36.9925 43.6043C37.0439 43.6954 37.0706 43.7984 37.0701 43.9031C37.0676 44.106 36.9902 44.3009 36.8528 44.4502C36.7908 44.5279 36.7123 44.5907 36.6231 44.6343C36.5338 44.6779 36.436 44.7012 36.3367 44.7024C36.2528 44.7112 36.1681 44.7021 36.088 44.6758C36.0079 44.6495 35.9342 44.6065 35.8719 44.5497C35.8096 44.4929 35.7601 44.4235 35.7265 44.3462C35.6929 44.2688 35.676 44.1853 35.677 44.101C35.499 44.3005 35.2789 44.4579 35.0327 44.5619C34.7864 44.666 34.52 44.7139 34.2529 44.7024C34.0442 44.73 33.8319 44.7019 33.6377 44.6208C33.4434 44.5397 33.2741 44.4085 33.147 44.2407C32.93 43.9338 32.8184 43.5648 32.8288 43.1891C32.8369 42.9633 32.9106 42.7447 33.0408 42.56C33.171 42.3753 33.3522 42.2326 33.5622 42.1491C34.0017 41.9377 34.4604 41.7688 34.932 41.6447C35.4287 41.4894 35.677 41.3614 35.677 41.2566V40.7638C35.6906 40.4965 35.5986 40.2345 35.4209 40.0343C35.3347 39.945 35.2318 39.8736 35.1179 39.8243C35.004 39.775 34.8814 39.7488 34.7573 39.7471C34.5053 39.7323 34.2562 39.808 34.055 39.9606C33.9582 40.0199 33.8777 40.1024 33.8208 40.2006C33.7639 40.2989 33.7323 40.4097 33.729 40.5232V40.6668C33.7795 40.8725 33.698 40.9734 33.4846 40.9734C33.4357 40.9791 33.3863 40.9695 33.3432 40.9458C33.3001 40.9222 33.2654 40.8857 33.244 40.8414C33.2021 40.7597 33.1796 40.6694 33.178 40.5775C33.1892 40.4264 33.2371 40.2802 33.3175 40.1517C33.398 40.0232 33.5086 39.9163 33.6398 39.8403C33.9653 39.6095 34.3588 39.4947 34.7573 39.5143C35.8102 39.5298 36.3367 39.9464 36.3367 40.7638V43.6121C36.3367 44.0234 36.4453 44.2251 36.6665 44.2174C36.7175 44.2112 36.7667 44.195 36.8113 44.1697C36.8559 44.1444 36.8951 44.1105 36.9265 44.0699C36.9964 43.9887 37.0361 43.886 37.039 43.7789C37.0424 43.7172 37.0261 43.6561 36.9925 43.6043ZM35.677 43.2163V41.6136C34.1869 42.0017 33.4574 42.5488 33.4846 43.2124C33.5117 43.8759 33.7717 44.2717 34.2606 44.2873C34.6084 44.2992 34.95 44.194 35.2307 43.9885C35.3674 43.9069 35.481 43.7917 35.5604 43.6537C35.6399 43.5158 35.6827 43.3599 35.6848 43.2007L35.677 43.2163Z" fill="white"/>
<path d="M42.3621 39.8791H42.0323L39.1763 46.2701C39.0366 46.5806 38.8659 46.7164 38.6602 46.6582C38.4546 46.6 38.311 46.4836 38.311 46.2701C38.3118 46.1809 38.3402 46.0941 38.3924 46.0218C38.4153 45.986 38.4469 45.9565 38.4842 45.9362C38.5215 45.9158 38.5634 45.9052 38.6059 45.9054C38.5399 45.9054 38.633 45.9325 38.8814 45.983C38.9745 45.983 39.0521 45.9403 39.1103 45.8161L39.8554 44.1669L37.9695 39.8325H37.6436V39.6734H39.1957V39.8907H38.6602L40.1852 43.5305L41.8072 39.8907H41.167V39.6734H42.3738L42.3621 39.8791Z" fill="white"/>
<path d="M53.1699 39.8791H52.8634L51.024 44.6365L49.5689 40.8802L48.1292 44.652L46.286 39.8791H45.9795V39.6734H47.392V39.8907H46.8836L48.2922 43.6586L49.4214 40.628L49.1886 39.8907H48.688V39.6734H50.2867V39.8907H49.7823L51.1715 43.6586L52.6383 39.8907H52.0524V39.6734H53.1699V39.8791Z" fill="white"/>
<path d="M58.6487 44.4813H56.8947V44.3726C56.979 44.3696 57.0618 44.3487 57.1374 44.3112C57.213 44.2738 57.2797 44.2206 57.3332 44.1553C57.4161 44.0438 57.4547 43.9056 57.4418 43.7673V41.082C57.4566 40.7384 57.3417 40.4018 57.1198 40.139C57.0163 40.0217 56.8882 39.9286 56.7447 39.8662C56.6012 39.8038 56.4457 39.7738 56.2893 39.7782C55.9981 39.7571 55.7086 39.838 55.4706 40.0071C55.3479 40.1428 55.2552 40.3027 55.1983 40.4765C55.1415 40.6503 55.1219 40.8341 55.1407 41.016V43.7673C55.1366 43.9047 55.1745 44.04 55.2494 44.1553C55.2981 44.2258 55.3638 44.2827 55.4405 44.3207C55.5173 44.3587 55.6024 44.3766 55.6879 44.3726V44.4813H53.9223V44.3726C54.0067 44.3701 54.0896 44.3494 54.1653 44.3119C54.241 44.2744 54.3077 44.221 54.3608 44.1553C54.4437 44.0438 54.4824 43.9056 54.4694 43.7673V37.6828H53.6934L55.1174 37.0037V40.1934C55.2359 39.9861 55.4046 39.8121 55.6081 39.6873C55.8116 39.5625 56.0432 39.491 56.2816 39.4794C56.7276 39.4364 57.1735 39.5625 57.5311 39.8325C57.7161 39.9794 57.8634 40.1683 57.9606 40.3836C58.0578 40.599 58.1021 40.8344 58.0899 41.0703V43.7556C58.0871 43.8934 58.1264 44.0287 58.2024 44.1437C58.251 44.2141 58.3168 44.271 58.3935 44.309C58.4702 44.347 58.5554 44.3649 58.6409 44.3609L58.6487 44.4813Z" fill="white"/>
<path d="M63.2815 41.633H60.1034C60.0814 41.812 60.071 41.9921 60.0724 42.1724C60.0724 43.4064 60.5031 44.0674 61.3646 44.1553C61.7794 44.2071 62.1979 44.0927 62.5287 43.8371C62.684 43.7115 62.8154 43.5591 62.9167 43.387L63.103 43.5849C62.9418 43.94 62.6758 44.2374 62.3408 44.4371C62.0059 44.6369 61.6178 44.7294 61.2287 44.7024C60.8977 44.6998 60.5746 44.6008 60.2989 44.4175C60.0233 44.2342 59.807 43.9745 59.6766 43.6703C59.3846 43.0675 59.26 42.3974 59.3157 41.7301C59.3324 41.126 59.5746 40.5501 59.9948 40.1158C60.1861 39.9138 60.4174 39.754 60.674 39.6464C60.9305 39.5388 61.2067 39.486 61.4848 39.491C61.8215 39.4872 62.1511 39.5872 62.4288 39.7775C62.7066 39.9677 62.919 40.239 63.037 40.5543C63.1924 40.893 63.2756 41.2604 63.2815 41.633ZM62.6373 41.3032C62.6237 41.0352 62.5605 40.7721 62.4511 40.5271C62.3865 40.3099 62.2557 40.1183 62.0769 39.9792C61.898 39.84 61.6802 39.7602 61.4538 39.751C61.215 39.7533 60.9826 39.829 60.7882 39.9678C60.5938 40.1066 60.4469 40.3019 60.3673 40.5271C60.2315 40.7735 60.1495 41.046 60.1267 41.3265L62.6373 41.3032Z" fill="white"/>
<path d="M67.4029 40.0343C67.4029 40.2245 67.2554 40.3292 67.0148 40.3525C66.8808 40.3791 66.7417 40.3527 66.6268 40.2788C66.5284 40.1789 66.4622 40.0518 66.4367 39.914C66.4134 39.8325 66.3397 39.7937 66.2155 39.7937C65.9817 39.8034 65.7612 39.9052 65.6024 40.077C65.4861 40.1907 65.395 40.3274 65.3349 40.4785C65.2747 40.6295 65.2469 40.7915 65.2531 40.954V43.7712C65.249 43.9085 65.2869 44.0439 65.3618 44.1592C65.4104 44.2297 65.4762 44.2865 65.5529 44.3246C65.6296 44.3626 65.7147 44.3804 65.8003 44.3765V44.4851H64.0463V44.3765C64.1307 44.374 64.2137 44.3533 64.2894 44.3158C64.365 44.2783 64.4317 44.2249 64.4848 44.1592C64.5677 44.0477 64.6064 43.9095 64.5935 43.7712V40.1546H63.8174L65.2415 39.4949V40.271C65.2842 40.1197 65.4665 39.9489 65.7886 39.7665C66.0849 39.5856 66.4272 39.494 66.7743 39.5027C67.2244 39.526 67.4339 39.7045 67.4029 40.0343Z" fill="white"/>
<path d="M72.0399 41.633H68.8618C68.8364 41.8117 68.8247 41.992 68.8269 42.1724C68.8269 43.4064 69.2589 44.0674 70.123 44.1553C70.3284 44.1816 70.537 44.167 70.7368 44.1124C70.9366 44.0578 71.1236 43.9642 71.2871 43.8371C71.4412 43.7103 71.5724 43.558 71.6751 43.387L71.8614 43.5849C71.7002 43.94 71.4342 44.2374 71.0992 44.4371C70.7643 44.6369 70.3762 44.7294 69.9872 44.7024C69.656 44.7003 69.3327 44.6015 69.0569 44.4181C68.7812 44.2347 68.565 43.9748 68.435 43.6703C68.1393 43.0688 68.0144 42.3976 68.0741 41.7301C68.0889 41.1256 68.3314 40.549 68.7532 40.1158C68.9441 39.9133 69.1753 39.753 69.432 39.6454C69.6887 39.5378 69.965 39.4852 70.2433 39.4911C70.5799 39.4872 70.9095 39.5872 71.1873 39.7775C71.465 39.9677 71.6774 40.239 71.7955 40.5543C71.9501 40.8933 72.0332 41.2605 72.0399 41.633ZM71.3919 41.3032C71.3782 41.0352 71.3151 40.7721 71.2056 40.5271C71.1421 40.3093 71.0115 40.1171 70.8325 39.9778C70.6535 39.8384 70.4351 39.7591 70.2083 39.751C69.9695 39.7533 69.7371 39.829 69.5428 39.9678C69.3484 40.1066 69.2014 40.3019 69.1218 40.5271C68.986 40.7735 68.9041 41.046 68.8813 41.3265L71.3919 41.3032Z" fill="white"/>
<path d="M79.6225 41.633H76.4289C76.405 41.8118 76.3946 41.9921 76.3979 42.1724C76.3979 43.4064 76.8286 44.0674 77.69 44.1553C77.8955 44.1827 78.1044 44.1686 78.3043 44.114C78.5042 44.0593 78.6912 43.9652 78.8542 43.8371C79.0092 43.7112 79.1406 43.5588 79.2422 43.387L79.4285 43.5849C79.272 43.9364 79.0131 44.2326 78.6857 44.4347C78.3582 44.6369 77.9774 44.7356 77.593 44.718C77.2619 44.7158 76.9386 44.617 76.6628 44.4337C76.3871 44.2503 76.1709 43.9903 76.0409 43.6858C75.7489 43.083 75.6242 42.4129 75.68 41.7455C75.6966 41.1415 75.9389 40.5656 76.359 40.1313C76.5499 39.9288 76.7812 39.7686 77.0379 39.661C77.2945 39.5533 77.5709 39.5007 77.8491 39.5065C78.1859 39.5021 78.5158 39.602 78.7936 39.7923C79.0715 39.9826 79.2837 40.2542 79.4013 40.5698C79.5459 40.9057 79.6211 41.2674 79.6225 41.633ZM78.9745 41.3032C78.9608 41.0352 78.8976 40.7721 78.7882 40.5271C78.7247 40.3093 78.5941 40.1171 78.4151 39.9778C78.2361 39.8384 78.0177 39.7591 77.7909 39.751C77.5527 39.7541 77.3212 39.8301 77.1276 39.9689C76.934 40.1077 76.7877 40.3025 76.7083 40.5271C76.571 40.7729 76.4889 41.0457 76.4677 41.3265L78.9745 41.3032Z" fill="white"/>
<path d="M84.9657 39.8791H84.6359L82.6103 44.6481L80.5808 39.8791H80.2549V39.6734H81.7877V39.8907H81.225L82.816 43.6935L84.4225 39.8907H83.7589V39.6734H84.9657V39.8791Z" fill="white"/>
<path d="M89.6225 41.633H86.4444C86.419 41.8117 86.4073 41.992 86.4095 42.1724C86.4095 43.4064 86.8402 44.0674 87.7017 44.1553C88.1165 44.2071 88.535 44.0927 88.8658 43.8371C89.0211 43.7115 89.1525 43.5591 89.2538 43.387L89.4401 43.5849C89.2795 43.9397 89.0143 44.2369 88.68 44.4367C88.3457 44.6364 87.9582 44.7291 87.5697 44.7024C87.2386 44.7003 86.9153 44.6015 86.6395 44.4181C86.3638 44.2347 86.1476 43.9748 86.0175 43.6703C85.7224 43.0685 85.5963 42.3979 85.6528 41.7301C85.6705 41.1255 85.9142 40.5495 86.3358 40.1158C86.5267 39.9133 86.7579 39.753 87.0146 39.6454C87.2712 39.5378 87.5476 39.4852 87.8258 39.4911C88.1625 39.4872 88.4921 39.5872 88.7698 39.7775C89.0476 39.9677 89.26 40.239 89.378 40.5543C89.5326 40.8933 89.6158 41.2605 89.6225 41.633ZM88.9744 41.3032C88.9608 41.0352 88.8976 40.7721 88.7882 40.5271C88.7247 40.3093 88.5941 40.1171 88.4151 39.9778C88.2361 39.8384 88.0176 39.7591 87.7909 39.751C87.5521 39.7533 87.3197 39.829 87.1253 39.9678C86.931 40.1066 86.784 40.3019 86.7044 40.5271C86.5686 40.7735 86.4866 41.046 86.4638 41.3265L88.9744 41.3032Z" fill="white"/>
<path d="M95.3036 44.4812H93.5496V44.3726C93.6342 44.3706 93.7172 44.3502 93.793 44.3126C93.8688 44.2751 93.9354 44.2214 93.9881 44.1553C94.0727 44.0445 94.1129 43.9061 94.1007 43.7673V41.082C94.1078 40.9076 94.0791 40.7336 94.0164 40.5708C93.9537 40.4079 93.8582 40.2596 93.7359 40.1351C93.6218 40.0116 93.4831 39.9132 93.3287 39.8464C93.1743 39.7796 93.0077 39.7457 92.8395 39.7471C91.9962 39.7471 91.5758 40.1597 91.5784 40.985V43.7478C91.5743 43.8852 91.6121 44.0206 91.687 44.1359C91.7362 44.2058 91.8021 44.2623 91.8787 44.3003C91.9552 44.3382 92.0401 44.3564 92.1255 44.3532V44.4618H90.3716V44.3532C90.4561 44.3512 90.5391 44.3307 90.6149 44.2932C90.6907 44.2556 90.7573 44.202 90.8101 44.1359C90.8947 44.0251 90.9348 43.8867 90.9226 43.7478V40.1313H90.1465L91.5706 39.4716V40.1856C91.713 39.9788 91.9005 39.8071 92.119 39.6834C92.3375 39.5597 92.5812 39.4873 92.8318 39.4716C93.3024 39.4236 93.7743 39.5492 94.1588 39.8247C94.3513 39.9667 94.5058 40.1539 94.6087 40.3699C94.7116 40.5858 94.7596 40.8237 94.7487 41.0626V43.7478C94.7464 43.885 94.7842 44.0198 94.8573 44.1359C94.9065 44.2058 94.9723 44.2623 95.0489 44.3003C95.1255 44.3382 95.2104 44.3564 95.2958 44.3532L95.3036 44.4812Z" fill="white"/>
<path d="M103.979 43.8371L102.555 44.7024V43.6392C102.468 43.9381 102.289 44.2018 102.043 44.3927C101.797 44.5837 101.497 44.692 101.186 44.7024C100.962 44.7294 100.736 44.7026 100.526 44.6243C100.315 44.546 100.126 44.4185 99.9748 44.2523C99.6396 43.8818 99.4651 43.3933 99.4898 42.8942V40.3719C99.4846 40.2552 99.444 40.1428 99.3733 40.0498C99.2285 39.8987 99.0372 39.8004 98.8301 39.7704V39.6734H100.146V42.9058C100.127 43.2674 100.219 43.6259 100.409 43.9341C100.485 44.0735 100.597 44.1893 100.734 44.2688C100.871 44.3482 101.027 44.3882 101.186 44.3843C101.365 44.3888 101.544 44.3567 101.71 44.29C101.877 44.2233 102.029 44.1234 102.156 43.9962C102.285 43.8628 102.386 43.7046 102.452 43.5313C102.519 43.3579 102.55 43.1729 102.544 42.9873V40.3991C102.544 40.2815 102.506 40.167 102.435 40.0731C102.353 39.9807 102.247 39.9123 102.128 39.8752C102.051 39.8409 101.971 39.8148 101.888 39.7976V39.6734H103.203V43.8371H103.979Z" fill="white"/>
<path d="M109.552 44.4812H107.798V44.3726C107.882 44.3696 107.965 44.3487 108.04 44.3112C108.116 44.2738 108.183 44.2206 108.236 44.1553C108.319 44.0438 108.358 43.9056 108.345 43.7673V41.082C108.351 40.908 108.323 40.7344 108.261 40.5717C108.199 40.409 108.105 40.2605 107.984 40.1351C107.869 40.0116 107.729 39.9134 107.574 39.8466C107.42 39.7798 107.252 39.7459 107.084 39.7471C106.245 39.7471 105.822 40.1584 105.822 40.985V43.7478C105.82 43.8856 105.859 44.0209 105.935 44.1359C105.984 44.2063 106.049 44.2632 106.126 44.3012C106.203 44.3393 106.288 44.3572 106.374 44.3532V44.4618H104.62V44.3532C104.704 44.3502 104.787 44.3293 104.862 44.2918C104.938 44.2543 105.005 44.2012 105.058 44.1359C105.141 44.0244 105.18 43.8862 105.167 43.7478V40.1313H104.391L105.815 39.4716V40.1856C105.957 39.979 106.145 39.8075 106.363 39.6838C106.582 39.5601 106.825 39.4876 107.076 39.4716C107.546 39.4236 108.018 39.5492 108.403 39.8247C108.596 39.9662 108.751 40.1534 108.854 40.3694C108.957 40.5854 109.004 40.8236 108.993 41.0626V43.7478C108.99 43.8856 109.029 44.0209 109.105 44.1359C109.154 44.2063 109.22 44.2632 109.296 44.3012C109.373 44.3393 109.458 44.3572 109.544 44.3532L109.552 44.4812Z" fill="white"/>
<path d="M114.069 41.633H110.891C110.867 41.8118 110.856 41.9921 110.859 42.1724C110.859 43.4064 111.29 44.0674 112.152 44.1553C112.357 44.1827 112.566 44.1686 112.766 44.114C112.966 44.0593 113.153 43.9652 113.316 43.8371C113.471 43.7112 113.602 43.5588 113.704 43.387L113.89 43.5849C113.729 43.94 113.463 44.2374 113.128 44.4371C112.793 44.6369 112.405 44.7294 112.016 44.7024C111.685 44.7003 111.361 44.6015 111.086 44.4181C110.81 44.2347 110.594 43.9748 110.464 43.6703C110.172 43.0676 110.047 42.3974 110.103 41.7301C110.119 41.126 110.362 40.5501 110.782 40.1158C110.973 39.9133 111.204 39.753 111.461 39.6454C111.717 39.5378 111.994 39.4852 112.272 39.4911C112.609 39.4867 112.939 39.5864 113.216 39.7768C113.494 39.9671 113.707 40.2387 113.824 40.5543C113.979 40.8933 114.062 41.2605 114.069 41.633ZM113.421 41.3032C113.407 41.0352 113.344 40.7721 113.234 40.5271C113.171 40.3093 113.04 40.1171 112.861 39.9778C112.682 39.8384 112.464 39.7591 112.237 39.751C111.999 39.7541 111.767 39.8301 111.574 39.9689C111.38 40.1077 111.234 40.3025 111.154 40.5271C111.017 40.7729 110.935 41.0457 110.914 41.3265L113.421 41.3032Z" fill="white"/>
<path d="M118.997 44.4813H117.681V44.2639H118.011L116.727 42.3237L115.299 44.2639H115.928V44.4813H114.725V44.2639H115.051L116.603 42.153L115.051 39.8791H114.721V39.6734H116.036V39.8907H115.706L116.956 41.699L118.337 39.8907H117.786V39.6734H118.993V39.8907H118.555L117.064 41.862L118.663 44.2717H118.993L118.997 44.4813Z" fill="white"/>
<path d="M124.367 42.0017C124.409 42.7098 124.217 43.4122 123.82 44.0001C123.65 44.2312 123.426 44.4174 123.168 44.5425C122.91 44.6676 122.625 44.7278 122.338 44.718C122.044 44.7289 121.754 44.649 121.507 44.489C121.293 44.3213 121.11 44.1162 120.968 43.8837V45.9869C120.965 46.1247 121.004 46.2603 121.081 46.3749C121.128 46.4464 121.194 46.5042 121.271 46.543C121.348 46.5817 121.433 46.6 121.519 46.5961V46.7047H119.765V46.5961C119.85 46.5934 119.933 46.5722 120.009 46.534C120.085 46.4958 120.151 46.4415 120.204 46.3749C120.288 46.2641 120.327 46.1253 120.312 45.9869V40.1662H119.536L120.96 39.5065V40.1895C121.121 39.9778 121.328 39.8061 121.565 39.6876C121.803 39.5691 122.065 39.5071 122.33 39.5065C122.612 39.4963 122.893 39.5495 123.151 39.6624C123.41 39.7752 123.64 39.9448 123.824 40.1585C124.217 40.6896 124.409 41.3424 124.367 42.0017ZM123.708 42.0017C123.732 41.465 123.62 40.9309 123.382 40.4495C123.282 40.2592 123.132 40.1002 122.948 39.9899C122.764 39.8797 122.553 39.8225 122.338 39.8248C121.426 39.8248 120.968 40.2128 120.968 41.0432V42.8942C120.951 43.1202 120.987 43.347 121.073 43.5565C121.159 43.7661 121.293 43.9526 121.465 44.101C121.709 44.3028 122.021 44.404 122.338 44.3843C122.568 44.3738 122.79 44.2967 122.978 44.1624C123.165 44.0281 123.309 43.8423 123.393 43.6275C123.62 43.1166 123.728 42.5605 123.708 42.0017Z" fill="white"/>
<path d="M129.004 41.633H125.822C125.8 41.812 125.79 41.9921 125.791 42.1724C125.791 43.4063 126.222 44.0674 127.083 44.1553C127.498 44.2071 127.917 44.0927 128.248 43.8371C128.403 43.7115 128.534 43.5591 128.636 43.3869L128.822 43.5849C128.661 43.94 128.395 44.2374 128.06 44.4371C127.725 44.6368 127.337 44.7294 126.948 44.7024C126.616 44.7008 126.293 44.6022 126.017 44.4187C125.741 44.2353 125.525 43.9751 125.395 43.6703C125.1 43.0685 124.974 42.3979 125.031 41.73C125.049 41.1263 125.291 40.5509 125.71 40.1158C125.902 39.9135 126.134 39.7535 126.391 39.646C126.648 39.5384 126.925 39.4856 127.204 39.491C127.54 39.4872 127.87 39.5872 128.148 39.7775C128.426 39.9677 128.638 40.239 128.756 40.5543C128.912 40.893 128.996 41.2602 129.004 41.633ZM128.356 41.3032C128.343 41.0352 128.279 40.7721 128.17 40.5271C128.106 40.3096 127.975 40.1177 127.796 39.9785C127.617 39.8392 127.399 39.7596 127.173 39.751C126.934 39.7533 126.702 39.829 126.507 39.9678C126.313 40.1066 126.166 40.3019 126.086 40.5271C125.95 40.7735 125.868 41.046 125.846 41.3265L128.356 41.3032Z" fill="white"/>
<path d="M133.471 41.1635C133.172 41.1635 133.021 41.0354 133.021 40.7754C133.026 40.6985 133.036 40.622 133.052 40.5465C133.068 40.4855 133.068 40.4213 133.052 40.3602C133.05 40.3283 133.038 40.2976 133.019 40.2721C133 40.2466 132.973 40.2273 132.943 40.2167C132.811 40.1352 132.679 40.0576 132.555 39.9877C132.395 39.896 132.211 39.8528 132.027 39.8635C131.781 39.8806 131.542 39.9513 131.326 40.0706C131.11 40.1899 130.923 40.355 130.778 40.5543C130.463 40.9539 130.297 41.4504 130.308 41.959C130.294 42.5322 130.484 43.0917 130.844 43.5383C131.017 43.7611 131.24 43.9402 131.494 44.0615C131.749 44.1828 132.028 44.2428 132.311 44.2368C132.633 44.2375 132.95 44.1477 133.224 43.9776C133.499 43.8075 133.72 43.5639 133.863 43.2744C133.521 44.2174 132.92 44.6908 132.066 44.6985C131.738 44.7139 131.411 44.6577 131.108 44.5337C130.804 44.4097 130.531 44.221 130.308 43.9807C129.831 43.4189 129.589 42.6947 129.633 41.959C129.629 41.643 129.689 41.3296 129.808 41.037C129.927 40.7444 130.104 40.4787 130.328 40.2555C130.543 40.0243 130.804 39.8401 131.093 39.7146C131.383 39.589 131.696 39.5248 132.012 39.5259C132.517 39.4912 133.018 39.6279 133.436 39.914C133.572 40.0022 133.685 40.122 133.766 40.2631C133.846 40.4043 133.891 40.5627 133.898 40.725C133.906 40.7834 133.9 40.843 133.882 40.899C133.863 40.9551 133.832 41.0062 133.791 41.0485C133.75 41.0907 133.7 41.1231 133.644 41.143C133.589 41.1629 133.529 41.1699 133.471 41.1635Z" fill="white"/>
<path d="M137.309 43.7478C137.314 43.7696 137.314 43.7921 137.309 43.8138C137.3 44.0097 137.231 44.198 137.111 44.3532C137.042 44.4589 136.947 44.546 136.836 44.6068C136.725 44.6677 136.601 44.7005 136.475 44.7024C136.313 44.7056 136.154 44.6669 136.012 44.5901C135.869 44.5132 135.75 44.4008 135.664 44.2639C135.464 43.9552 135.365 43.5917 135.381 43.224V39.8247H134.604V39.4949H135.381V38.4123L136.036 38.0824V39.4949H137.243V39.8247H136.036V43.224C136.028 43.4523 136.05 43.6807 136.102 43.9031C136.127 43.9991 136.176 44.0873 136.244 44.1598C136.312 44.2322 136.396 44.2867 136.49 44.3183C136.539 44.3405 136.592 44.3524 136.646 44.3532C136.898 44.3532 137.119 44.1514 137.309 43.7478Z" fill="white"/>
<path d="M142.163 41.633H138.985C138.963 41.812 138.953 41.9921 138.954 42.1724C138.954 43.4064 139.385 44.0674 140.246 44.1553C140.452 44.1827 140.661 44.1686 140.861 44.114C141.061 44.0593 141.248 43.9652 141.41 43.8371C141.565 43.7112 141.697 43.5588 141.799 43.387L141.985 43.5849C141.824 43.94 141.558 44.2374 141.223 44.4371C140.888 44.6369 140.5 44.7294 140.111 44.7024C139.78 44.6998 139.456 44.6008 139.181 44.4175C138.905 44.2342 138.689 43.9745 138.558 43.6703C138.266 43.0676 138.142 42.3974 138.198 41.7301C138.214 41.126 138.456 40.5501 138.877 40.1158C139.068 39.9133 139.299 39.753 139.555 39.6454C139.812 39.5378 140.088 39.4852 140.367 39.4911C140.704 39.4861 141.034 39.5857 141.312 39.7761C141.59 39.9665 141.802 40.2384 141.919 40.5543C142.076 40.8925 142.159 41.2602 142.163 41.633ZM141.519 41.3032C141.506 41.0352 141.442 40.7721 141.333 40.5271C141.268 40.3099 141.138 40.1183 140.959 39.9792C140.78 39.84 140.562 39.7602 140.336 39.751C140.097 39.7533 139.864 39.829 139.67 39.9678C139.476 40.1066 139.329 40.3019 139.249 40.5271C139.113 40.7735 139.031 41.046 139.009 41.3265L141.519 41.3032Z" fill="white"/>
<path d="M147.63 43.8254L146.206 44.7024V43.8022C146.085 44.0651 145.892 44.2888 145.65 44.4479C145.408 44.607 145.126 44.6951 144.836 44.7024C144.547 44.7077 144.261 44.6418 144.003 44.5105C143.745 44.3792 143.524 44.1866 143.358 43.9496C142.972 43.3785 142.78 42.6982 142.811 42.0094C142.811 40.346 143.486 39.513 144.836 39.5104C145.119 39.4993 145.4 39.5524 145.659 39.6656C145.863 39.7923 146.047 39.9479 146.206 40.1274V37.7022H145.329L146.881 37.0347V43.841L147.63 43.8254ZM146.206 42.9485V41.0975C146.206 40.2361 145.756 39.8092 144.848 39.8248C144.629 39.8227 144.414 39.881 144.227 39.9932C144.039 40.1055 143.886 40.2675 143.785 40.4612C143.55 40.9434 143.44 41.4774 143.467 42.0133C143.446 42.5851 143.563 43.1534 143.808 43.6703C143.892 43.8803 144.034 44.0614 144.219 44.1916C144.404 44.3218 144.622 44.3955 144.848 44.4036C145.182 44.4207 145.509 44.3065 145.76 44.0855C145.916 43.9425 146.037 43.7657 146.115 43.5687C146.192 43.3716 146.223 43.1595 146.206 42.9485Z" fill="white"/>
<path d="M153.331 44.4813H151.577V44.3726C151.661 44.3701 151.744 44.3494 151.82 44.3119C151.895 44.2744 151.962 44.221 152.015 44.1553C152.098 44.0438 152.137 43.9056 152.124 43.7673V40.1507H151.348L152.772 39.4911V43.7595C152.768 43.8969 152.806 44.0323 152.88 44.1476C152.929 44.218 152.995 44.2749 153.072 44.3129C153.148 44.3509 153.233 44.3688 153.319 44.3648L153.331 44.4813ZM152.457 38.7848C152.236 38.7848 152.124 38.68 152.124 38.4666C152.124 38.2532 152.232 38.1251 152.45 38.1251C152.495 38.1188 152.541 38.1229 152.584 38.1372C152.627 38.1514 152.666 38.1755 152.698 38.2074C152.731 38.2393 152.755 38.2783 152.77 38.3212C152.785 38.3641 152.789 38.4099 152.783 38.455C152.79 38.4994 152.786 38.5448 152.772 38.5874C152.758 38.6301 152.734 38.6689 152.702 38.7008C152.671 38.7327 152.632 38.757 152.59 38.7715C152.547 38.7861 152.502 38.7906 152.457 38.7848Z" fill="white"/>
<path d="M157.386 43.255C157.383 43.4493 157.337 43.6405 157.253 43.8154C157.169 43.9904 157.047 44.1447 156.897 44.2678C156.591 44.5581 156.185 44.7181 155.764 44.7141C155.66 44.7139 155.558 44.7022 155.457 44.6792C155.212 44.6346 154.978 44.5451 154.766 44.4153C154.559 44.2989 154.43 44.2484 154.378 44.2639C154.227 44.2989 154.107 44.4386 154.029 44.6792L153.982 43.0571C153.982 43.255 154.188 43.546 154.599 43.9225C154.866 44.2313 155.235 44.4338 155.639 44.4929C155.987 44.4896 156.323 44.3631 156.586 44.1359C156.724 44.0357 156.835 43.9027 156.909 43.7489C156.983 43.5951 157.017 43.4254 157.009 43.255C157.009 42.867 156.73 42.5915 156.233 42.3781C155.736 42.1646 155.298 41.99 154.832 41.8193C154.604 41.7002 154.417 41.516 154.294 41.29C154.171 41.064 154.118 40.8066 154.142 40.5504C154.146 40.3726 154.199 40.1994 154.296 40.0501C154.392 39.9008 154.528 39.7811 154.689 39.7044C155.032 39.5246 155.421 39.4516 155.806 39.4949C156.024 39.5203 156.235 39.5917 156.423 39.7044C156.527 39.7806 156.646 39.8335 156.772 39.8597C156.884 39.8296 156.984 39.7643 157.056 39.6734L157.145 40.791C157.007 40.6164 156.856 40.4518 156.695 40.2982C156.453 40.0289 156.148 39.8247 155.806 39.7044C155.709 39.6828 155.611 39.6724 155.511 39.6734C155.227 39.6588 154.948 39.7563 154.735 39.945C154.644 40.0158 154.573 40.1085 154.527 40.2143C154.482 40.3201 154.464 40.4357 154.475 40.5504C154.522 40.8841 154.797 41.1325 155.31 41.2954C155.775 41.4178 156.229 41.5787 156.668 41.7766C156.909 41.9356 157.104 42.1569 157.23 42.4171C157.356 42.6773 157.41 42.9668 157.386 43.255Z" fill="white"/>
<path d="M164.979 41.633H161.798C161.772 41.8117 161.76 41.992 161.763 42.1724C161.763 43.4064 162.197 44.0661 163.059 44.1553C163.264 44.1827 163.473 44.1686 163.673 44.114C163.873 44.0593 164.06 43.9652 164.223 43.8371C164.377 43.7103 164.508 43.558 164.611 43.387L164.797 43.5849C164.636 43.94 164.37 44.2374 164.035 44.4371C163.7 44.6369 163.312 44.7294 162.923 44.7024C162.592 44.7003 162.268 44.6015 161.993 44.4181C161.717 44.2347 161.501 43.9748 161.371 43.6703C161.077 43.0682 160.952 42.3975 161.01 41.7301C161.026 41.126 161.269 40.5501 161.689 40.1158C161.88 39.9133 162.111 39.753 162.368 39.6454C162.624 39.5378 162.901 39.4852 163.179 39.4911C163.516 39.4867 163.846 39.5864 164.123 39.7768C164.401 39.9671 164.614 40.2387 164.731 40.5543C164.887 40.893 164.972 41.2602 164.979 41.633ZM164.331 41.3032C164.318 41.0352 164.255 40.7721 164.145 40.5271C164.082 40.3093 163.951 40.1171 163.772 39.9778C163.593 39.8384 163.375 39.7591 163.148 39.751C162.91 39.7541 162.678 39.8301 162.485 39.9689C162.291 40.1077 162.145 40.3025 162.065 40.5271C161.928 40.7729 161.846 41.0457 161.825 41.3265L164.331 41.3032Z" fill="white"/>
<path d="M169.9 44.4813H168.585V44.2639H168.915L167.63 42.3237L166.202 44.2639H166.843V44.4813H165.64V44.2639H165.966L167.518 42.153L165.966 39.8791H165.636V39.6734H166.947V39.8907H166.621L167.871 41.699L169.252 39.8907H168.701V39.6734H169.908V39.8907H169.47L167.98 41.862L169.578 44.2717H169.908L169.9 44.4813Z" fill="white"/>
<path d="M175.271 42.0017C175.313 42.7098 175.12 43.4122 174.723 44.0001C174.553 44.2305 174.329 44.4161 174.07 44.5411C173.812 44.6661 173.528 44.7268 173.241 44.718C172.947 44.7289 172.657 44.649 172.411 44.489C172.196 44.3212 172.013 44.1162 171.871 43.8837V45.9869C171.868 46.1247 171.907 46.2603 171.984 46.3749C172.032 46.4463 172.097 46.5042 172.174 46.543C172.251 46.5817 172.336 46.6 172.422 46.5961V46.7047H170.668V46.5961C170.753 46.5934 170.836 46.5722 170.912 46.534C170.988 46.4958 171.054 46.4415 171.107 46.3749C171.189 46.2632 171.228 46.1252 171.216 45.9869V40.1662H170.439L171.864 39.5065V40.1895C172.024 39.9778 172.231 39.806 172.468 39.6876C172.706 39.5691 172.968 39.5071 173.233 39.5065C173.515 39.4957 173.795 39.5488 174.053 39.6617C174.311 39.7746 174.54 39.9444 174.723 40.1585C175.119 40.6883 175.313 41.3418 175.271 42.0017ZM174.611 42.0017C174.636 41.465 174.524 40.9309 174.285 40.4495C174.186 40.2592 174.035 40.1002 173.851 39.9899C173.667 39.8797 173.456 39.8225 173.241 39.8248C172.329 39.8248 171.871 40.2128 171.871 41.0432V42.8942C171.854 43.1198 171.89 43.3462 171.975 43.5557C172.061 43.7651 172.194 43.9518 172.364 44.101C172.61 44.3023 172.924 44.4035 173.241 44.3842C173.472 44.3765 173.695 44.3004 173.882 44.1657C174.069 44.031 174.212 43.8437 174.293 43.6275C174.52 43.1169 174.627 42.5603 174.603 42.0017H174.611Z" fill="white"/>
<path d="M179.907 41.633H176.726C176.704 41.812 176.693 41.9921 176.694 42.1724C176.694 43.4064 177.125 44.0674 177.987 44.1553C178.401 44.2071 178.82 44.0927 179.151 43.8371C179.306 43.7115 179.438 43.5591 179.539 43.387L179.725 43.5849C179.564 43.94 179.298 44.2374 178.963 44.4371C178.628 44.6369 178.24 44.7294 177.851 44.7024C177.52 44.6998 177.197 44.6008 176.921 44.4175C176.645 44.2342 176.429 43.9745 176.299 43.6703C176.007 43.0675 175.882 42.3974 175.938 41.7301C175.956 41.1263 176.198 40.5509 176.617 40.1158C176.808 39.9138 177.04 39.754 177.296 39.6464C177.553 39.5388 177.829 39.486 178.107 39.491C178.444 39.4872 178.773 39.5872 179.051 39.7775C179.329 39.9677 179.541 40.239 179.659 40.5543C179.815 40.893 179.9 41.2602 179.907 41.633ZM179.259 41.3032C179.246 41.0352 179.183 40.7721 179.073 40.5271C179.009 40.3096 178.878 40.1177 178.7 39.9785C178.521 39.8392 178.302 39.7596 178.076 39.751C177.837 39.7533 177.605 39.829 177.41 39.9678C177.216 40.1066 177.069 40.3019 176.989 40.5271C176.854 40.7735 176.772 41.046 176.749 41.3265L179.259 41.3032Z" fill="white"/>
<path d="M184.378 41.1635C184.075 41.1635 183.928 41.0354 183.928 40.7754C183.933 40.6985 183.943 40.622 183.959 40.5465C183.975 40.4855 183.975 40.4213 183.959 40.3602C183.956 40.3284 183.945 40.298 183.926 40.2725C183.906 40.2471 183.88 40.2277 183.85 40.2167C183.718 40.1352 183.586 40.0576 183.462 39.9877C183.304 39.8957 183.121 39.8525 182.938 39.8635C182.692 39.8806 182.453 39.9513 182.237 40.0706C182.021 40.1899 181.834 40.355 181.689 40.5543C181.373 40.9535 181.206 41.45 181.215 41.959C181.203 42.5326 181.394 43.0921 181.755 43.5383C181.928 43.7611 182.151 43.9402 182.405 44.0615C182.66 44.1828 182.94 44.2428 183.222 44.2368C183.544 44.237 183.861 44.1471 184.135 43.977C184.409 43.807 184.63 43.5636 184.774 43.2744C184.432 44.2174 183.831 44.6908 182.977 44.6985C182.649 44.7144 182.322 44.6585 182.019 44.5344C181.715 44.4104 181.442 44.2214 181.219 43.9807C180.742 43.4189 180.5 42.6947 180.544 41.959C180.54 41.643 180.6 41.3296 180.719 41.037C180.838 40.7444 181.015 40.4787 181.239 40.2555C181.454 40.0243 181.715 39.8401 182.004 39.7146C182.294 39.589 182.607 39.5248 182.923 39.5259C183.428 39.4912 183.929 39.6279 184.347 39.914C184.483 40.0022 184.596 40.122 184.677 40.2631C184.757 40.4043 184.802 40.5627 184.809 40.725C184.817 40.7838 184.811 40.8437 184.793 40.9001C184.774 40.9564 184.743 41.0078 184.701 41.0502C184.66 41.0925 184.609 41.1247 184.553 41.1444C184.497 41.164 184.437 41.1706 184.378 41.1635Z" fill="white"/>
<path d="M188.212 43.7478C188.217 43.7696 188.217 43.7921 188.212 43.8138C188.203 44.0097 188.134 44.198 188.015 44.3532C187.945 44.4589 187.851 44.546 187.74 44.6068C187.629 44.6677 187.505 44.7005 187.378 44.7024C187.217 44.7056 187.057 44.6669 186.915 44.5901C186.773 44.5132 186.653 44.4008 186.567 44.2639C186.367 43.9552 186.268 43.5917 186.284 43.224V39.8247H185.508V39.4949H186.284V38.4123L186.94 38.0824V39.4949H188.147V39.8247H186.94V43.224C186.931 43.4523 186.953 43.6807 187.006 43.9031C187.031 43.9991 187.079 44.0873 187.147 44.1598C187.215 44.2322 187.3 44.2867 187.394 44.3183C187.442 44.3405 187.495 44.3524 187.549 44.3532C187.797 44.3532 188.022 44.1514 188.212 43.7478Z" fill="white"/>
<path d="M193.067 41.633H189.889C189.865 41.8118 189.854 41.9921 189.858 42.1724C189.858 43.4064 190.288 44.0674 191.15 44.1553C191.355 44.1827 191.564 44.1686 191.764 44.114C191.964 44.0593 192.151 43.9652 192.314 43.8371C192.476 43.713 192.614 43.5604 192.721 43.387L192.908 43.5849C192.746 43.94 192.481 44.2374 192.146 44.4371C191.811 44.6369 191.422 44.7294 191.033 44.7024C190.702 44.6998 190.379 44.6008 190.104 44.4175C189.828 44.2342 189.612 43.9745 189.481 43.6703C189.189 43.0676 189.065 42.3974 189.12 41.7301C189.137 41.126 189.379 40.5501 189.799 40.1158C189.99 39.9133 190.222 39.753 190.478 39.6454C190.735 39.5378 191.011 39.4852 191.29 39.4911C191.626 39.4861 191.957 39.5857 192.235 39.7761C192.512 39.9665 192.725 40.2384 192.842 40.5543C192.992 40.894 193.069 41.2616 193.067 41.633ZM192.423 41.3032C192.407 41.0355 192.344 40.7727 192.236 40.5271C192.172 40.3099 192.041 40.1183 191.862 39.9792C191.683 39.84 191.465 39.7602 191.239 39.751C191 39.7533 190.768 39.829 190.574 39.9678C190.379 40.1066 190.232 40.3019 190.153 40.5271C190.017 40.7735 189.935 41.046 189.912 41.3265L192.423 41.3032Z" fill="white"/>
<path d="M198.534 43.8254L197.11 44.718V43.8177C196.988 44.0807 196.795 44.3043 196.553 44.4634C196.311 44.6225 196.029 44.7107 195.74 44.718C195.45 44.7232 195.164 44.6573 194.907 44.526C194.649 44.3948 194.427 44.2022 194.261 43.9652C193.875 43.394 193.683 42.7137 193.714 42.025C193.714 40.3616 194.389 39.5285 195.74 39.526C196.022 39.5149 196.303 39.568 196.562 39.6812C196.766 39.8078 196.95 39.9633 197.11 40.1429V37.7177H196.233L197.785 37.0502V43.8565L198.534 43.8254ZM197.11 42.9485V41.0975C197.11 40.2361 196.655 39.8092 195.751 39.8248C195.533 39.8227 195.318 39.881 195.13 39.9932C194.943 40.1055 194.79 40.2675 194.688 40.4612C194.451 40.9428 194.342 41.4772 194.37 42.0133C194.349 42.5851 194.466 43.1534 194.711 43.6703C194.795 43.8803 194.938 44.0614 195.122 44.1916C195.307 44.3218 195.526 44.3955 195.751 44.4036C196.084 44.4213 196.41 44.307 196.659 44.0855C196.817 43.9432 196.939 43.7666 197.017 43.5695C197.095 43.3723 197.127 43.1598 197.11 42.9485Z" fill="white"/>
</g>
<defs>
<clipPath id="clip0_1592_5352">
<rect width="207.366" height="46.9143" fill="white"/>
</clipPath>
</defs>
</svg>
