<svg width="549" height="212" viewBox="0 0 549 212" fill="none" xmlns="http://www.w3.org/2000/svg">
<path d="M79.0781 77.0381C79.0781 78.0407 78.8812 78.9717 78.4873 79.8311C78.1292 80.6904 77.6279 81.4424 76.9834 82.0869C76.3747 82.6956 75.6406 83.179 74.7812 83.5371C73.9219 83.8952 73.0088 84.0742 72.042 84.0742C71.1826 84.0742 70.3053 83.9131 69.4102 83.5908C68.5508 83.2686 67.7809 82.7493 67.1006 82.0332L16.0752 28.752V83H2.11035V11.9404C2.11035 10.5081 2.50423 9.21908 3.29199 8.07324C4.11556 6.8916 5.15397 6.01432 6.40723 5.44141C7.7321 4.9043 9.09277 4.77897 10.4893 5.06543C11.8857 5.31608 13.0853 5.96061 14.0879 6.99902L65.1133 60.2266V5.97852H79.0781V77.0381ZM151.431 44.167C151.431 46.1006 151.091 48.1953 150.411 50.4512C149.73 52.6712 148.62 54.748 147.08 56.6816C145.577 58.5794 143.589 60.1729 141.119 61.4619C138.684 62.751 135.712 63.3955 132.203 63.3955H107.012V50.1289H132.203C134.1 50.1289 135.568 49.556 136.607 48.4102C137.645 47.2285 138.164 45.7783 138.164 44.0596C138.164 42.2334 137.574 40.8011 136.392 39.7627C135.246 38.7243 133.85 38.2051 132.203 38.2051H107.012C105.114 38.2051 103.646 38.7959 102.608 39.9775C101.569 41.1234 101.05 42.5557 101.05 44.2744V63.7715C101.05 65.6335 101.623 67.0837 102.769 68.1221C103.951 69.1605 105.401 69.6797 107.12 69.6797H132.203V83H107.012C105.079 83 102.984 82.6598 100.728 81.9795C98.5079 81.2992 96.4311 80.207 94.4975 78.7031C92.5997 77.1634 91.0062 75.1761 89.7172 72.7412C88.4281 70.2705 87.7836 67.2806 87.7836 63.7715V44.167C87.7836 42.2334 88.1238 40.1566 88.8041 37.9365C89.4844 35.6807 90.5766 33.6038 92.0805 31.7061C93.6202 29.7725 95.6075 28.1611 98.0424 26.8721C100.513 25.583 103.503 24.9385 107.012 24.9385H132.203C134.136 24.9385 136.213 25.2786 138.433 25.959C140.689 26.6393 142.766 27.7493 144.663 29.2891C146.597 30.793 148.208 32.7803 149.497 35.251C150.787 37.6859 151.431 40.6579 151.431 44.167ZM252.036 24.9385C249.816 29.9157 247.417 34.8213 244.839 39.6553C242.261 44.4535 239.557 49.001 236.728 53.2979C233.935 57.5947 231.071 61.5693 228.135 65.2217C225.198 68.8382 222.28 71.9714 219.38 74.6211C216.515 77.235 213.704 79.2939 210.947 80.7979C208.226 82.266 205.648 83 203.213 83C202.21 83 201.279 82.821 200.42 82.4629C199.56 82.1048 198.808 81.6214 198.164 81.0127C197.519 80.3682 197.018 79.6162 196.66 78.7568C196.302 77.8975 196.123 76.9665 196.123 75.9639V49.9141L168.408 80.9053C167.692 81.6214 166.904 82.1585 166.045 82.5166C165.221 82.8389 164.362 83 163.467 83C162.5 83 161.587 82.821 160.727 82.4629C159.904 82.1048 159.17 81.6214 158.525 81.0127C157.881 80.3682 157.361 79.6162 156.968 78.7568C156.61 77.8975 156.43 76.9665 156.43 75.9639V24.9385H170.395V58.0244L198.218 26.9258C199.22 25.9232 200.402 25.2965 201.762 25.0459C203.159 24.7594 204.52 24.9027 205.845 25.4756C207.169 26.0127 208.208 26.8721 208.96 28.0537C209.748 29.1995 210.141 30.4707 210.141 31.8672V65.0605C213.149 62.1602 215.871 59.0986 218.305 55.876C220.74 52.6533 222.996 49.3411 225.073 45.9395C227.186 42.502 229.155 39.0286 230.981 35.5195C232.843 31.9746 234.651 28.4476 236.406 24.9385H252.036ZM308.598 63.3955C308.598 65.7946 308.293 67.9609 307.685 69.8945C307.076 71.7923 306.27 73.4753 305.268 74.9434C304.265 76.3757 303.101 77.611 301.777 78.6494C300.452 79.652 299.055 80.4756 297.587 81.1201C296.155 81.7646 294.687 82.248 293.183 82.5703C291.715 82.8568 290.318 83 288.993 83H251.181V69.0352H288.886C290.784 69.0352 292.216 68.5518 293.183 67.585C294.15 66.6182 294.633 65.2217 294.633 63.3955C294.454 59.6715 292.574 57.8096 288.993 57.8096H267.348C264.268 57.8096 261.654 57.2725 259.506 56.1982C257.358 55.124 255.603 53.7812 254.242 52.1699C252.918 50.5586 251.951 48.8219 251.342 46.96C250.769 45.098 250.483 43.3613 250.483 41.75C250.483 38.6348 251.038 36.0208 252.148 33.9082C253.258 31.7598 254.654 30.0231 256.337 28.6982C258.02 27.3734 259.846 26.4245 261.816 25.8516C263.785 25.2428 265.629 24.9385 267.348 24.9385H301.669V38.9033H267.455C266.739 38.9033 266.166 38.9928 265.737 39.1719C265.343 39.3151 265.038 39.5299 264.823 39.8164C264.644 40.0671 264.537 40.3535 264.501 40.6758C264.465 40.9622 264.447 41.2487 264.447 41.5352C264.483 42.1081 264.591 42.5557 264.77 42.8779C264.949 43.2002 265.164 43.4329 265.414 43.5762C265.701 43.7194 266.005 43.8089 266.327 43.8447C266.685 43.8447 267.026 43.8447 267.348 43.8447H288.993C292.574 43.8447 295.618 44.4893 298.124 45.7783C300.631 47.0674 302.654 48.6966 304.194 50.666C305.733 52.5996 306.843 54.7122 307.524 57.0039C308.24 59.2956 308.598 61.4261 308.598 63.3955ZM404.803 63.7715C404.803 65.7051 404.463 67.7998 403.782 70.0557C403.102 72.2757 401.992 74.3525 400.452 76.2861C398.948 78.1839 396.961 79.7773 394.49 81.0664C392.055 82.3555 389.083 83 385.574 83H360.384C358.45 83 356.355 82.6598 354.1 81.9795C351.88 81.2992 349.803 80.207 347.869 78.7031C345.971 77.1634 344.378 75.1761 343.089 72.7412C341.8 70.2705 341.155 67.2806 341.155 63.7715C341.155 61.8379 341.495 59.7432 342.176 57.4873C342.856 55.2314 343.948 53.1546 345.452 51.2568C346.992 49.3232 348.979 47.7119 351.414 46.4229C353.885 45.1338 356.875 44.4893 360.384 44.4893H385.574V57.8096H360.384C358.486 57.8096 357.018 58.4004 355.979 59.582C354.941 60.7279 354.422 62.1602 354.422 63.8789C354.422 65.7051 355.013 67.1374 356.194 68.1758C357.412 69.1784 358.844 69.6797 360.491 69.6797H385.574C387.472 69.6797 388.94 69.1068 389.979 67.9609C391.017 66.8151 391.536 65.3828 391.536 63.6641V44.167C391.536 42.3408 390.963 40.8906 389.817 39.8164C388.707 38.7422 387.293 38.2051 385.574 38.2051H354.905V24.9385H385.574C387.508 24.9385 389.585 25.2786 391.805 25.959C394.061 26.6393 396.137 27.7493 398.035 29.2891C399.969 30.793 401.58 32.7803 402.869 35.251C404.158 37.6859 404.803 40.6579 404.803 44.167V63.7715ZM476.672 83H462.707V50.7734C462.707 48.9473 462.385 47.318 461.741 45.8857C461.132 44.4176 460.29 43.1644 459.216 42.126C458.142 41.0876 456.871 40.2998 455.403 39.7627C453.97 39.1898 452.413 38.9033 450.73 38.9033H426.291V83H412.327V31.8672C412.327 30.9004 412.506 30.0052 412.864 29.1816C413.222 28.3223 413.723 27.5882 414.368 26.9795C415.012 26.335 415.764 25.8337 416.623 25.4756C417.483 25.1175 418.396 24.9385 419.363 24.9385H450.837C452.592 24.9385 454.436 25.1354 456.37 25.5293C458.339 25.9232 460.273 26.5677 462.17 27.4629C464.104 28.3223 465.93 29.4323 467.649 30.793C469.403 32.1178 470.943 33.7471 472.268 35.6807C473.629 37.5785 474.703 39.7806 475.491 42.2871C476.278 44.7936 476.672 47.6224 476.672 50.7734V83ZM548.22 63.3955C548.22 65.7946 547.915 67.9609 547.306 69.8945C546.698 71.7923 545.892 73.4753 544.889 74.9434C543.887 76.3757 542.723 77.611 541.398 78.6494C540.073 79.652 538.677 80.4756 537.209 81.1201C535.777 81.7646 534.308 82.248 532.805 82.5703C531.336 82.8568 529.94 83 528.615 83H503.425C501.026 83 498.877 82.6956 496.979 82.0869C495.082 81.4782 493.399 80.6725 491.93 79.6699C490.498 78.6315 489.263 77.4499 488.224 76.125C487.222 74.8001 486.398 73.4215 485.754 71.9893C485.109 70.5212 484.626 69.0531 484.304 67.585C484.017 66.0811 483.874 64.6846 483.874 63.3955V44.4893C483.874 40.9085 484.518 37.8828 485.807 35.4121C487.132 32.9056 488.762 30.8825 490.695 29.3428C492.665 27.7673 494.795 26.6393 497.087 25.959C499.378 25.2786 501.491 24.9385 503.425 24.9385H528.615V38.9033H503.532C501.67 38.9033 500.256 39.3867 499.289 40.3535C498.322 41.2845 497.839 42.6631 497.839 44.4893V63.2881C497.839 65.1859 498.304 66.6182 499.235 67.585C500.202 68.5518 501.598 69.0352 503.425 69.0352H528.615C530.513 69.0352 531.927 68.5518 532.858 67.585C533.789 66.6182 534.255 65.2217 534.255 63.3955V0.392578H548.22V63.3955ZM77.5742 185.964C77.5742 186.966 77.3952 187.897 77.0371 188.757C76.679 189.616 76.1777 190.368 75.5332 191.013C74.8887 191.621 74.1367 192.105 73.2773 192.463C72.418 192.821 71.5049 193 70.5381 193H39.0635C36.0915 193 33.0837 192.678 30.04 192.033C26.9964 191.389 24.0423 190.404 21.1777 189.079C18.349 187.718 15.6813 186 13.1748 183.923C10.6683 181.846 8.46615 179.393 6.56836 176.564C4.70638 173.7 3.23828 170.441 2.16406 166.789C1.08984 163.101 0.552734 159.001 0.552734 154.489V115.979H14.5176V154.489C14.5176 158.428 15.0547 161.758 16.1289 164.479C17.2389 167.201 18.6354 169.475 20.3184 171.301C22.0013 173.127 23.8454 174.559 25.8506 175.598C27.8558 176.636 29.7536 177.406 31.5439 177.907C33.3701 178.409 34.9635 178.731 36.3242 178.874C37.7207 178.981 38.6338 179.035 39.0635 179.035H63.6094V115.979H77.5742V185.964ZM151.592 173.396C151.592 175.795 151.288 177.961 150.679 179.895C150.07 181.792 149.265 183.475 148.262 184.943C147.26 186.376 146.096 187.611 144.771 188.649C143.446 189.652 142.05 190.476 140.581 191.12C139.149 191.765 137.699 192.248 136.231 192.57C134.763 192.857 133.366 193 132.041 193H106.851V179.035H132.041C133.903 179.035 135.3 178.552 136.231 177.585C137.162 176.618 137.627 175.222 137.627 173.396V154.597C137.627 152.663 137.144 151.231 136.177 150.3C135.246 149.369 133.868 148.903 132.041 148.903H106.958C105.061 148.903 103.628 149.387 102.662 150.354C101.695 151.285 101.211 152.663 101.211 154.489V211.154H87.2465V154.489C87.2465 152.09 87.5508 149.942 88.1596 148.044C88.7683 146.146 89.574 144.481 90.5766 143.049C91.615 141.581 92.7966 140.345 94.1215 139.343C95.4464 138.304 96.8249 137.463 98.2572 136.818C99.7253 136.174 101.193 135.708 102.662 135.422C104.165 135.1 105.562 134.938 106.851 134.938H132.041C134.44 134.938 136.589 135.243 138.487 135.852C140.385 136.46 142.05 137.266 143.482 138.269C144.95 139.271 146.185 140.435 147.188 141.76C148.226 143.085 149.068 144.481 149.712 145.949C150.357 147.382 150.822 148.832 151.109 150.3C151.431 151.768 151.592 153.164 151.592 154.489V173.396ZM222.817 173.396C222.817 175.795 222.513 177.961 221.904 179.895C221.295 181.792 220.49 183.475 219.487 184.943C218.485 186.376 217.321 187.611 215.996 188.649C214.671 189.652 213.275 190.476 211.806 191.12C210.374 191.765 208.906 192.248 207.402 192.57C205.934 192.857 204.538 193 203.213 193H178.022C175.623 193 173.475 192.696 171.577 192.087C169.679 191.478 167.996 190.673 166.528 189.67C165.096 188.632 163.86 187.45 162.822 186.125C161.819 184.8 160.996 183.422 160.351 181.989C159.707 180.521 159.223 179.053 158.901 177.585C158.615 176.081 158.471 174.685 158.471 173.396V154.489C158.471 150.909 159.116 147.883 160.405 145.412C161.73 142.906 163.359 140.882 165.293 139.343C167.262 137.767 169.393 136.639 171.684 135.959C173.976 135.279 176.089 134.938 178.022 134.938H203.213V148.903H178.13C176.268 148.903 174.853 149.387 173.887 150.354C172.92 151.285 172.436 152.663 172.436 154.489V173.288C172.436 175.186 172.902 176.618 173.833 177.585C174.8 178.552 176.196 179.035 178.022 179.035H203.213C205.11 179.035 206.525 178.552 207.456 177.585C208.387 176.618 208.852 175.222 208.852 173.396V110.393H222.817V173.396ZM291.679 173.771C291.679 175.705 291.339 177.8 290.658 180.056C289.978 182.276 288.868 184.353 287.328 186.286C285.824 188.184 283.837 189.777 281.366 191.066C278.932 192.355 275.96 193 272.45 193H247.26C245.326 193 243.232 192.66 240.976 191.979C238.756 191.299 236.679 190.207 234.745 188.703C232.848 187.163 231.254 185.176 229.965 182.741C228.676 180.271 228.031 177.281 228.031 173.771C228.031 171.838 228.372 169.743 229.052 167.487C229.732 165.231 230.824 163.155 232.328 161.257C233.868 159.323 235.855 157.712 238.29 156.423C240.761 155.134 243.751 154.489 247.26 154.489H272.45V167.81H247.26C245.362 167.81 243.894 168.4 242.856 169.582C241.817 170.728 241.298 172.16 241.298 173.879C241.298 175.705 241.889 177.137 243.071 178.176C244.288 179.178 245.72 179.68 247.367 179.68H272.45C274.348 179.68 275.816 179.107 276.855 177.961C277.893 176.815 278.412 175.383 278.412 173.664V154.167C278.412 152.341 277.839 150.891 276.694 149.816C275.584 148.742 274.169 148.205 272.45 148.205H241.781V134.938H272.45C274.384 134.938 276.461 135.279 278.681 135.959C280.937 136.639 283.014 137.749 284.911 139.289C286.845 140.793 288.456 142.78 289.745 145.251C291.034 147.686 291.679 150.658 291.679 154.167V173.771ZM351.786 148.903H327.401V193H313.275V148.903H295.121V134.938H313.275V115.979H327.401V134.938H351.786V148.903ZM418.821 154.167C418.821 156.101 418.481 158.195 417.801 160.451C417.12 162.671 416.01 164.748 414.471 166.682C412.967 168.579 410.979 170.173 408.509 171.462C406.074 172.751 403.102 173.396 399.593 173.396H374.402V160.129H399.593C401.491 160.129 402.959 159.556 403.997 158.41C405.035 157.229 405.555 155.778 405.555 154.06C405.555 152.233 404.964 150.801 403.782 149.763C402.636 148.724 401.24 148.205 399.593 148.205H374.402C372.505 148.205 371.036 148.796 369.998 149.978C368.96 151.123 368.44 152.556 368.44 154.274V173.771C368.44 175.633 369.013 177.084 370.159 178.122C371.341 179.16 372.791 179.68 374.51 179.68H399.593V193H374.402C372.469 193 370.374 192.66 368.118 191.979C365.898 191.299 363.821 190.207 361.888 188.703C359.99 187.163 358.396 185.176 357.107 182.741C355.818 180.271 355.174 177.281 355.174 173.771V154.167C355.174 152.233 355.514 150.157 356.194 147.937C356.875 145.681 357.967 143.604 359.471 141.706C361.01 139.772 362.998 138.161 365.433 136.872C367.903 135.583 370.893 134.938 374.402 134.938H399.593C401.526 134.938 403.603 135.279 405.823 135.959C408.079 136.639 410.156 137.749 412.054 139.289C413.987 140.793 415.599 142.78 416.888 145.251C418.177 147.686 418.821 150.658 418.821 154.167Z" fill="white"/>
</svg>
