<svg width="1068" height="217" viewBox="0 0 1068 217" fill="none" xmlns="http://www.w3.org/2000/svg">
<path d="M210.031 197.74C210.031 200.475 209.494 203.014 208.42 205.357C207.443 207.701 206.076 209.752 204.318 211.51C202.658 213.17 200.656 214.488 198.312 215.465C195.969 216.441 193.479 216.93 190.842 216.93C188.498 216.93 186.105 216.49 183.664 215.611C181.32 214.732 179.221 213.316 177.365 211.363L38.2051 66.0508V214H0.119141V20.2012C0.119141 16.2949 1.19336 12.7793 3.3418 9.6543C5.58789 6.43164 8.41992 4.03906 11.8379 2.47656C15.4512 1.01172 19.1621 0.669922 22.9707 1.45117C26.7793 2.13477 30.0508 3.89258 32.7852 6.72461L171.945 151.891V3.94141H210.031V197.74ZM438.271 152.184C438.271 159.703 437.295 166.49 435.342 172.545C433.486 178.502 430.996 183.775 427.871 188.365C424.746 192.955 421.084 196.861 416.885 200.084C412.686 203.307 408.34 205.943 403.848 207.994C399.355 210.045 394.766 211.559 390.078 212.535C385.488 213.512 381.143 214 377.041 214H230.117V175.914H377.041C384.365 175.914 390.029 173.766 394.033 169.469C398.135 165.172 400.186 159.41 400.186 152.184C400.186 148.668 399.648 145.445 398.574 142.516C397.5 139.586 395.938 137.047 393.887 134.898C391.934 132.75 389.492 131.09 386.562 129.918C383.73 128.746 380.557 128.16 377.041 128.16H289.443C283.291 128.16 276.65 127.086 269.521 124.938C262.393 122.691 255.752 119.127 249.6 114.244C243.545 109.361 238.467 102.965 234.365 95.0547C230.361 87.1445 228.359 77.4766 228.359 66.0508C228.359 54.625 230.361 45.0059 234.365 37.1934C238.467 29.2832 243.545 22.8867 249.6 18.0039C255.752 13.0234 262.393 9.45898 269.521 7.31055C276.65 5.06445 283.291 3.94141 289.443 3.94141H419.082V42.0273H289.443C282.217 42.0273 276.553 44.2246 272.451 48.6191C268.447 53.0137 266.445 58.8242 266.445 66.0508C266.445 73.375 268.447 79.1855 272.451 83.4824C276.553 87.6816 282.217 89.7812 289.443 89.7812H377.041H377.334C381.436 89.8789 385.781 90.4648 390.371 91.5391C394.961 92.5156 399.502 94.0781 403.994 96.2266C408.584 98.375 412.93 101.109 417.031 104.43C421.133 107.652 424.746 111.559 427.871 116.148C431.094 120.738 433.633 126.012 435.488 131.969C437.344 137.926 438.271 144.664 438.271 152.184ZM639.412 42.0273H555.477V214H517.391V42.0273H433.309V3.94141H639.412V42.0273ZM822.242 128.16H701.979V89.7812H822.242V128.16ZM839.381 214H701.979C696.705 214 690.943 213.072 684.693 211.217C678.443 209.361 672.633 206.334 667.262 202.135C661.988 197.838 657.545 192.32 653.932 185.582C650.416 178.746 648.658 170.396 648.658 160.533V23.1309C648.658 20.4941 649.146 18.0039 650.123 15.6602C651.1 13.3164 652.418 11.2656 654.078 9.50781C655.836 7.75 657.887 6.38281 660.23 5.40625C662.574 4.42969 665.113 3.94141 667.848 3.94141H839.381V42.0273H686.744V160.533C686.744 165.514 688.062 169.322 690.699 171.959C693.336 174.596 697.193 175.914 702.271 175.914H839.381V214ZM1067.62 91.832C1067.62 100.523 1066.55 108.287 1064.4 115.123C1062.25 121.959 1059.32 128.014 1055.61 133.287C1052 138.463 1047.8 142.906 1043.01 146.617C1038.23 150.328 1033.2 153.355 1027.92 155.699C1022.75 158.043 1017.47 159.752 1012.1 160.826C1006.83 161.9 1001.85 162.438 997.162 162.438H911.029V124.352H997.162C1002.04 123.961 1006.44 122.984 1010.35 121.422C1014.35 119.762 1017.77 117.564 1020.6 114.83C1023.43 112.096 1025.63 108.824 1027.19 105.016C1028.75 101.109 1029.54 96.7148 1029.54 91.832V74.5469C1029.05 69.7617 1028.02 65.3672 1026.46 61.3633C1024.9 57.3594 1022.75 53.9414 1020.01 51.1094C1017.38 48.2773 1014.15 46.0801 1010.35 44.5176C1006.54 42.8574 1002.14 42.0273 997.162 42.0273H911.322C906.244 42.0273 902.387 43.3457 899.75 45.9824C897.113 48.6191 895.795 52.4277 895.795 57.4082V214H857.709V57.4082C857.709 47.6426 859.467 39.3418 862.982 32.5059C866.596 25.6699 871.039 20.1523 876.312 15.9531C881.684 11.7539 887.494 8.72656 893.744 6.87109C899.994 4.91797 905.756 3.94141 911.029 3.94141H997.162C1005.76 3.94141 1013.47 5.06445 1020.31 7.31055C1027.14 9.45898 1033.15 12.3887 1038.32 16.0996C1043.6 19.7129 1048.04 23.9121 1051.65 28.6973C1055.37 33.4824 1058.39 38.5117 1060.74 43.7852C1063.18 48.9609 1064.94 54.2344 1066.01 59.6055C1067.08 64.8789 1067.62 69.8594 1067.62 74.5469V91.832Z" fill="white"/>
</svg>
