<svg width="48" height="48" viewBox="0 0 48 48" fill="none" xmlns="http://www.w3.org/2000/svg">
<g clip-path="url(#clip0_1592_5443)">
<path d="M37.6444 10.1044C34.0138 6.50923 29.1094 4.49477 24 4.50001H23.7994C18.6625 4.55286 13.754 6.63063 10.1403 10.2819C6.52662 13.9331 4.49973 18.8629 4.5 24C4.5 32.0625 9.48375 38.8238 17.505 41.6569C18.4097 41.9759 19.3777 42.0732 20.3278 41.9409C21.2779 41.8085 22.1825 41.4503 22.9656 40.8962C23.7486 40.3421 24.3875 39.6084 24.8285 38.7565C25.2694 37.9045 25.4997 36.9593 25.5 36C25.5 35.2044 25.8161 34.4413 26.3787 33.8787C26.9413 33.3161 27.7043 33 28.5 33H37.1644C38.5254 33.0066 39.8477 32.5475 40.9119 31.6989C41.976 30.8504 42.7179 29.6634 43.0144 28.335C43.3497 26.8588 43.5126 25.3487 43.5 23.835C43.4809 21.2728 42.9535 18.7398 41.9483 16.3828C40.9432 14.0259 39.4803 11.8918 37.6444 10.1044ZM15.75 31.5C15.305 31.5 14.87 31.3681 14.5 31.1208C14.13 30.8736 13.8416 30.5222 13.6713 30.111C13.501 29.6999 13.4564 29.2475 13.5432 28.8111C13.63 28.3746 13.8443 27.9737 14.159 27.659C14.4737 27.3444 14.8746 27.1301 15.311 27.0432C15.7475 26.9564 16.1999 27.001 16.611 27.1713C17.0222 27.3416 17.3736 27.63 17.6208 28C17.868 28.37 18 28.805 18 29.25C18 29.8468 17.7629 30.419 17.341 30.841C16.919 31.263 16.3467 31.5 15.75 31.5ZM15.75 21C15.305 21 14.87 20.8681 14.5 20.6208C14.13 20.3736 13.8416 20.0222 13.6713 19.611C13.501 19.1999 13.4564 18.7475 13.5432 18.3111C13.63 17.8746 13.8443 17.4737 14.159 17.159C14.4737 16.8444 14.8746 16.6301 15.311 16.5432C15.7475 16.4564 16.1999 16.501 16.611 16.6713C17.0222 16.8416 17.3736 17.13 17.6208 17.5C17.868 17.87 18 18.305 18 18.75C18 19.3467 17.7629 19.919 17.341 20.341C16.919 20.763 16.3467 21 15.75 21ZM24 16.5C23.555 16.5 23.12 16.3681 22.75 16.1208C22.38 15.8736 22.0916 15.5222 21.9213 15.111C21.751 14.6999 21.7064 14.2475 21.7932 13.8111C21.88 13.3746 22.0943 12.9737 22.409 12.659C22.7237 12.3444 23.1246 12.1301 23.561 12.0432C23.9975 11.9564 24.4499 12.001 24.861 12.1713C25.2722 12.3416 25.6236 12.63 25.8708 13C26.118 13.37 26.25 13.805 26.25 14.25C26.25 14.8467 26.0129 15.419 25.591 15.841C25.169 16.263 24.5967 16.5 24 16.5ZM32.25 21C31.805 21 31.37 20.8681 31 20.6208C30.63 20.3736 30.3416 20.0222 30.1713 19.611C30.001 19.1999 29.9564 18.7475 30.0432 18.3111C30.13 17.8746 30.3443 17.4737 30.659 17.159C30.9737 16.8444 31.3746 16.6301 31.811 16.5432C32.2475 16.4564 32.6999 16.501 33.111 16.6713C33.5222 16.8416 33.8736 17.13 34.1208 17.5C34.368 17.87 34.5 18.305 34.5 18.75C34.5 19.3467 34.2629 19.919 33.841 20.341C33.419 20.763 32.8467 21 32.25 21Z" fill="#FF5722"/>
</g>
<defs>
<clipPath id="clip0_1592_5443">
<rect width="48" height="48" fill="white"/>
</clipPath>
</defs>
</svg>
