<svg width="83" height="76" viewBox="0 0 83 76" fill="none" xmlns="http://www.w3.org/2000/svg">
<rect width="72" height="72" rx="12" transform="matrix(0.99863 0.052336 -0.139173 0.990268 10.6709 0.772949)" fill="#FF5722"/>
<g clip-path="url(#clip0_1592_5497)">
<path d="M44.658 50.4369L49.9283 50.7131C50.458 50.7408 50.9953 50.5588 51.4221 50.207C51.8489 49.8552 52.1301 49.3625 52.2039 48.8372L52.8589 44.1768C52.8809 44.0143 52.8622 43.8525 52.8045 43.7055C52.7468 43.5585 52.6519 43.4308 52.5282 43.3338C52.4044 43.2368 52.2556 43.1733 52.0948 43.149C51.934 43.1248 51.7662 43.1404 51.6061 43.1946C51.2319 43.321 50.8422 43.3756 50.4594 43.3552C48.8079 43.2687 47.6566 41.8242 47.8937 40.137C48.1308 38.4499 49.6683 37.1463 51.3198 37.2329C51.7027 37.2527 52.0715 37.347 52.405 37.5105C52.5483 37.5809 52.7102 37.6137 52.8763 37.6061C53.0424 37.5985 53.2075 37.5506 53.3569 37.4667C53.5064 37.3828 53.6355 37.2656 53.7328 37.1254C53.8302 36.9852 53.8927 36.8264 53.9149 36.6631L54.5698 32.0027C54.6437 31.4774 54.504 30.9626 54.1817 30.5716C53.8593 30.1805 53.3806 29.9452 52.8509 29.9175L48.3296 29.6805C48.3713 29.5171 48.4037 29.3522 48.4267 29.1868C48.5928 28.0049 48.2786 26.8467 47.5533 25.9668C46.828 25.0869 45.751 24.5576 44.5591 24.4951C43.3673 24.4326 42.1583 24.8422 41.1981 25.6338C40.2379 26.4253 39.6051 27.5339 39.439 28.7158C39.4155 28.8812 39.4014 29.047 39.3969 29.2124L34.8756 28.9754C34.3459 28.9476 33.8086 29.1297 33.3818 29.4815C32.955 29.8333 32.6738 30.326 32.6 30.8513L32.0395 34.8396C31.8763 34.8125 31.7108 34.7946 31.544 34.7862C30.3521 34.7237 29.1431 35.1333 28.1829 35.9248C27.2227 36.7164 26.59 37.825 26.4239 39.0069C26.2578 40.1887 26.5719 41.347 27.2972 42.2269C28.0225 43.1067 29.0996 43.6361 30.2914 43.6986C30.4582 43.7076 30.6262 43.7073 30.7946 43.6975L30.234 47.6858C30.1602 48.2111 30.2999 48.7259 30.6222 49.1169C30.9446 49.508 31.4233 49.7433 31.953 49.771L37.2232 50.0472" fill="white"/>
</g>
<defs>
<clipPath id="clip0_1592_5497">
<rect width="32" height="32" fill="white" transform="matrix(0.99863 0.052336 -0.139173 0.990268 27.8604 21.625)"/>
</clipPath>
</defs>
</svg>
