<svg width="550" height="162" viewBox="0 0 550 162" fill="none" xmlns="http://www.w3.org/2000/svg">
<path d="M160.937 55.0859C160.937 61.7493 160.114 67.7015 158.467 72.9424C156.819 78.1833 154.573 82.8252 151.728 86.8682C148.958 90.8363 145.739 94.2428 142.07 97.0879C138.402 99.9329 134.546 102.291 130.503 104.163C126.535 105.96 122.492 107.27 118.374 108.094C114.331 108.917 110.513 109.329 106.919 109.329L167.9 162H122.754L61.8846 109.329H40.8836V80.1299H106.919C110.587 79.8304 113.919 79.0817 116.914 77.8838C119.984 76.611 122.604 74.9264 124.775 72.8301C127.021 70.7337 128.743 68.2256 129.941 65.3057C131.139 62.3109 131.738 58.9043 131.738 55.0859V36.668C131.738 35.0208 131.513 33.7855 131.064 32.9619C130.69 32.0635 130.166 31.4271 129.492 31.0527C128.893 30.6035 128.219 30.3415 127.471 30.2666C126.797 30.1917 126.16 30.1543 125.561 30.1543H29.2039V162H0.00469971V15.667C0.00469971 13.6455 0.379049 11.7363 1.12775 9.93945C1.87644 8.14258 2.88719 6.57031 4.15997 5.22266C5.50763 3.875 7.0799 2.82682 8.87677 2.07812C10.6736 1.32943 12.6203 0.955078 14.7166 0.955078H125.561C132.075 0.955078 137.578 2.15299 142.07 4.54883C146.562 6.86979 150.194 9.82715 152.964 13.4209C155.809 16.9398 157.83 20.7581 159.028 24.876C160.301 28.9938 160.937 32.8496 160.937 36.4434V55.0859ZM296.952 121.795C296.952 125.838 296.241 130.218 294.818 134.935C293.395 139.576 291.074 143.919 287.855 147.962C284.711 151.93 280.555 155.262 275.389 157.957C270.298 160.652 264.084 162 256.747 162H204.076C200.033 162 195.653 161.289 190.936 159.866C186.294 158.444 181.952 156.16 177.909 153.016C173.941 149.796 170.609 145.641 167.914 140.55C165.218 135.384 163.871 129.132 163.871 121.795C163.871 117.752 164.582 113.372 166.005 108.655C167.427 103.938 169.711 99.596 172.855 95.6279C176.074 91.585 180.23 88.2158 185.321 85.5205C190.487 82.8252 196.739 81.4775 204.076 81.4775H256.747V109.329H204.076C200.108 109.329 197.038 110.564 194.867 113.035C192.696 115.431 191.61 118.426 191.61 122.02C191.61 125.838 192.845 128.833 195.316 131.004C197.862 133.1 200.856 134.148 204.3 134.148H256.747C260.715 134.148 263.784 132.951 265.956 130.555C268.127 128.159 269.213 125.164 269.213 121.57V80.8037C269.213 76.9854 268.015 73.9531 265.619 71.707C263.298 69.4609 260.34 68.3379 256.747 68.3379H192.621V40.5986H256.747C260.79 40.5986 265.132 41.3099 269.774 42.7324C274.491 44.1549 278.833 46.4759 282.801 49.6953C286.844 52.8398 290.213 56.9951 292.909 62.1611C295.604 67.2523 296.952 73.4665 296.952 80.8037V121.795ZM414.324 69.7979H348.625C344.657 69.7979 341.663 70.8086 339.641 72.8301C337.62 74.7767 336.609 77.6592 336.609 81.4775V162H307.41V81.4775C307.41 76.4613 308.046 71.9691 309.319 68.001C310.592 64.0329 312.276 60.5514 314.372 57.5566C316.544 54.487 319.014 51.904 321.785 49.8076C324.555 47.6364 327.437 45.877 330.432 44.5293C333.502 43.1816 336.571 42.2083 339.641 41.6094C342.786 40.9355 345.705 40.5986 348.401 40.5986H414.324V69.7979ZM550.001 80.8037C550.001 84.8467 549.29 89.2266 547.867 93.9434C546.445 98.5853 544.124 102.928 540.905 106.971C537.76 110.939 533.605 114.271 528.439 116.966C523.348 119.661 517.133 121.009 509.796 121.009H457.125V93.2695H509.796C513.764 93.2695 516.834 92.0716 519.005 89.6758C521.176 87.2051 522.262 84.1729 522.262 80.5791C522.262 76.7607 521.027 73.766 518.556 71.5947C516.16 69.4235 513.24 68.3379 509.796 68.3379H457.125C453.157 68.3379 450.087 69.5732 447.916 72.0439C445.745 74.4398 444.659 77.4346 444.659 81.0283V121.795C444.659 125.688 445.857 128.72 448.253 130.892C450.724 133.063 453.756 134.148 457.35 134.148H509.796V162H457.125C453.082 162 448.702 161.289 443.986 159.866C439.344 158.444 435.001 156.16 430.958 153.016C426.99 149.796 423.658 145.641 420.963 140.55C418.268 135.384 416.92 129.132 416.92 121.795V80.8037C416.92 76.7607 417.631 72.4183 419.054 67.7764C420.476 63.0596 422.76 58.7171 425.905 54.749C429.124 50.7061 433.279 47.3369 438.37 44.6416C443.536 41.9463 449.788 40.5986 457.125 40.5986H509.796C513.839 40.5986 518.182 41.3099 522.823 42.7324C527.54 44.1549 531.883 46.4759 535.851 49.6953C539.894 52.8398 543.263 56.9951 545.958 62.1611C548.654 67.2523 550.001 73.4665 550.001 80.8037Z" fill="white"/>
</svg>
