<svg width="565" height="91" viewBox="0 0 565 91" fill="none" xmlns="http://www.w3.org/2000/svg">
<path d="M84.5898 66.2734C84.5898 69.2812 84.1992 71.9961 83.418 74.418C82.6758 76.8008 81.6797 78.9102 80.4297 80.7461C79.1797 82.582 77.7148 84.1445 76.0352 85.4336C74.3555 86.7227 72.6172 87.7773 70.8203 88.5977C69.0234 89.418 67.1875 90.0234 65.3125 90.4141C63.4766 90.8047 61.7383 91 60.0977 91H1.32812V75.7656H60.0977C63.0273 75.7656 65.293 74.9062 66.8945 73.1875C68.5352 71.4688 69.3555 69.1641 69.3555 66.2734C69.3555 64.8672 69.1406 63.5781 68.7109 62.4062C68.2812 61.2344 67.6562 60.2188 66.8359 59.3594C66.0547 58.5 65.0781 57.8359 63.9062 57.3672C62.7734 56.8984 61.5039 56.6641 60.0977 56.6641H25.0586C22.5977 56.6641 19.9414 56.2344 17.0898 55.375C14.2383 54.4766 11.582 53.0508 9.12109 51.0977C6.69922 49.1445 4.66797 46.5859 3.02734 43.4219C1.42578 40.2578 0.625 36.3906 0.625 31.8203C0.625 27.25 1.42578 23.4023 3.02734 20.2773C4.66797 17.1133 6.69922 14.5547 9.12109 12.6016C11.582 10.6094 14.2383 9.18359 17.0898 8.32422C19.9414 7.42578 22.5977 6.97656 25.0586 6.97656H76.9141V22.2109H25.0586C22.168 22.2109 19.9023 23.0898 18.2617 24.8477C16.6602 26.6055 15.8594 28.9297 15.8594 31.8203C15.8594 34.75 16.6602 37.0742 18.2617 38.793C19.9023 40.4727 22.168 41.3125 25.0586 41.3125H60.0977H60.2148C61.8555 41.3516 63.5938 41.5859 65.4297 42.0156C67.2656 42.4062 69.082 43.0312 70.8789 43.8906C72.7148 44.75 74.4531 45.8438 76.0938 47.1719C77.7344 48.4609 79.1797 50.0234 80.4297 51.8594C81.7188 53.6953 82.7344 55.8047 83.4766 58.1875C84.2188 60.5703 84.5898 63.2656 84.5898 66.2734ZM157.253 69.6133C157.253 72.2305 156.921 74.5938 156.257 76.7031C155.593 78.7734 154.714 80.6094 153.62 82.2109C152.527 83.7734 151.257 85.1211 149.812 86.2539C148.366 87.3477 146.843 88.2461 145.241 88.9492C143.679 89.6523 142.077 90.1797 140.437 90.5312C138.835 90.8438 137.312 91 135.866 91H108.386C106.277 91 103.972 90.6289 101.472 89.8867C98.9719 89.1445 96.6477 87.9336 94.4992 86.2539C92.3898 84.5352 90.6125 82.3281 89.1672 79.6328C87.7609 76.8984 87.0578 73.5586 87.0578 69.6133V48.9883C87.0578 45.082 87.7609 41.7812 89.1672 39.0859C90.6125 36.3516 92.3898 34.1445 94.4992 32.4648C96.6477 30.7461 98.9719 29.5156 101.472 28.7734C103.972 28.0312 106.277 27.6602 108.386 27.6602H135.866C139.773 27.6602 143.093 28.3633 145.827 29.7695C148.562 31.1758 150.769 32.9531 152.448 35.1016C154.128 37.2109 155.339 39.5156 156.081 42.0156C156.863 44.5156 157.253 46.8398 157.253 48.9883V69.6133ZM142.019 49.1055C142.019 46.9961 141.491 45.4336 140.437 44.418C139.382 43.4023 137.859 42.8945 135.866 42.8945H108.503C106.472 42.8945 104.929 43.4219 103.874 44.4766C102.82 45.4922 102.292 46.9961 102.292 48.9883V69.6133C102.292 71.6055 102.82 73.1289 103.874 74.1836C104.929 75.2383 106.472 75.7656 108.503 75.7656H135.866C137.937 75.7656 139.48 75.2383 140.495 74.1836C141.511 73.1289 142.019 71.6055 142.019 69.6133V49.1055ZM190.893 91H184.096C181.909 91 179.565 90.6289 177.065 89.8867C174.604 89.1445 172.299 87.9336 170.151 86.2539C168.002 84.5352 166.225 82.3281 164.819 79.6328C163.413 76.8984 162.709 73.5586 162.709 69.6133V0.882812H177.944V69.6133C177.944 71.4883 178.53 72.9922 179.702 74.125C180.873 75.2188 182.338 75.7656 184.096 75.7656H190.893V91ZM261.798 83.3242C261.798 84.418 261.603 85.4336 261.212 86.3711C260.822 87.3086 260.275 88.1289 259.572 88.832C258.908 89.4961 258.107 90.0234 257.17 90.4141C256.271 90.8047 255.295 91 254.24 91H219.787C217.912 91 215.9 90.7852 213.752 90.3555C211.642 89.9258 209.552 89.2422 207.482 88.3047C205.412 87.3281 203.4 86.1172 201.447 84.6719C199.533 83.1875 197.853 81.4102 196.408 79.3398C194.962 77.2305 193.791 74.8086 192.892 72.0742C192.033 69.3398 191.603 66.2539 191.603 62.8164V27.6602H206.837V62.8164C206.837 64.8086 207.17 66.6055 207.834 68.207C208.537 69.7695 209.474 71.1172 210.646 72.25C211.818 73.3828 213.185 74.2617 214.748 74.8867C216.349 75.4727 218.068 75.7656 219.904 75.7656H246.564V27.6602H261.798V83.3242ZM326.493 42.8945H299.891V91H284.481V42.8945H264.677V27.6602H284.481V6.97656H299.891V27.6602H326.493V42.8945ZM344.781 14.6523H329.547V0.882812H344.781V14.6523ZM344.781 91H329.547V27.6602H344.781V91ZM421.136 69.6133C421.136 72.2305 420.804 74.5938 420.14 76.7031C419.476 78.7734 418.597 80.6094 417.503 82.2109C416.409 83.7734 415.14 85.1211 413.695 86.2539C412.249 87.3477 410.726 88.2461 409.124 88.9492C407.562 89.6523 405.96 90.1797 404.32 90.5312C402.718 90.8438 401.195 91 399.749 91H372.269C370.159 91 367.855 90.6289 365.355 89.8867C362.855 89.1445 360.53 87.9336 358.382 86.2539C356.273 84.5352 354.495 82.3281 353.05 79.6328C351.644 76.8984 350.941 73.5586 350.941 69.6133V48.9883C350.941 45.082 351.644 41.7812 353.05 39.0859C354.495 36.3516 356.273 34.1445 358.382 32.4648C360.53 30.7461 362.855 29.5156 365.355 28.7734C367.855 28.0312 370.159 27.6602 372.269 27.6602H399.749C403.655 27.6602 406.976 28.3633 409.71 29.7695C412.445 31.1758 414.652 32.9531 416.331 35.1016C418.011 37.2109 419.222 39.5156 419.964 42.0156C420.745 44.5156 421.136 46.8398 421.136 48.9883V69.6133ZM405.902 49.1055C405.902 46.9961 405.374 45.4336 404.32 44.418C403.265 43.4023 401.741 42.8945 399.749 42.8945H372.386C370.355 42.8945 368.812 43.4219 367.757 44.4766C366.702 45.4922 366.175 46.9961 366.175 48.9883V69.6133C366.175 71.6055 366.702 73.1289 367.757 74.1836C368.812 75.2383 370.355 75.7656 372.386 75.7656H399.749C401.82 75.7656 403.362 75.2383 404.378 74.1836C405.394 73.1289 405.902 71.6055 405.902 69.6133V49.1055ZM497.139 91H481.905V55.8438C481.905 53.8516 481.553 52.0742 480.85 50.5117C480.186 48.9102 479.268 47.543 478.096 46.4102C476.924 45.2773 475.538 44.418 473.936 43.832C472.373 43.207 470.674 42.8945 468.838 42.8945H442.178V91H426.944V35.2188C426.944 34.1641 427.139 33.1875 427.53 32.2891C427.92 31.3516 428.467 30.5508 429.17 29.8867C429.873 29.1836 430.694 28.6367 431.631 28.2461C432.569 27.8555 433.565 27.6602 434.62 27.6602H468.955C470.87 27.6602 472.881 27.875 474.991 28.3047C477.139 28.7344 479.248 29.4375 481.319 30.4141C483.428 31.3516 485.42 32.5625 487.295 34.0469C489.209 35.4922 490.889 37.2695 492.334 39.3789C493.819 41.4492 494.991 43.8516 495.85 46.5859C496.709 49.3203 497.139 52.4062 497.139 55.8438V91ZM564.529 69.6133C564.529 72.2305 564.197 74.5938 563.533 76.7031C562.869 78.7734 561.99 80.6094 560.896 82.2109C559.802 83.7734 558.533 85.1211 557.087 86.2539C555.642 87.3477 554.119 88.2461 552.517 88.9492C550.955 89.6523 549.353 90.1797 547.712 90.5312C546.111 90.8438 544.587 91 543.142 91H501.892V75.7656H543.025C545.095 75.7656 546.658 75.2383 547.712 74.1836C548.767 73.1289 549.295 71.6055 549.295 69.6133C549.099 65.5508 547.048 63.5195 543.142 63.5195H519.529C516.17 63.5195 513.318 62.9336 510.974 61.7617C508.63 60.5898 506.716 59.125 505.232 57.3672C503.787 55.6094 502.732 53.7148 502.068 51.6836C501.443 49.6523 501.13 47.7578 501.13 46C501.13 42.6016 501.736 39.75 502.947 37.4453C504.158 35.1016 505.681 33.207 507.517 31.7617C509.353 30.3164 511.345 29.2813 513.494 28.6562C515.642 27.9922 517.654 27.6602 519.529 27.6602H556.97V42.8945H519.646C518.865 42.8945 518.24 42.9922 517.771 43.1875C517.341 43.3438 517.009 43.5781 516.775 43.8906C516.58 44.1641 516.462 44.4766 516.423 44.8281C516.384 45.1406 516.365 45.4531 516.365 45.7656C516.404 46.3906 516.521 46.8789 516.716 47.2305C516.912 47.582 517.146 47.8359 517.42 47.9922C517.732 48.1484 518.064 48.2461 518.416 48.2852C518.806 48.2852 519.177 48.2852 519.529 48.2852H543.142C547.048 48.2852 550.369 48.9883 553.103 50.3945C555.837 51.8008 558.045 53.5781 559.724 55.7266C561.404 57.8359 562.615 60.1406 563.357 62.6406C564.138 65.1406 564.529 67.4648 564.529 69.6133Z" fill="white"/>
</svg>
