<svg width="581" height="219" viewBox="0 0 581 219" fill="none" xmlns="http://www.w3.org/2000/svg">
<path d="M103.455 5.97852L90.5645 78.166C90.278 79.5983 89.6335 80.8337 88.6309 81.8721C87.6283 82.9105 86.4108 83.5729 84.9785 83.8594C83.5104 84.11 82.1139 83.9489 80.7891 83.376C79.5 82.8031 78.4795 81.9079 77.7275 80.6904L52.1611 38.6885L26.541 80.6904C25.9323 81.7288 25.0908 82.5345 24.0166 83.1074C22.9782 83.6803 21.8503 83.9668 20.6328 83.9668C18.9499 83.9668 17.4639 83.4297 16.1748 82.3555C14.8857 81.2812 14.098 79.8848 13.8115 78.166L0.813477 5.97852H14.9932L24.2314 56.8428L46.2529 21.7158C46.8617 20.6774 47.6852 19.8717 48.7236 19.2988C49.7979 18.7259 50.9437 18.4395 52.1611 18.4395C53.3786 18.4395 54.5065 18.7259 55.5449 19.2988C56.5833 19.8717 57.4427 20.6774 58.123 21.7158L80.0371 56.8428L89.2754 5.97852H103.455ZM173.713 83H159.748V44.4893C159.748 42.6631 159.283 41.2845 158.352 40.3535C157.421 39.3867 156.024 38.9033 154.162 38.9033H128.972V24.9385H154.162C155.487 24.9385 156.884 25.0996 158.352 25.4219C159.82 25.7083 161.27 26.1738 162.703 26.8184C164.171 27.4629 165.567 28.3044 166.892 29.3428C168.217 30.3454 169.381 31.5807 170.383 33.0488C171.386 34.4811 172.191 36.1462 172.8 38.0439C173.409 39.9417 173.713 42.0902 173.713 44.4893V83ZM123.332 83H109.368V0.392578H123.332V83ZM242.038 63.7715C242.038 65.7051 241.698 67.7998 241.017 70.0557C240.337 72.2757 239.227 74.3525 237.687 76.2861C236.183 78.1839 234.196 79.7773 231.725 81.0664C229.29 82.3555 226.318 83 222.809 83H197.619C195.685 83 193.591 82.6598 191.335 81.9795C189.115 81.2992 187.038 80.207 185.104 78.7031C183.207 77.1634 181.613 75.1761 180.324 72.7412C179.035 70.2705 178.39 67.2806 178.39 63.7715C178.39 61.8379 178.731 59.7432 179.411 57.4873C180.091 55.2314 181.183 53.1546 182.687 51.2568C184.227 49.3232 186.214 47.7119 188.649 46.4229C191.12 45.1338 194.11 44.4893 197.619 44.4893H222.809V57.8096H197.619C195.721 57.8096 194.253 58.4004 193.215 59.582C192.176 60.7279 191.657 62.1602 191.657 63.8789C191.657 65.7051 192.248 67.1374 193.429 68.1758C194.647 69.1784 196.079 69.6797 197.726 69.6797H222.809C224.707 69.6797 226.175 69.1068 227.214 67.9609C228.252 66.8151 228.771 65.3828 228.771 63.6641V44.167C228.771 42.3408 228.198 40.8906 227.053 39.8164C225.943 38.7422 224.528 38.2051 222.809 38.2051H192.14V24.9385H222.809C224.743 24.9385 226.82 25.2786 229.04 25.959C231.296 26.6393 233.373 27.7493 235.27 29.2891C237.204 30.793 238.815 32.7803 240.104 35.251C241.393 37.6859 242.038 40.6579 242.038 44.167V63.7715ZM302.145 38.9033H277.76V83H263.634V38.9033H245.48V24.9385H263.634V5.97852H277.76V24.9385H302.145V38.9033ZM419.834 51.8477C419.834 56.5384 419.028 60.8532 417.417 64.792C415.806 68.7308 413.568 72.1325 410.703 74.9971C407.839 77.8617 404.437 80.0996 400.498 81.7109C396.595 83.2865 392.334 84.0742 387.715 84.0742H368.809C364.189 84.0742 359.91 83.2865 355.972 81.7109C352.033 80.0996 348.631 77.8617 345.767 74.9971C342.902 72.1325 340.646 68.7308 338.999 64.792C337.388 60.8532 336.582 56.5384 336.582 51.8477V37.1309C336.582 32.4759 337.388 28.179 338.999 24.2402C340.646 20.2656 342.902 16.8639 345.767 14.0352C348.631 11.1706 352.033 8.93262 355.972 7.32129C359.91 5.70996 364.189 4.9043 368.809 4.9043H387.715C392.334 4.9043 396.595 5.70996 400.498 7.32129C404.437 8.93262 407.839 11.1706 410.703 14.0352C413.568 16.8639 415.806 20.2656 417.417 24.2402C419.028 28.179 419.834 32.4759 419.834 37.1309V51.8477ZM405.869 37.1309C405.869 34.3737 405.422 31.8851 404.526 29.665C403.667 27.4092 402.432 25.4935 400.82 23.918C399.245 22.3066 397.329 21.0713 395.073 20.2119C392.853 19.3167 390.4 18.8691 387.715 18.8691H368.809C366.087 18.8691 363.599 19.3167 361.343 20.2119C359.123 21.0713 357.207 22.3066 355.596 23.918C353.984 25.4935 352.731 27.4092 351.836 29.665C350.977 31.8851 350.547 34.3737 350.547 37.1309V51.8477C350.547 54.6048 350.977 57.1113 351.836 59.3672C352.731 61.5872 353.984 63.5029 355.596 65.1143C357.207 66.6898 359.123 67.9251 361.343 68.8203C363.599 69.6797 366.087 70.1094 368.809 70.1094H387.607C390.329 70.1094 392.799 69.6797 395.02 68.8203C397.275 67.9251 399.209 66.6898 400.82 65.1143C402.432 63.5029 403.667 61.5872 404.526 59.3672C405.422 57.1113 405.869 54.6048 405.869 51.8477V37.1309ZM491.166 75.9639C491.166 76.9665 490.987 77.8975 490.629 78.7568C490.271 79.6162 489.77 80.3682 489.125 81.0127C488.517 81.6214 487.783 82.1048 486.923 82.4629C486.1 82.821 485.204 83 484.238 83H452.656C450.937 83 449.093 82.8031 447.123 82.4092C445.19 82.0153 443.274 81.3887 441.376 80.5293C439.479 79.6341 437.635 78.5241 435.844 77.1992C434.09 75.8385 432.55 74.2093 431.225 72.3115C429.9 70.3779 428.826 68.1579 428.002 65.6514C427.215 63.1449 426.821 60.3161 426.821 57.165V24.9385H440.786V57.165C440.786 58.9912 441.09 60.6383 441.699 62.1064C442.343 63.5387 443.203 64.7741 444.277 65.8125C445.351 66.8509 446.604 67.6566 448.037 68.2295C449.505 68.7666 451.08 69.0352 452.763 69.0352H477.202V24.9385H491.166V75.9639ZM550.682 38.9033H519.262C517.364 38.9033 515.931 39.3867 514.965 40.3535C513.998 41.2845 513.514 42.6631 513.514 44.4893V83H499.55V44.4893C499.55 42.0902 499.854 39.9417 500.463 38.0439C501.071 36.1462 501.877 34.4811 502.88 33.0488C503.918 31.5807 505.1 30.3454 506.425 29.3428C507.749 28.3044 509.128 27.4629 510.56 26.8184C512.028 26.1738 513.497 25.7083 514.965 25.4219C516.469 25.0996 517.865 24.9385 519.154 24.9385H550.682V38.9033ZM80.5742 185.964C80.5742 186.966 80.3952 187.897 80.0371 188.757C79.679 189.616 79.1777 190.368 78.5332 191.013C77.8887 191.621 77.1367 192.105 76.2773 192.463C75.418 192.821 74.5049 193 73.5381 193H42.0635C39.0915 193 36.0837 192.678 33.04 192.033C29.9964 191.389 27.0423 190.404 24.1777 189.079C21.349 187.718 18.6813 186 16.1748 183.923C13.6683 181.846 11.4661 179.393 9.56836 176.564C7.70638 173.7 6.23828 170.441 5.16406 166.789C4.08984 163.101 3.55273 159.001 3.55273 154.489V115.979H17.5176V154.489C17.5176 158.428 18.0547 161.758 19.1289 164.479C20.2389 167.201 21.6354 169.475 23.3184 171.301C25.0013 173.127 26.8454 174.559 28.8506 175.598C30.8558 176.636 32.7536 177.406 34.5439 177.907C36.3701 178.409 37.9635 178.731 39.3242 178.874C40.7207 178.981 41.6338 179.035 42.0635 179.035H66.6094V115.979H80.5742V185.964ZM146.697 173.396C146.697 175.795 146.392 177.961 145.784 179.895C145.175 181.792 144.369 183.475 143.367 184.943C142.364 186.376 141.2 187.611 139.875 188.649C138.551 189.652 137.154 190.476 135.686 191.12C134.254 191.765 132.786 192.248 131.282 192.57C129.814 192.857 128.417 193 127.092 193H89.2797V179.035H126.985C128.883 179.035 130.315 178.552 131.282 177.585C132.248 176.618 132.732 175.222 132.732 173.396C132.553 169.672 130.673 167.81 127.092 167.81H105.447C102.367 167.81 99.7533 167.272 97.6049 166.198C95.4564 165.124 93.7019 163.781 92.3412 162.17C91.0163 160.559 90.0495 158.822 89.4408 156.96C88.8679 155.098 88.5814 153.361 88.5814 151.75C88.5814 148.635 89.1365 146.021 90.2465 143.908C91.3565 141.76 92.753 140.023 94.4359 138.698C96.1189 137.373 97.9451 136.424 99.9145 135.852C101.884 135.243 103.728 134.938 105.447 134.938H139.768V148.903H105.554C104.838 148.903 104.265 148.993 103.835 149.172C103.441 149.315 103.137 149.53 102.922 149.816C102.743 150.067 102.636 150.354 102.6 150.676C102.564 150.962 102.546 151.249 102.546 151.535C102.582 152.108 102.69 152.556 102.869 152.878C103.048 153.2 103.262 153.433 103.513 153.576C103.8 153.719 104.104 153.809 104.426 153.845C104.784 153.845 105.124 153.845 105.447 153.845H127.092C130.673 153.845 133.717 154.489 136.223 155.778C138.73 157.067 140.753 158.697 142.292 160.666C143.832 162.6 144.942 164.712 145.622 167.004C146.339 169.296 146.697 171.426 146.697 173.396ZM214.592 154.167C214.592 156.101 214.251 158.195 213.571 160.451C212.891 162.671 211.781 164.748 210.241 166.682C208.737 168.579 206.75 170.173 204.279 171.462C201.844 172.751 198.872 173.396 195.363 173.396H170.173V160.129H195.363C197.261 160.129 198.729 159.556 199.767 158.41C200.806 157.229 201.325 155.778 201.325 154.06C201.325 152.233 200.734 150.801 199.553 149.763C198.407 148.724 197.01 148.205 195.363 148.205H170.173C168.275 148.205 166.807 148.796 165.768 149.978C164.73 151.123 164.211 152.556 164.211 154.274V173.771C164.211 175.633 164.784 177.084 165.929 178.122C167.111 179.16 168.561 179.68 170.28 179.68H195.363V193H170.173C168.239 193 166.144 192.66 163.888 191.979C161.668 191.299 159.592 190.207 157.658 188.703C155.76 187.163 154.167 185.176 152.878 182.741C151.589 180.271 150.944 177.281 150.944 173.771V154.167C150.944 152.233 151.284 150.157 151.965 147.937C152.645 145.681 153.737 143.604 155.241 141.706C156.781 139.772 158.768 138.161 161.203 136.872C163.674 135.583 166.664 134.938 170.173 134.938H195.363C197.297 134.938 199.373 135.279 201.594 135.959C203.849 136.639 205.926 137.749 207.824 139.289C209.758 140.793 211.369 142.78 212.658 145.251C213.947 147.686 214.592 150.658 214.592 154.167ZM270.402 148.903H238.981C237.083 148.903 235.651 149.387 234.684 150.354C233.717 151.285 233.234 152.663 233.234 154.489V193H219.269V154.489C219.269 152.09 219.573 149.942 220.182 148.044C220.791 146.146 221.596 144.481 222.599 143.049C223.637 141.581 224.819 140.345 226.144 139.343C227.469 138.304 228.847 137.463 230.279 136.818C231.748 136.174 233.216 135.708 234.684 135.422C236.188 135.1 237.584 134.938 238.873 134.938H270.402V148.903ZM331.368 173.396C331.368 175.795 331.063 177.961 330.455 179.895C329.846 181.792 329.04 183.475 328.038 184.943C327.035 186.376 325.871 187.611 324.546 188.649C323.222 189.652 321.825 190.476 320.357 191.12C318.925 191.765 317.457 192.248 315.953 192.57C314.485 192.857 313.088 193 311.763 193H273.951V179.035H311.656C313.554 179.035 314.986 178.552 315.953 177.585C316.92 176.618 317.403 175.222 317.403 173.396C317.224 169.672 315.344 167.81 311.763 167.81H290.118C287.038 167.81 284.424 167.272 282.276 166.198C280.128 165.124 278.373 163.781 277.012 162.17C275.687 160.559 274.721 158.822 274.112 156.96C273.539 155.098 273.253 153.361 273.253 151.75C273.253 148.635 273.808 146.021 274.918 143.908C276.028 141.76 277.424 140.023 279.107 138.698C280.79 137.373 282.616 136.424 284.586 135.852C286.555 135.243 288.399 134.938 290.118 134.938H324.439V148.903H290.225C289.509 148.903 288.936 148.993 288.506 149.172C288.113 149.315 287.808 149.53 287.593 149.816C287.414 150.067 287.307 150.354 287.271 150.676C287.235 150.962 287.217 151.249 287.217 151.535C287.253 152.108 287.361 152.556 287.54 152.878C287.719 153.2 287.934 153.433 288.184 153.576C288.471 153.719 288.775 153.809 289.097 153.845C289.455 153.845 289.796 153.845 290.118 153.845H311.763C315.344 153.845 318.388 154.489 320.894 155.778C323.401 157.067 325.424 158.697 326.963 160.666C328.503 162.6 329.613 164.712 330.294 167.004C331.01 169.296 331.368 171.426 331.368 173.396ZM443.74 170.334C443.74 173.091 443.382 175.58 442.665 177.8C441.985 179.984 441.072 181.918 439.926 183.601C438.78 185.284 437.438 186.716 435.898 187.897C434.358 189.079 432.765 190.046 431.118 190.798C429.47 191.55 427.788 192.105 426.069 192.463C424.386 192.821 422.792 193 421.288 193H367.416V179.035H421.288C423.974 179.035 426.051 178.247 427.519 176.672C429.023 175.096 429.775 172.984 429.775 170.334C429.775 169.045 429.578 167.863 429.184 166.789C428.79 165.715 428.217 164.784 427.465 163.996C426.749 163.208 425.854 162.6 424.78 162.17C423.741 161.74 422.578 161.525 421.288 161.525H389.169C386.913 161.525 384.479 161.132 381.865 160.344C379.251 159.52 376.816 158.213 374.56 156.423C372.34 154.632 370.478 152.287 368.974 149.387C367.506 146.486 366.772 142.941 366.772 138.752C366.772 134.562 367.506 131.035 368.974 128.171C370.478 125.271 372.34 122.925 374.56 121.135C376.816 119.309 379.251 118.002 381.865 117.214C384.479 116.39 386.913 115.979 389.169 115.979H436.704V129.943H389.169C386.52 129.943 384.443 130.749 382.939 132.36C381.471 133.972 380.737 136.102 380.737 138.752C380.737 141.438 381.471 143.568 382.939 145.144C384.443 146.683 386.52 147.453 389.169 147.453H421.288H421.396C422.9 147.489 424.493 147.704 426.176 148.098C427.859 148.456 429.524 149.029 431.171 149.816C432.854 150.604 434.448 151.607 435.952 152.824C437.455 154.006 438.78 155.438 439.926 157.121C441.108 158.804 442.039 160.738 442.719 162.922C443.399 165.106 443.74 167.577 443.74 170.334ZM509.325 173.771C509.325 175.705 508.985 177.8 508.305 180.056C507.624 182.276 506.514 184.353 504.974 186.286C503.471 188.184 501.483 189.777 499.013 191.066C496.578 192.355 493.606 193 490.096 193H464.906C462.972 193 460.878 192.66 458.622 191.979C456.402 191.299 454.325 190.207 452.391 188.703C450.494 187.163 448.9 185.176 447.611 182.741C446.322 180.271 445.678 177.281 445.678 173.771C445.678 171.838 446.018 169.743 446.698 167.487C447.378 165.231 448.471 163.155 449.974 161.257C451.514 159.323 453.501 157.712 455.936 156.423C458.407 155.134 461.397 154.489 464.906 154.489H490.096V167.81H464.906C463.008 167.81 461.54 168.4 460.502 169.582C459.463 170.728 458.944 172.16 458.944 173.879C458.944 175.705 459.535 177.137 460.717 178.176C461.934 179.178 463.366 179.68 465.013 179.68H490.096C491.994 179.68 493.462 179.107 494.501 177.961C495.539 176.815 496.058 175.383 496.058 173.664V154.167C496.058 152.341 495.485 150.891 494.34 149.816C493.23 148.742 491.815 148.205 490.096 148.205H459.428V134.938H490.096C492.03 134.938 494.107 135.279 496.327 135.959C498.583 136.639 500.66 137.749 502.557 139.289C504.491 140.793 506.102 142.78 507.391 145.251C508.68 147.686 509.325 150.658 509.325 154.167V173.771ZM580.872 198.586C580.872 200.985 580.568 203.133 579.959 205.031C579.35 206.965 578.545 208.648 577.542 210.08C576.54 211.548 575.376 212.784 574.051 213.786C572.726 214.825 571.33 215.666 569.862 216.311C568.429 216.955 566.979 217.421 565.511 217.707C564.043 218.029 562.646 218.19 561.321 218.19H536.131V204.226H561.321C563.183 204.226 564.58 203.742 565.511 202.775C566.442 201.809 566.907 200.412 566.907 198.586V134.938H580.872V198.586ZM561.321 193H536.131C534.126 193 531.977 192.66 529.686 191.979C527.43 191.299 525.317 190.189 523.348 188.649C521.378 187.074 519.749 185.051 518.46 182.58C517.171 180.074 516.527 177.012 516.527 173.396V134.938H530.491V173.396C530.491 175.222 530.975 176.618 531.942 177.585C532.908 178.552 534.341 179.035 536.238 179.035H561.321V193Z" fill="white"/>
</svg>
