<svg width="496" height="193" viewBox="0 0 496 193" fill="none" xmlns="http://www.w3.org/2000/svg">
<path d="M103.455 5.97852L90.5645 78.166C90.278 79.5983 89.6335 80.8337 88.6309 81.8721C87.6283 82.9105 86.4108 83.5729 84.9785 83.8594C83.5104 84.11 82.1139 83.9489 80.7891 83.376C79.5 82.8031 78.4795 81.9079 77.7275 80.6904L52.1611 38.6885L26.541 80.6904C25.9323 81.7288 25.0908 82.5345 24.0166 83.1074C22.9782 83.6803 21.8503 83.9668 20.6328 83.9668C18.9499 83.9668 17.4639 83.4297 16.1748 82.3555C14.8857 81.2812 14.098 79.8848 13.8115 78.166L0.813477 5.97852H14.9932L24.2314 56.8428L46.2529 21.7158C46.8617 20.6774 47.6852 19.8717 48.7236 19.2988C49.7979 18.7259 50.9437 18.4395 52.1611 18.4395C53.3786 18.4395 54.5065 18.7259 55.5449 19.2988C56.5833 19.8717 57.4427 20.6774 58.123 21.7158L80.0371 56.8428L89.2754 5.97852H103.455ZM173.713 83H159.748V44.4893C159.748 42.6631 159.283 41.2845 158.352 40.3535C157.421 39.3867 156.024 38.9033 154.162 38.9033H128.972V24.9385H154.162C155.487 24.9385 156.884 25.0996 158.352 25.4219C159.82 25.7083 161.27 26.1738 162.703 26.8184C164.171 27.4629 165.567 28.3044 166.892 29.3428C168.217 30.3454 169.381 31.5807 170.383 33.0488C171.386 34.4811 172.191 36.1462 172.8 38.0439C173.409 39.9417 173.713 42.0902 173.713 44.4893V83ZM123.332 83H109.368V0.392578H123.332V83ZM242.038 63.7715C242.038 65.7051 241.698 67.7998 241.017 70.0557C240.337 72.2757 239.227 74.3525 237.687 76.2861C236.183 78.1839 234.196 79.7773 231.725 81.0664C229.29 82.3555 226.318 83 222.809 83H197.619C195.685 83 193.591 82.6598 191.335 81.9795C189.115 81.2992 187.038 80.207 185.104 78.7031C183.207 77.1634 181.613 75.1761 180.324 72.7412C179.035 70.2705 178.39 67.2806 178.39 63.7715C178.39 61.8379 178.731 59.7432 179.411 57.4873C180.091 55.2314 181.183 53.1546 182.687 51.2568C184.227 49.3232 186.214 47.7119 188.649 46.4229C191.12 45.1338 194.11 44.4893 197.619 44.4893H222.809V57.8096H197.619C195.721 57.8096 194.253 58.4004 193.215 59.582C192.176 60.7279 191.657 62.1602 191.657 63.8789C191.657 65.7051 192.248 67.1374 193.429 68.1758C194.647 69.1784 196.079 69.6797 197.726 69.6797H222.809C224.707 69.6797 226.175 69.1068 227.214 67.9609C228.252 66.8151 228.771 65.3828 228.771 63.6641V44.167C228.771 42.3408 228.198 40.8906 227.053 39.8164C225.943 38.7422 224.528 38.2051 222.809 38.2051H192.14V24.9385H222.809C224.743 24.9385 226.82 25.2786 229.04 25.959C231.296 26.6393 233.373 27.7493 235.27 29.2891C237.204 30.793 238.815 32.7803 240.104 35.251C241.393 37.6859 242.038 40.6579 242.038 44.167V63.7715ZM302.145 38.9033H277.76V83H263.634V38.9033H245.48V24.9385H263.634V5.97852H277.76V24.9385H302.145V38.9033ZM433.047 24.9385C430.827 29.9157 428.428 34.8213 425.85 39.6553C423.271 44.4535 420.568 49.001 417.739 53.2979C414.946 57.5947 412.082 61.5693 409.146 65.2217C406.209 68.8382 403.291 71.9714 400.391 74.6211C397.526 77.235 394.715 79.2939 391.958 80.7979C389.237 82.266 386.659 83 384.224 83C383.221 83 382.29 82.821 381.431 82.4629C380.571 82.1048 379.819 81.6214 379.175 81.0127C378.53 80.3682 378.029 79.6162 377.671 78.7568C377.313 77.8975 377.134 76.9665 377.134 75.9639V49.9141L349.419 80.9053C348.703 81.6214 347.915 82.1585 347.056 82.5166C346.232 82.8389 345.373 83 344.478 83C343.511 83 342.598 82.821 341.738 82.4629C340.915 82.1048 340.181 81.6214 339.536 81.0127C338.892 80.3682 338.372 79.6162 337.979 78.7568C337.62 77.8975 337.441 76.9665 337.441 75.9639V24.9385H351.406V58.0244L379.229 26.9258C380.231 25.9232 381.413 25.2965 382.773 25.0459C384.17 24.7594 385.531 24.9027 386.855 25.4756C388.18 26.0127 389.219 26.8721 389.971 28.0537C390.758 29.1995 391.152 30.4707 391.152 31.8672V65.0605C394.16 62.1602 396.882 59.0986 399.316 55.876C401.751 52.6533 404.007 49.3411 406.084 45.9395C408.197 42.502 410.166 39.0286 411.992 35.5195C413.854 31.9746 415.662 28.4476 417.417 24.9385H433.047ZM495.947 44.167C495.947 46.1006 495.607 48.1953 494.926 50.4512C494.246 52.6712 493.136 54.748 491.596 56.6816C490.092 58.5794 488.105 60.1729 485.634 61.4619C483.199 62.751 480.227 63.3955 476.718 63.3955H451.528V50.1289H476.718C478.616 50.1289 480.084 49.556 481.122 48.4102C482.161 47.2285 482.68 45.7783 482.68 44.0596C482.68 42.2334 482.089 40.8011 480.908 39.7627C479.762 38.7243 478.365 38.2051 476.718 38.2051H451.528C449.63 38.2051 448.162 38.7959 447.123 39.9775C446.085 41.1234 445.566 42.5557 445.566 44.2744V63.7715C445.566 65.6335 446.139 67.0837 447.285 68.1221C448.466 69.1605 449.916 69.6797 451.635 69.6797H476.718V83H451.528C449.594 83 447.499 82.6598 445.244 81.9795C443.024 81.2992 440.947 80.207 439.013 78.7031C437.115 77.1634 435.522 75.1761 434.233 72.7412C432.944 70.2705 432.299 67.2806 432.299 63.7715V44.167C432.299 42.2334 432.639 40.1566 433.32 37.9365C434 35.6807 435.092 33.6038 436.596 31.7061C438.136 29.7725 440.123 28.1611 442.558 26.8721C445.029 25.583 448.019 24.9385 451.528 24.9385H476.718C478.652 24.9385 480.729 25.2786 482.949 25.959C485.204 26.6393 487.281 27.7493 489.179 29.2891C491.113 30.793 492.724 32.7803 494.013 35.251C495.302 37.6859 495.947 40.6579 495.947 44.167ZM67.2539 173.396C67.2539 175.795 66.9495 177.961 66.3408 179.895C65.7321 181.792 64.9264 183.475 63.9238 184.943C62.9212 186.376 61.7575 187.611 60.4326 188.649C59.1077 189.652 57.7113 190.476 56.2432 191.12C54.8109 191.765 53.3428 192.248 51.8389 192.57C50.3708 192.857 48.9743 193 47.6494 193H22.459C20.0599 193 17.9115 192.696 16.0137 192.087C14.1159 191.478 12.4329 190.673 10.9648 189.67C9.53255 188.632 8.2972 187.45 7.25879 186.125C6.25618 184.8 5.43262 183.422 4.78809 181.989C4.14355 180.521 3.66016 179.053 3.33789 177.585C3.05143 176.081 2.9082 174.685 2.9082 173.396V154.489C2.9082 150.909 3.55273 147.883 4.8418 145.412C6.16667 142.906 7.7959 140.882 9.72949 139.343C11.6989 137.767 13.8294 136.639 16.1211 135.959C18.4128 135.279 20.5254 134.938 22.459 134.938H47.6494V148.903H22.5664C20.7044 148.903 19.29 149.387 18.3232 150.354C17.3564 151.285 16.873 152.663 16.873 154.489V173.288C16.873 175.186 17.3385 176.618 18.2695 177.585C19.2363 178.552 20.6328 179.035 22.459 179.035H47.6494C49.5472 179.035 50.9616 178.552 51.8926 177.585C52.8236 176.618 53.2891 175.222 53.2891 173.396V110.393H67.2539V173.396ZM139.338 173.396C139.338 175.795 139.034 177.961 138.425 179.895C137.816 181.792 137.011 183.475 136.008 184.943C135.006 186.376 133.842 187.611 132.517 188.649C131.192 189.652 129.796 190.476 128.328 191.12C126.895 191.765 125.427 192.248 123.923 192.57C122.455 192.857 121.059 193 119.734 193H94.5434C92.6098 193 90.4971 192.66 88.2055 191.979C85.9138 191.299 83.7833 190.189 81.8139 188.649C79.8803 187.074 78.251 185.051 76.9262 182.58C75.6371 180.074 74.9926 177.012 74.9926 173.396V154.489C74.9926 150.909 75.6371 147.883 76.9262 145.412C78.251 142.906 79.8803 140.882 81.8139 139.343C83.7833 137.767 85.9138 136.639 88.2055 135.959C90.4971 135.279 92.6098 134.938 94.5434 134.938H119.734C123.315 134.938 126.358 135.583 128.865 136.872C131.371 138.161 133.394 139.79 134.934 141.76C136.474 143.693 137.584 145.806 138.264 148.098C138.98 150.389 139.338 152.52 139.338 154.489V173.396ZM125.373 154.597C125.373 152.663 124.89 151.231 123.923 150.3C122.956 149.369 121.56 148.903 119.734 148.903H94.6508C92.7888 148.903 91.3744 149.387 90.4076 150.354C89.4408 151.285 88.9574 152.663 88.9574 154.489V173.396C88.9574 175.222 89.4408 176.618 90.4076 177.585C91.3744 178.552 92.7888 179.035 94.6508 179.035H119.734C121.632 179.035 123.046 178.552 123.977 177.585C124.908 176.618 125.373 175.222 125.373 173.396V154.597ZM207.072 141.867C207.072 143.837 206.732 145.967 206.052 148.259C205.371 150.55 204.243 152.681 202.668 154.65C201.128 156.62 199.105 158.267 196.598 159.592C194.128 160.881 191.102 161.525 187.521 161.525H175.651V174.094H161.633V154.489C161.633 153.522 161.812 152.627 162.17 151.804C162.528 150.944 163.011 150.192 163.62 149.548C164.264 148.903 164.998 148.402 165.822 148.044C166.681 147.65 167.595 147.453 168.561 147.453H187.521C189.347 147.453 190.726 146.988 191.657 146.057C192.624 145.126 193.107 143.729 193.107 141.867V135.583C193.107 133.757 192.642 132.36 191.711 131.394C190.78 130.427 189.383 129.943 187.521 129.943H142.726V115.979H187.521C189.491 115.979 191.621 116.337 193.913 117.053C196.205 117.733 198.317 118.843 200.251 120.383C202.22 121.923 203.849 123.946 205.138 126.452C206.428 128.959 207.072 132.002 207.072 135.583V141.867ZM175.49 185.964C175.49 186.931 175.311 187.844 174.953 188.703C174.595 189.527 174.094 190.261 173.449 190.905C172.84 191.514 172.106 191.997 171.247 192.355C170.423 192.714 169.528 192.893 168.561 192.893C167.63 192.893 166.735 192.714 165.876 192.355C165.052 191.997 164.318 191.514 163.674 190.905C163.065 190.261 162.564 189.527 162.17 188.703C161.812 187.844 161.633 186.931 161.633 185.964C161.633 185.033 161.812 184.156 162.17 183.332C162.564 182.473 163.065 181.739 163.674 181.13C164.318 180.485 165.052 179.984 165.876 179.626C166.735 179.232 167.63 179.035 168.561 179.035C169.528 179.035 170.423 179.232 171.247 179.626C172.106 179.984 172.84 180.485 173.449 181.13C174.094 181.739 174.595 182.473 174.953 183.332C175.311 184.156 175.49 185.033 175.49 185.964Z" fill="white"/>
</svg>
