<svg width="496" height="194" viewBox="0 0 496 194" fill="none" xmlns="http://www.w3.org/2000/svg">
<path d="M103.455 5.97852L90.5645 78.166C90.278 79.5983 89.6335 80.8337 88.6309 81.8721C87.6283 82.9105 86.4108 83.5729 84.9785 83.8594C83.5104 84.11 82.1139 83.9489 80.7891 83.376C79.5 82.8031 78.4795 81.9079 77.7275 80.6904L52.1611 38.6885L26.541 80.6904C25.9323 81.7288 25.0908 82.5345 24.0166 83.1074C22.9782 83.6803 21.8503 83.9668 20.6328 83.9668C18.9499 83.9668 17.4639 83.4297 16.1748 82.3555C14.8857 81.2812 14.098 79.8848 13.8115 78.166L0.813477 5.97852H14.9932L24.2314 56.8428L46.2529 21.7158C46.8617 20.6774 47.6852 19.8717 48.7236 19.2988C49.7979 18.7259 50.9437 18.4395 52.1611 18.4395C53.3786 18.4395 54.5065 18.7259 55.5449 19.2988C56.5833 19.8717 57.4427 20.6774 58.123 21.7158L80.0371 56.8428L89.2754 5.97852H103.455ZM173.713 83H159.748V44.4893C159.748 42.6631 159.283 41.2845 158.352 40.3535C157.421 39.3867 156.024 38.9033 154.162 38.9033H128.972V24.9385H154.162C155.487 24.9385 156.884 25.0996 158.352 25.4219C159.82 25.7083 161.27 26.1738 162.703 26.8184C164.171 27.4629 165.567 28.3044 166.892 29.3428C168.217 30.3454 169.381 31.5807 170.383 33.0488C171.386 34.4811 172.191 36.1462 172.8 38.0439C173.409 39.9417 173.713 42.0902 173.713 44.4893V83ZM123.332 83H109.368V0.392578H123.332V83ZM242.038 63.7715C242.038 65.7051 241.698 67.7998 241.017 70.0557C240.337 72.2757 239.227 74.3525 237.687 76.2861C236.183 78.1839 234.196 79.7773 231.725 81.0664C229.29 82.3555 226.318 83 222.809 83H197.619C195.685 83 193.591 82.6598 191.335 81.9795C189.115 81.2992 187.038 80.207 185.104 78.7031C183.207 77.1634 181.613 75.1761 180.324 72.7412C179.035 70.2705 178.39 67.2806 178.39 63.7715C178.39 61.8379 178.731 59.7432 179.411 57.4873C180.091 55.2314 181.183 53.1546 182.687 51.2568C184.227 49.3232 186.214 47.7119 188.649 46.4229C191.12 45.1338 194.11 44.4893 197.619 44.4893H222.809V57.8096H197.619C195.721 57.8096 194.253 58.4004 193.215 59.582C192.176 60.7279 191.657 62.1602 191.657 63.8789C191.657 65.7051 192.248 67.1374 193.429 68.1758C194.647 69.1784 196.079 69.6797 197.726 69.6797H222.809C224.707 69.6797 226.175 69.1068 227.214 67.9609C228.252 66.8151 228.771 65.3828 228.771 63.6641V44.167C228.771 42.3408 228.198 40.8906 227.053 39.8164C225.943 38.7422 224.528 38.2051 222.809 38.2051H192.14V24.9385H222.809C224.743 24.9385 226.82 25.2786 229.04 25.959C231.296 26.6393 233.373 27.7493 235.27 29.2891C237.204 30.793 238.815 32.7803 240.104 35.251C241.393 37.6859 242.038 40.6579 242.038 44.167V63.7715ZM302.145 38.9033H277.76V83H263.634V38.9033H245.48V24.9385H263.634V5.97852H277.76V24.9385H302.145V38.9033ZM433.047 24.9385C430.827 29.9157 428.428 34.8213 425.85 39.6553C423.271 44.4535 420.568 49.001 417.739 53.2979C414.946 57.5947 412.082 61.5693 409.146 65.2217C406.209 68.8382 403.291 71.9714 400.391 74.6211C397.526 77.235 394.715 79.2939 391.958 80.7979C389.237 82.266 386.659 83 384.224 83C383.221 83 382.29 82.821 381.431 82.4629C380.571 82.1048 379.819 81.6214 379.175 81.0127C378.53 80.3682 378.029 79.6162 377.671 78.7568C377.313 77.8975 377.134 76.9665 377.134 75.9639V49.9141L349.419 80.9053C348.703 81.6214 347.915 82.1585 347.056 82.5166C346.232 82.8389 345.373 83 344.478 83C343.511 83 342.598 82.821 341.738 82.4629C340.915 82.1048 340.181 81.6214 339.536 81.0127C338.892 80.3682 338.372 79.6162 337.979 78.7568C337.62 77.8975 337.441 76.9665 337.441 75.9639V24.9385H351.406V58.0244L379.229 26.9258C380.231 25.9232 381.413 25.2965 382.773 25.0459C384.17 24.7594 385.531 24.9027 386.855 25.4756C388.18 26.0127 389.219 26.8721 389.971 28.0537C390.758 29.1995 391.152 30.4707 391.152 31.8672V65.0605C394.16 62.1602 396.882 59.0986 399.316 55.876C401.751 52.6533 404.007 49.3411 406.084 45.9395C408.197 42.502 410.166 39.0286 411.992 35.5195C413.854 31.9746 415.662 28.4476 417.417 24.9385H433.047ZM495.947 44.167C495.947 46.1006 495.607 48.1953 494.926 50.4512C494.246 52.6712 493.136 54.748 491.596 56.6816C490.092 58.5794 488.105 60.1729 485.634 61.4619C483.199 62.751 480.227 63.3955 476.718 63.3955H451.528V50.1289H476.718C478.616 50.1289 480.084 49.556 481.122 48.4102C482.161 47.2285 482.68 45.7783 482.68 44.0596C482.68 42.2334 482.089 40.8011 480.908 39.7627C479.762 38.7243 478.365 38.2051 476.718 38.2051H451.528C449.63 38.2051 448.162 38.7959 447.123 39.9775C446.085 41.1234 445.566 42.5557 445.566 44.2744V63.7715C445.566 65.6335 446.139 67.0837 447.285 68.1221C448.466 69.1605 449.916 69.6797 451.635 69.6797H476.718V83H451.528C449.594 83 447.499 82.6598 445.244 81.9795C443.024 81.2992 440.947 80.207 439.013 78.7031C437.115 77.1634 435.522 75.1761 434.233 72.7412C432.944 70.2705 432.299 67.2806 432.299 63.7715V44.167C432.299 42.2334 432.639 40.1566 433.32 37.9365C434 35.6807 435.092 33.6038 436.596 31.7061C438.136 29.7725 440.123 28.1611 442.558 26.8721C445.029 25.583 448.019 24.9385 451.528 24.9385H476.718C478.652 24.9385 480.729 25.2786 482.949 25.959C485.204 26.6393 487.281 27.7493 489.179 29.2891C491.113 30.793 492.724 32.7803 494.013 35.251C495.302 37.6859 495.947 40.6579 495.947 44.167ZM59.6807 173.396C59.6807 175.795 59.3763 177.961 58.7676 179.895C58.1589 181.792 57.3532 183.475 56.3506 184.943C55.348 186.376 54.1842 187.611 52.8594 188.649C51.5345 189.652 50.138 190.476 48.6699 191.12C47.2376 191.765 45.7695 192.248 44.2656 192.57C42.7975 192.857 41.401 193 40.0762 193H2.26367V179.035H39.9688C41.8665 179.035 43.2988 178.552 44.2656 177.585C45.2324 176.618 45.7158 175.222 45.7158 173.396C45.5368 169.672 43.6569 167.81 40.0762 167.81H18.4307C15.3512 167.81 12.7373 167.272 10.5889 166.198C8.44043 165.124 6.68587 163.781 5.3252 162.17C4.00033 160.559 3.03353 158.822 2.4248 156.96C1.85189 155.098 1.56543 153.361 1.56543 151.75C1.56543 148.635 2.12044 146.021 3.23047 143.908C4.34049 141.76 5.73698 140.023 7.41992 138.698C9.10286 137.373 10.929 136.424 12.8984 135.852C14.8678 135.243 16.7119 134.938 18.4307 134.938H52.752V148.903H18.5381C17.8219 148.903 17.249 148.993 16.8193 149.172C16.4255 149.315 16.1211 149.53 15.9062 149.816C15.7272 150.067 15.6198 150.354 15.584 150.676C15.5482 150.962 15.5303 151.249 15.5303 151.535C15.5661 152.108 15.6735 152.556 15.8525 152.878C16.0316 153.2 16.2464 153.433 16.4971 153.576C16.7835 153.719 17.0879 153.809 17.4102 153.845C17.7682 153.845 18.1084 153.845 18.4307 153.845H40.0762C43.6569 153.845 46.7005 154.489 49.207 155.778C51.7135 157.067 53.7367 158.697 55.2764 160.666C56.8161 162.6 57.9261 164.712 58.6064 167.004C59.3226 169.296 59.6807 171.426 59.6807 173.396ZM127.576 154.167C127.576 156.101 127.235 158.195 126.555 160.451C125.875 162.671 124.765 164.748 123.225 166.682C121.721 168.579 119.734 170.173 117.263 171.462C114.828 172.751 111.856 173.396 108.347 173.396H83.1566V160.129H108.347C110.245 160.129 111.713 159.556 112.751 158.41C113.79 157.229 114.309 155.778 114.309 154.06C114.309 152.233 113.718 150.801 112.537 149.763C111.391 148.724 109.994 148.205 108.347 148.205H83.1566C81.2589 148.205 79.7908 148.796 78.7523 149.978C77.7139 151.123 77.1947 152.556 77.1947 154.274V173.771C77.1947 175.633 77.7676 177.084 78.9135 178.122C80.0951 179.16 81.5453 179.68 83.2641 179.68H108.347V193H83.1566C81.223 193 79.1283 192.66 76.8725 191.979C74.6524 191.299 72.5756 190.207 70.642 188.703C68.7442 187.163 67.1508 185.176 65.8617 182.741C64.5727 180.271 63.9281 177.281 63.9281 173.771V154.167C63.9281 152.233 64.2683 150.157 64.9486 147.937C65.629 145.681 66.7211 143.604 68.225 141.706C69.7647 139.772 71.752 138.161 74.1869 136.872C76.6576 135.583 79.6475 134.938 83.1566 134.938H108.347C110.281 134.938 112.357 135.279 114.578 135.959C116.833 136.639 118.91 137.749 120.808 139.289C122.742 140.793 124.353 142.78 125.642 145.251C126.931 147.686 127.576 150.658 127.576 154.167ZM183.386 148.903H151.965C150.067 148.903 148.635 149.387 147.668 150.354C146.701 151.285 146.218 152.663 146.218 154.489V193H132.253V154.489C132.253 152.09 132.557 149.942 133.166 148.044C133.775 146.146 134.58 144.481 135.583 143.049C136.621 141.581 137.803 140.345 139.128 139.343C140.453 138.304 141.831 137.463 143.263 136.818C144.732 136.174 146.2 135.708 147.668 135.422C149.172 135.1 150.568 134.938 151.857 134.938H183.386V148.903ZM257.511 134.938C255.935 139.844 254.091 144.678 251.979 149.44C249.866 154.203 247.431 158.75 244.674 163.083C241.953 167.38 238.891 171.372 235.489 175.061C232.124 178.713 228.382 181.882 224.264 184.567C220.182 187.217 215.724 189.312 210.89 190.852C206.092 192.355 200.882 193.107 195.26 193.107C194.293 193.107 193.38 192.928 192.521 192.57C191.661 192.212 190.909 191.729 190.265 191.12C189.62 190.476 189.119 189.742 188.761 188.918C188.403 188.059 188.224 187.146 188.224 186.179V134.938H202.189V178.605C205.59 178.605 208.849 177.871 211.964 176.403C215.115 174.935 218.087 173.002 220.88 170.603C223.673 168.168 226.251 165.41 228.614 162.331C231.014 159.252 233.144 156.101 235.006 152.878C236.868 149.619 238.444 146.433 239.733 143.317C241.057 140.202 242.042 137.409 242.687 134.938H257.511ZM320.626 154.167C320.626 156.101 320.285 158.195 319.605 160.451C318.925 162.671 317.815 164.748 316.275 166.682C314.771 168.579 312.784 170.173 310.313 171.462C307.878 172.751 304.906 173.396 301.397 173.396H276.207V160.129H301.397C303.295 160.129 304.763 159.556 305.801 158.41C306.84 157.229 307.359 155.778 307.359 154.06C307.359 152.233 306.768 150.801 305.587 149.763C304.441 148.724 303.044 148.205 301.397 148.205H276.207C274.309 148.205 272.841 148.796 271.802 149.978C270.764 151.123 270.245 152.556 270.245 154.274V173.771C270.245 175.633 270.818 177.084 271.963 178.122C273.145 179.16 274.595 179.68 276.314 179.68H301.397V193H276.207C274.273 193 272.178 192.66 269.922 191.979C267.702 191.299 265.626 190.207 263.692 188.703C261.794 187.163 260.201 185.176 258.912 182.741C257.623 180.271 256.978 177.281 256.978 173.771V154.167C256.978 152.233 257.318 150.157 257.999 147.937C258.679 145.681 259.771 143.604 261.275 141.706C262.815 139.772 264.802 138.161 267.237 136.872C269.708 135.583 272.698 134.938 276.207 134.938H301.397C303.331 134.938 305.407 135.279 307.628 135.959C309.883 136.639 311.96 137.749 313.858 139.289C315.792 140.793 317.403 142.78 318.692 145.251C319.981 147.686 320.626 150.658 320.626 154.167ZM386.479 141.867C386.479 143.837 386.139 145.967 385.459 148.259C384.779 150.55 383.651 152.681 382.075 154.65C380.535 156.62 378.512 158.267 376.006 159.592C373.535 160.881 370.509 161.525 366.929 161.525H355.059V174.094H341.04V154.489C341.04 153.522 341.219 152.627 341.577 151.804C341.935 150.944 342.419 150.192 343.027 149.548C343.672 148.903 344.406 148.402 345.229 148.044C346.089 147.65 347.002 147.453 347.969 147.453H366.929C368.755 147.453 370.133 146.988 371.064 146.057C372.031 145.126 372.515 143.729 372.515 141.867V135.583C372.515 133.757 372.049 132.36 371.118 131.394C370.187 130.427 368.791 129.943 366.929 129.943H322.134V115.979H366.929C368.898 115.979 371.029 116.337 373.32 117.053C375.612 117.733 377.725 118.843 379.658 120.383C381.628 121.923 383.257 123.946 384.546 126.452C385.835 128.959 386.479 132.002 386.479 135.583V141.867ZM354.897 185.964C354.897 186.931 354.718 187.844 354.36 188.703C354.002 189.527 353.501 190.261 352.856 190.905C352.248 191.514 351.514 191.997 350.654 192.355C349.831 192.714 348.936 192.893 347.969 192.893C347.038 192.893 346.143 192.714 345.283 192.355C344.46 191.997 343.726 191.514 343.081 190.905C342.472 190.261 341.971 189.527 341.577 188.703C341.219 187.844 341.04 186.931 341.04 185.964C341.04 185.033 341.219 184.156 341.577 183.332C341.971 182.473 342.472 181.739 343.081 181.13C343.726 180.485 344.46 179.984 345.283 179.626C346.143 179.232 347.038 179.035 347.969 179.035C348.936 179.035 349.831 179.232 350.654 179.626C351.514 179.984 352.248 180.485 352.856 181.13C353.501 181.739 354.002 182.473 354.36 183.332C354.718 184.156 354.897 185.033 354.897 185.964Z" fill="white"/>
</svg>
