<svg width="98" height="86" viewBox="0 0 98 86" fill="none" xmlns="http://www.w3.org/2000/svg">
<rect width="85.5121" height="81.7042" rx="12" transform="matrix(0.99863 -0.052336 0.139173 0.990268 0.976562 5.05957)" fill="#FF5722"/>
<g clip-path="url(#clip0_1592_5509)">
<path d="M49.3785 27.2229C46.15 27.2243 42.9928 28.1672 40.3063 29.9323C37.6198 31.6975 35.5246 34.2056 34.2856 37.1396C33.0466 40.0736 32.7196 43.3015 33.3458 46.4154C33.9719 49.5292 35.5233 52.389 37.8036 54.6331C40.0838 56.8773 42.9907 58.405 46.1565 59.023C49.3223 59.6411 52.6048 59.3217 55.589 58.1054C58.5733 56.889 61.1251 54.8303 62.9219 52.1895C64.7187 49.5487 65.6797 46.4445 65.6835 43.2694C65.6839 39.0131 63.9674 34.9331 60.9107 31.9248C57.8539 28.9165 53.7065 27.2255 49.3785 27.2229ZM63.1721 43.2705C63.1714 45.0132 62.8283 46.7399 62.1616 48.3556L55.1505 44.1152C54.8524 43.9343 54.5188 43.8172 54.1714 43.7714L50.5902 43.2976C50.0967 43.2345 49.595 43.3161 49.148 43.5321C48.701 43.7481 48.3286 44.089 48.0774 44.5119L46.7087 44.5125L46.1137 43.2995C45.9492 42.9617 45.7082 42.6656 45.4092 42.4338C45.1102 42.2019 44.7611 42.0405 44.3887 41.9619L43.1333 41.6954L44.3632 39.574L46.9861 39.5728C47.4105 39.5718 47.8279 39.4655 48.1997 39.2636L50.1237 38.2193C50.2927 38.1266 50.4508 38.0157 50.595 37.8887L54.8232 34.1297C55.2471 33.7563 55.5292 33.2521 55.6228 32.7004C55.7165 32.1487 55.6162 31.5823 55.3385 31.0947L55.2821 30.9944C57.6443 32.0955 59.6394 33.8334 61.036 36.0063C62.4326 38.1792 63.1733 40.698 63.1721 43.2705ZM35.5471 43.2825C35.5474 41.2635 36.0078 39.2695 36.8945 37.447L38.6689 42.1188C38.8168 42.5056 39.0611 42.8496 39.3794 43.1191C39.6978 43.3887 40.0799 43.5752 40.4909 43.6616L43.8538 44.3718L44.4503 45.594C44.6574 46.0098 44.9786 46.3601 45.3777 46.6054C45.7768 46.8507 46.2379 46.9813 46.7089 46.9823L46.9412 46.9822L45.8035 49.488C45.603 49.9292 45.5384 50.4184 45.6176 50.8949C45.6968 51.3714 45.9164 51.8144 46.2492 52.1691L46.2711 52.1907L49.3455 55.3074L49.0391 56.8512C45.432 56.7702 42.0022 55.306 39.4815 52.771C36.9608 50.236 35.549 46.831 35.5471 43.2825Z" fill="white"/>
</g>
<defs>
<clipPath id="clip0_1592_5509">
<rect width="40" height="40" fill="white" transform="matrix(1.00454 -0.000437602 -0.00116368 0.987915 29.292 23.5269)"/>
</clipPath>
</defs>
</svg>
